<mxfile host="65bd71144e">
    <diagram id="oW9rvf52QufYf75iH_Io" name="Page-1">
        <mxGraphModel dx="1251" dy="1499" grid="1" gridSize="10" guides="1" tooltips="1" connect="1" arrows="1" fold="1" page="1" pageScale="1" pageWidth="827" pageHeight="1169" math="0" shadow="0">
            <root>
                <mxCell id="0"/>
                <mxCell id="1" parent="0"/>
                <mxCell id="2" value="" style="shape=image;verticalLabelPosition=bottom;labelBackgroundColor=#ffffff;verticalAlign=top;aspect=fixed;imageAspect=0;image=data:image/png,iVBORw0KGgoAAAANSUhEUgAAAfYAAAErCAIAAACjKTYaAAAgAElEQVR4Aey991cU6dYvfv+V7/2+6/5671r3rnXf9YYzZ8575jjJjFlykJwki4gKihJEBAVRspjIoOQMApKjKLlzV1fnnOCu/ezqonWcGWfEGfEUq1evoruqumpX1efZz96f/dn/bYv74yzAWYCzAGeBL9QC/+0LPS/utDgLcBbgLMBZYIuDeO4m4CzAWYCzwBdrAQ7iv9hLy50YZwHOApwFOIjn7gHOApwFOAt8sRbgIP6LvbTciXEW4CzAWYCDeO4e4CzAWYCzwBdrAQ7iv9hLy50YZwHOApwFOIjn7gHOApwFOAt8sRbgIP6LvbTciXEW4CzAWYCDeO4e4CzAWYCzwBdrAQ7iv9hLy50YZwHOApwFOIjn7gHOApwFOAt8sRbgIP6LvbTciXEW4CzAWYCDeO4e4CzAWYCzwBdrAQ7iv9hLy50YZwHOApwFOIjn7gHOApwFOAt8sRbgIP6LvbTciXEW4CzAWYCDeO4e4CzAWYCzwBdrAQ7iv9hLy50YZwHOApwFOIjn7gHOApwFOAt8sRbgIP6LvbTciXEW4CzAWYCDeO4e4CzAWYCzwBdrAQ7iv9hLy50YZwHOApwFOIjn7oE/yQKbW1v2d1+bts1N2+bW5p90SNzPchb44izAQfwXd0n/3BPa3AKA3tzatG/iy2a12Sw2i9lqNplNBpNBb8CXXmfQ6/Q6rU6n1Wk1Wq0aXjqNTqfR6XV6o8FoNpotZqvdZucQ/8+9pNyv72oLcBC/qy/f53HwxB/ftG9aLTaz0WzQG7QarVqlVilVCrmSlslpGS2jZJSUoiQUJaVklAxeUvhEKqGkEqlELJGIJSKhGF9ioVgilkrFUkpK0TJaIVeqVWq9Vm80mKwWAvp2MpB8HmfPHQVngc/ZAhzEf85XZxccm81qNxnBN9dp9Rq1Rq1UK+VKOS2npDKpWCoWioUCoYAvFPAFQr5QKBCKhCKxUCwWieEdF0RikVAkEogcK5BvRfAOnwtFsDJ5ScQSWkarlCqNWmvQGcwms83K+fi74CbhDvFPtAAH8X+i8XfbT2OInMRh7Fa71Ww16AwKWkHLaOKng6sOsE7gW8AT8NZ5K8uri68WJycmR4ZHBvoHuju7nz97XlNd+/jRk0cPH+Hr8aPHTx8/ra6qbn7e3NHe2dvT+2LgxeTE5ML8wsryKm+DLxFJ0N8Xi8QSscTh9UspqUwhV+i1eoL1Ngjio3fPhfJ3253FHe+nswAH8Z/Otl/Knh3IbrfZrRabyWjSa/VKiMDQGGyRUbRUAg77+ur67PTs4MBga3NrWUlZ3q281JQr5xPPn408GxocesbvjK+Pn5enl6eHp6e7p6eHp5enl7eXt7eXj4+3D1nw9vXxCw4MjgiPiIqMSkxIvJZ2Le9WXllpWW11bVdn1+jI6JvFNyKhSEbRclouo2QSkQSnAjKpTKPSGPVGs8liR9ceswJfykXgzoOzwO+zAAfxv89u/xxbObnDNotNq9Eq5OCzg7cOMXRKJBStraxNTky1tbY9qHhwI+vG+XPnw0LDAvwDggKDz0aejYuNT01JvXXzVmlxadXTqvq6+pbm1q7Ort6e3t6e3r7evv7efnj19ff19re1tjU2ND1++PhBxYPbubevpV1LOp8UHRUTFgI7DAkKiY+NT7+eXlJU0vy8eXho5NXCKyFfSEkpnDdIJVI5rVApVTqNzmSEqP2m3ekE/jmuGHeWnAXesQAH8e8YhPvXyQLEEbZZbWaTRa1SS8VSkUCEidPVldXRkdGa6pq8W3nJF5IjwiJCQ8LiYuKup12vKH/wrOnZi8EXk+OTqyurIqFYLpMr5AqFXAFZU51eD1F7rUalISlZyMriC5O0cppJz4qEoo31jdevXr8YfNHY0FhSXJJ+Pf184vnoqOjI8MizkWdTLqeUl5b39vTNTM9srG3IKBnJAUA6F3/LaDDarDYAeg7qna4qt/hPZQEO4v+pLvcHn+zmlt1mt1ltBp1BTisUtAJjI0K+cGF+oaW55VZO7vlz50NDQs9Gnr1+7frDyofdXd3TU9O8DT5mRJUKpUKuVMgVBLIBtdmXjIJ5gOOdsGuQbwMEG6lUAkQaqUQqo2RqpdoxEqhklEzAF7xefDMyNFJXW5eTnRMXExccFBwdFZ2aknq/8H5vd+/y0jIJ4wBXRyIGp16r0ZoYHg4H9B989bkVvyALcBD/BV3MHTkVh+duNBg1ag1iLi2jpWLp5Pjkw8qHly5eCgsNOxsZlZmRWV1V/WJwaGV5VUbRSoVKSTCdlkGUHCiS+CK0SKmEkoglLEmGoco4GDViEXzleAGBEjOrlAQZljQtk8tpeAGBUqlWKpRCgXBudq6zo7OstPxK6pWI8IjgoJCUyyl1tXUz0zNioRhGFAqyBUq5UqvRGvQOj54jXO7IfcLtZJdYgIP4XXKhPvVhYnKSOO8Ws0Wvg4SqVCylZTQlpeZm5spKyqKjYgL8A84lJJYWlw4NDq0ur1JSinjr6KrDmgz5ncA6LuMgIRFLkRkpEgA/knkRTuT2v/g5fuhAf6TMk3cpkOXBx5fRMrlSoYQXOcg3r5fa29rzcvNiomOCAoLOJ55/WPlwbnYepwI4LVApVHrCs2SY9Vzo5lPfUdz+Pw8LcBD/eVyHz+EoNrdsVpvRYFSr1LRMjmF3IV/Y2NCUEJfg4e5xMfli1dOqyYlJsUiiIj47BFukUMSEpUyQgwXSJLBcRA6MRsaLSCgS8IXIfBcKhEIHmpNl4Mu/8wLcB6wH7jy6/LiMewPsJj9KBhWZXCanpJD7nZyYfPzo8aWLl4MCgy5dvNTY0Li8tIIDDwaaMBlgNVuBXsn9cRb4J7AAB/H/BBf5A09xcwt57hJSVqqQKybHJ2/euOnr4xsRHlFZUTk/Ny+jaIVcAcVNMrlMKnNQ1CWOIlWpRCRhap14AsFPXnwen8/jQxmUA9MFfMF7X2QFEbyTgYGpnIISKvhEBOWvEM+RkiJYKYnnwIEplFKJdGFu4cnjp3Gx8cFBwTk3c14Ov5RKpDRFS0QSGSVTKpQGvQFqpn7jH+jnkCAPvJMXKDTYNknSAvIWNosN3q02u81u55R2fqN5udU/kQU4iP9Eht1tu93cMhlNclpOxAMkfB6/s6MzJjrmjO+Ze3fvjY2Ok+A4xG0wzo6xdcRZEkN3BNOFYqxlRTR3fndAOVPsikDv+BCAftvHJ9WwzFc8AdnJ9kjAFMGCmy+WiCQSERRDYTSGpjCpC1OQ0Zej+XfyQ0NCIyMiq6tqNtY3aJkcVpNAcMmgN4D6zQf/WS1Wo0NgB0hBRF0HqnlVarVSDXMaEjhC4pBSoVQpVXqd3mK2ELi3c/TND7Y0t+IOW4CD+B026K7cHcF3hVyB4ZS11bXHj574n/GPjIh8/uy5UCBE1iNLgwHnnU2QOoRlQF6GiBAgNDuDOy4jiIuE4JvjOqhnwMbineF+e5mBeD6ft43yODzA5gKHHIJD4QBHHSRQ8jZ47W3tiecSfX18S0tKeRs8SkoJ+UIpQXmj3vhLF8vBKTIbzTqtTqkgpV5EXYeSyigmhwzpATQFUdeB4BLW3woFIgFfQEkpmO5QtFql1mq0ei2APhcj+iWzc9/ttAU4iN9pi+66/dm3TAaTnFZAhapIvL62/rDyobube1xs3GD/oFQMGmGYt2T8d8KOFwpEEE9nUqMkfQrYDbiGLz6PL+QLt2M1js8dK5DgO3rrDhB3fOWAcsfnjtECPoc4jwPr2WgPDhsY2wHQF4nRW1fQQMafm53LSM/w8vC6k3dn+c0yjiiUFCI2Novtp5fLbrWbTWadVq8iejukzgtmCbhPUFIjLxhFZHIFDWErlVKFCQw5LScSOqDVIyfSDkDpUahgc5K7VsgVKgUUZ5mN5t80jfjpcXKfcBb4EAtwEP8hVvqS14H4jEyOCl9ikeTpk6dup93iYuPGRsfUKo1YJCbIK0Sgl0qAGONww8GJZlEeAdcZpiVi0JZhX1IiM8kmP5EHiZENfGeZ8kw4SEIxcwXQMiNxeYf7j7/iOAxmSHAgPvj1GMDB4JJKoVp6s5SVmXXi+Mk7t+9srPMQrKUSqUKusJitzNW1b5mNZr1Wr1KogCRK9C9R+RLWpBXI4CReOXjx62vrC/MLY6Njwy+GBwcG+/v6u7u6+3v7e3t6B/oHXgy+mJmeXVtdx/OVk8IC0HsgVcHM8EAUNA16A6R/OYbPl/yQ/ZnnxkH8n2n9P/O3EVM2t5QKFeh8Efxta2338faJiY6ZnppWK9WUlEKXmURUxMheZ6HcAalEPJKoQjKBF6EIMVFFCpc0Ko1GrUFdeL1Ob9AbjHqj0cC8TEaTyWjGFyslb9A7pOQ1ICWvUWmUCiU4xSiGIwLEF/AFTs77ewg5yLIngxBw5IUC4c0bN11PuVY9rQK+PCXDnK1Wo7VarFaLVafVESAGbQYUyBSLxDKpTEEDJRTnN4MDgzXVNbfzbkedjQoJCgkMCPRw9zh65NjxY8dPHD9x7MixgwcOHTxwcP++/adOnvLy9AoODD6XcC7lcurdgrvPm56D4oJACPLItAKnR0RaGfj7KqXKZDRxfv1vfiI4JaJfMxkH8b9moS/6e5PRROqMgJ0y+nIsLjYuMiJyZHiExBkgOQnBlp+AKetEsygvhVJSuVKuVCpUEIjQ6kjHDwO+G3QGo8FoMphMRpPZZDabLBYz8yL/mn/13Wgw6rQ6jVpDNOgB60n9KkjMs8fgvMBOL7DYSiwUqxQqAU9wJfWKl6f3YP+gQq5Ago2cRFpA1x72CRwhZOmQYi6lgC+YGJ9oamzKzMj08fY5fOjw4UOHTxw/6eXpFRcTl52VXVhQ+PDBw/q6+ufPmjvaO1qbWxvqGx49fFReVp6TnXP54uXQkLBA/8BTJ04dPHBo3959fr5+6dfTW5pbFhcWxSIxKC6QEUUilpCQjtJoMIJkJvf3IRZwFHMgwelDtvgnXIeD+F1+0cldjjIsbKMl5PZh96V33tl1toAFb5fTCoxcr62s5d/JDw4MbmpowoAJicxQGAxxRk+n8IhQLBKDH0ri2sQ3Nxn1BMoNJgB0A/yLPjv++8vvzMrsHsh4AA4+7spgRO8e5wEatYamaLFIAjleRw7AcWzg1GPMHbEea2WVcuX83IK3l3fS+SQhX4hBdiKTCXoJTJCd0O0lYsniwuKzpmeXLl5yd3U/fuy422m3i8kXi+4XNz9vmRibWHqzTFM0Nq7SqDRajRbl8pkmVkSBB3k1vA1IFM/NznV1dhXfL05KTPJw9zh29Jifr9/li5fr6+oX5hfEZBZFEh6goKlRa1Fdh4ve7PKH87M4fA7iP4vL8DsOYtMOjGyrxYrqvlq1VqPWqkHbi5X3UquUzEutUmvUGliH4BEqtyjkgO8SMTDZO9s7z0aevZ13e2NtQ06D/45FTGwQ3BnlkdAiFkkUchCBIRK+ZovJgs64xWSB8IsD5XdqAWI7OGCQd+wRqNPqUC8BuECQhmWI886UG2C5iIBBT0kptVJdWlJ6/Ojx58+eq1UaoYAhwKAevUgoWnqz3NvTm38nPyQ49PjR42f8/G/l3GpraVtfW6ckFBZ8kckK6iioIItAIjlymRzJM9u5BzEMG6jYo1ZpoD6LOOxzs3P1dfXXr10PCgg6fvR4cGBwXm5ed1f32uoaiUdBXkRG0RqVxmw0/44bYxdv4qwt8d6ZDNvvl/Xfd/HZ/kGHzkH8H2ToHfuZzS2rxWrQOwIXChVO9pEsuF0CytSFsqWhpFJUBAEZDLvTMhpCNEJww18tvEq/nh4bEzsyPAKKYyRe4XCQ3wpzY9BGIoZEpUatwQiM2WSxWqwA8RBV33lwh9kAid2/M1rgjAFdeyC0OGTrMbiEHE2WWIn2USqUrxZe+Z/xTzp/gSE7CkTY1WTp9VJ7a3tWRlZwYHBwUHD6tfSmxqa11TWdVqdSqLQaLQUyO0wPQiTYkJQsfIIjJWakAeIJ5YaszIougESPSCiipCCHiYqYy0vLba1t19Ku+fv5+/r4Jp1PevL46fTkNFFIZvogatQas4lwb94LeTt2V30WO7KYLZB5xj/2fFk0xwVH3Rl0BWA7wOBXn8VJfHYHwUH8Z3dJ3nNARFrAbDIb9UZWtB1zhsi8ZikoWGXqeGfQhyEROpqmopuJ7ZmwzV5ba1tQYFDh3UKIDhMxAFKkypBYHNEP8JGFfCFEEkjzDZPRZCTgCxF2o/nT4fs7yM7+ixBvNpktZhhd9Do9YS7ShN0v4EOEBBiWmARGxJeIJXJafuf2nVMnTo2+HFXIoRp2dWW1taXtSsqVM35nwkLDCu8Wjo6MikVilVIlg1gQQ8FEKHfO8W43HXSoLIjJIOpUEca0J8QxAMJBQDGS4Yu0pVWIhOLRkdHS4tKoyChPd8/4uPiHlQ+nJ6dJmgEmGUq5UqfVW81WJv72nvtjl39EAHrTvqlSqgU8gdXyE37R2+DORN4dWL/97y43wyc6fA7iP5Fhd2a3m7ZNItduJvwWmVAg5G/wiTMIEXCRQLSxtsHf4K8sryy+Wpyfm5+dmZ2emp6amJqcmJwYnxgfmxgfG5+eml58tbj0Zom3wUPUEwvFrLzM+tr6nbw7YaFhgwODAGpSGQndAGWFLTdleZMyitZpdQYMl38ah51F8F9dwBSuY3QxGyFYD0Mg1uiy9VY4MrHUIJVS1d3VfWD/gbrauvW19YH+gZybOQH+AcGBwXcL7k6MT0glUlLoJJeKIdssFDCEUczcQsAKxXZIIhpnCc5RrO0cABI9kfvPF4ggKMTmcmVE3w20fWjQhIButwvzC48fPY6NifVw9zwbGfWo8tHkxCRvnQcr0DBnYtz5nbmzPqe9bG5t2resZiA1DfQNrK+tvyfh/CEo/zmd0+dzLBzEfz7X4u0j2YSbXqPSYKMlIhgApUl8Hn91ZW1hbmHoxXDL85aHlY+K7hdlZWalXEpJTEhMTEg8l3COfcVGx0ZHRcfHxV9IunD50uXcnNz7hfcfP3rcUN84OjI6OTG5+Gpx9OVoQnxC2tW09bV1hVxJkV5OLL2dBS+JSAJ1/zqDQW/AyMmvQvAfugKTm4UwkV6nV8iVmGNAZGdPBytOZ6dnj7gcyUjPqCiviIyIDA0OvXP7zujIqEgoItYmVCKGiU+qZ0nUi01LOO+NXWajQ+wn7ywI+ULQUCPqbI4iAygawJphopOsoKTUwvxCTXVNQnzCGb8zKZdTmp81L71ZwmJdpUKp1+lt1veUa7196+y2/wh8W81WiVgSER7xsPKhjJK9yx/9BYjHr9jAzm47+099vBzEf2oL/8b9g0ezSaordQq5kniOQOuWSqTLS8svh1821DcU5BdcTb0aGXE2JCgkOCg4IiwiNib2fGLSldQrmRmZOTdz8nJv37l9J/9O/q2btzKuZ6RdTbt08fL5xKS4mLjos9HhYeHhYeEx0THnE89fv3Y97eq1AP+AB+UPKEImAdfVQVBhHHmo+AfH1qg3WkwWhv6409nUjx0PCL8eg0VETAb0MqUSqZMvjxVSwLRZXlr2cPfw9PAMCw27lnatq6NrY30D0ZaNtjtVeJHZDPrsxKl/B7sd/6L2zrYCj+NzJgnMGpNJD4hIfRZJyeJP0zKg06DK26uFVxXlFVFno0OCQ3Nv5Q4PDQv4AhRT06q1ZpPlixK9Ife8QW8QiyR7vtlzYP+Bx48ei4QiGMwQvvEZ+jmU58D9FzGGg/hfNM8f/qXRYIQoAeF9AwGDKApMTU43NTTl5uQmnjsfER4RER6RfCE5+0Z2RVlFS3NLX2//xNjE/Nz82uoan8fHCn6m+QYBa94Gb3VldenN0tTk1PDQcEdbR1NjU/6d/Iz0jKTzSWGhYUnnkwb6BxRySLSi8+vskwoFQoVcodNCQ1SziaEwfiwif4oRgqmigtwsyRMYVUqVSCDibzCaBxiUx3nJxeSL8XHx1VXVK8uraiX0LBQS5QMIo4sgL4piagxFhwRnHJDNCOw4/oWRg41o4c5/+pVjb0whLmyCispCkFsAaU9H6a+MgkoovBbjYxMF+QVnI88mnkusqap5vfgGq3blMrnRYIR845fxRyDeZDSJhOKv//r1//iX/+Fy2KXyQaVIKDKbzG9pgpI1t4m/GI7nIP4XbwMO4n/RPH/Yl5tbFrPFZDDRMlrAEyAz/c3rN91d3UX3i7A56rmEc7k5uTVVNf19AwtzC7wNnlQM3e+YdkigiLLdP4/tuwTRXhlABhYN4QJgn1C0urI6OzPb29Pb39ePpEDk2AD6OCLIxHmkWGYkuMmfAp13ep+I8gadAdoBoqYxQVUxqYylJFRfb9+LwSFHZIZmQyjEeRexp4+QzXr0ZE7AOPXOsM5K2zMltQ7pHlznLXx3COw4q+ejtj5LdkLtBBlFqxQqsUjc3taRdD4pJDj0dt7tlyMvQfyHdNDVaXQQs/4CAA4h3mASCUV//ctf//v/99//1//8XyeOn3hQ8UAiljCtdx3RGBbf4XMO4j8AoDiI/wAjfdJVyP0NzrtcKRFJsB3dyvJKR3tHZkZmaEhoaEhoasqVx48evxwZXSeaJ1hEiv2YkKqBPA2EBiSAM1KILMmP9EtiXHsi4YK0P2zlAZWiTA0RQ5Ekgl/EPxUIVUoVcFeMJiSu7BKIh0pao8Eop+XgUxNgJV48VMMimJJRUAagTAzCznsIgwhddcKyd0jbg049q3FGtHfI8ClnxHZIlSx0N8R2VKC4AI1KJDA/YIZMZw01h6dPkrcOyUxw0olHT/R8oMm4Rq2hpLKpySkoTAsKPp94vhPCSjyRUERTNJTC2nc/xjseAYlY8vVfv/6X//9f/s///j//+n//9djRY3W19bSMBrU4lh/5DpFm95/9J0WXra0tDuI/tYV/fv+kjsNqsWo1WpVSxWo6Dg4MZqRnBAUGhYeF37xxs7GhcW5mTiaVqVVqbJMN4E4kuiTYYomUL6H/CIhPynywdonl+YGbiZJhpBaUEYlEyXXorQGJXCDCo+AXuvAEFiViKYRoWO2BXeLF4wG/A/EkPMLopjGn7GhNxSghY02sELx4Pg+8daRF4pBAy2ilAiqeNGrttuSODuR09DoDJqINeijBZeYQegOKLjgS5iA7LILQ2U9DPTiyAkuV0VATM22taCJmKaflK8urdbV1ZyPPRoRHPH3ydG11DULzMrlGrTEZTbvblyceukFvkIgl//hmz7/967/9+7/9e1BgUNH9oq6OLj6Pb9Q7RjK29IkFeg7ifx5g8BsO4n/NQp/o+82tTdumxWzBeDFKlMzNzBUXFQcHhYSFht+5fefF4AvSyIJGWVqUCiCUatLqmnQ+Yh1zBsEdnA224TWD2g5+yDsKwEzbPIfqOiIdi0GgFE/L9Vo9plgRuXaFF89CvEKuAK8cvXiSLMWoy/aYR4IqxIygd+8wIyOVLKMYV1qr0RENNSMpBTCZoZQXqnlRX4FVVWNKtBgpHlDjgWoGlF7QAm1fRkG2g5HWcTS0Yjx6MqgAb4dwbxysGyZMT1M0nyfo6+m7kHQhwD+grKRsdXmVltEioZhIKeh3McoT4DboDSKByN3NPTMjKzoqOtA/8MXAi+mpaZFApNeR/i3vTbdyEP9rAMVB/K9ZaMe/J3cqESW3qBQqrJkUCkTdXT3nz5339vS+eiWtr6ePv8FXKpRAmiQythgsxugK65sTQUQsUGLfHTLuxFtHIMOAslP8gYnAkM/Jhog1TJiY8TEhoCGSqFUaJ23IT1K5+qnGDMi+mtRKtUMPme0mSJxl0kIEeZAYfsGeHpiSxSSHglZAr1cywmGeGT10Zqgj+zc6sggI/fiOAwyWhhEpTRLjImQk4tdrYUImB4ok5AaIU8/GcGD2sJ2JhVJkR8EUFM3SMnpyYiozI9PXxzfvVt7y0jIWpmFmcsdv1T9ohxiLN5rEIsnNGzefNz0vLy13O+3W2ty6vrau0+hsFtt25J3137lA/IddHg7iP8xOO7qW3WY36AxqpRpboU5PzZSXlZ/xO+Pn4/f0SdXSmyV094R8EJ7FAA566+ibgx9KHFIWu/E5d/6XDRyj04pfOeK/zhAPIQLWi2RC8ATrQUqXogHgHMownwqLHSi5w/snEKzV6GRSKBljzx1NgQ47azE8cQzTYxMPjRqaNBF9Y9DGwci+4ddU1YgX/5OBkB0MsAwYtDbBtddpQBqBksrE0A0R+xdCRS5JqMJ1YXpIkeg8Zk2QWLm2snav8J7babfbebfRlxfyIWWyWzk2xOmxmC1KhXKgf2D05djUxNS5+HN5ubdlFG21kLLerS2GQIm+PPu+ow/mF7kzDuL/6Mtqt9l1Wh082KRb9Mz0TPq19FMnTyWdTxofGwe9FApC7UTEEYRKCIdP7AgWM2QPBqdIdw4W31kUgwUMTThB21vfvg0oAtJfiawAMQ1EGalYqlKqiN/KCEbuMAR/ImRnd0uA1aA3KBVKEcFQtABrLmfcB+0dgQiFxqADH6nwYgDdMcKxQx2GrX6PNcghkcIxzAZDQlin1Snk0HILSpd/0tMKZxjbQRuS5lUr1SKhqKaqxvW06/W0668XX6MamlajfW8fqz/6Fv9dv2e1WNUqtVAACqAigaj5eXNjQ+P62vruPaPfZYad34iD+J236S/s0Wa163V6SkphOfv42HhcbJybq3tZafnG+oaMAtxHoUFHJQ4ohaFDR1Rzt6Mo+CHrnrMOKdu0mu1bDUwbR6tVdjUG8R2ADuACuA8vJHrTFK3T6BDOGJEAFj0/eOFPJ1kihsppkG98q6SLDH5oDdBik1BIX3EE3Lc1kLeRncV61L5HIzhQm0V8sBXE6H/iy/+80fQkTI9ceHYkdlwpbE4LbH28oNh8ChsKlpdVHD924lLypZXlVY1aIxFLoMMJ20MKXd1fuB0/p6/sVrsBEtTQ3lar0fJ5/LXVNYVcCWWuu+pEPiejwrFwEP8HXk24N+QAACAASURBVJHNLcR3SLgJRO2t7eFh4b7evihsS0llCtJSAwgYIJpIYYiGSc05qHusK8pCvIAvgLZNUgjUQoMLhcqhYK7Ta/XYaEmv1WvU0FAU5VCAL0h0E51iwYzzLiTOLGqNGfQGBCxUCWZR7DctGA3GTwH0ZiPEOkyGD6jGImti2kMqlrL25PP4YhHkKrHbKiRUSWTmHUzfVr3/WYgntQLwK2S6Q6TZGKD/eVj/qQ3hjPRGWiZHGTVHeZTQOUPuoEuBQhH0YFEoK8or9u3dl5GegfcD5oehCTj+7Z5sJBHH3rTbNjdt8G4hfWMY4j8H8R+BUhzEf4Txfsumm/ZNo95I/HToS9fU2BQaEhoRFtHb00t0IoGQ55CZBdKFgyqDeVSGrs7O5ZFd5+ifp2Ij5k6kPXAkITRM4sjbywaTQQe+EvL5SM881bbiOUENyDHq9AadActZLWYLkR4zANCzpEkSVia5xO1iKPjWyHQFQU+WzVU6b/iWh4te8E984XcRkHWKHevrdXooyDIY2Y5RmNgk0M8UuOIxmI1mi9mKHbfVRPNHDjVi0FlbASKOum1Mx3aDpO8g6NHrDFqNFjV58LzYNZ3sDCqbbxmZiOSYDJBiZTQ4UQuThODRRHB2DtYNuw5KZuq1eoLy2DIXZlQs1jvqlokitBTSsDKK1mq0Odk5P3z/Y2VFJRZGiIRitVK9jfK/5S79k9floPwTXAAO4j+BUd/ZJeFHmgwmTKzxeYLm581nI88mX0geHhqRy0D0CgteUPGcnaE7Z0odH0IKTiqRymmoVgW6iw6QF/rkOTpyIIhYzBYge5CgAQK9GRgdgEeInmYTFNMyERiUBSbQRuTXoSEfskfQmdqyg3IOduFAPgn8KEscZH1VHFSI2242mm1Wm8VsRR4hboW4Rjq1kjiGU/qRCW44Q7nTbrdDH+SMzEYzTOqJ301+hXQjIT1gt+1AGI2M1DCYCBq0InDrtHpw2FFSjYwZbB6VUGKwr6wJE31Ggwn36fgK0JmVsEc7oK1IEpURWN7aIuXKRhgnQAbdYrWaiaS+g2dJTME0UUGUx93imaqU0FDXwV7dHuBR/Hk7YkP6bYmEooI7BUePHC0vKwe+P6FRmk3m7fzkOzck9+8/kwU4iP/kVxvA0QhqwBKRZH1tvaG+4WzE2cuXUl4Ov6QpmpaBIvk76lcsoG8vkDKc2enZsdExWkYzcMCGfZ2R0eG8q1Xq5aWVpTdL0PqZBDRQRMy5SAegjemqakbPlBTyAPxhdY/ZZNGotbMzs2ura0ST3YC8QBY6t/GOVP0wYQ2yT5FQNDs9S8vkpLxLh8MJO6jAhkRlnoxJpH0ris6jh8t2F3Hydhnn12jWaXVvXr+BohjixePZOR8SGVFgSoEnq5ArXi28kkqkVhhy4EOyKxLqIeYCjCZxGL1ODyMHaSO+9Gbp9avXapXGSiYBejL1IZBtxZVNjvkBePpGE5On1Rn4PMGb12+w35NeB1UFzLhIThCHChbWWdole02tFphzQDWco1E4exsgbR9LmrEZIRKfeBu8tCtpp0+ebqhrwIylRq0BRx4DNbsnXPPJn8Z/vh/gIP4TX3PSpEmv08somZAvfNb0HGS/EpOGh4blNEjKAPGZyAw4yo4ILZopgGTcN5FQJKNo3jrvRtaNsNCw6alpdNI3bZsoS4kuOXT40xk21jcW5hdUCtX62nra1bSM9EzeBg9WICFp1pvGPk2AaMSfNRqMiGu4gkIO3ZHWV9ctZuvC/IKbq1v2jWyT0WSz2smaDklhHCEwPkO8XRlFT4xPUBJqa3Oru6v75ImT1U+rrRYb4jhOIFiMIygPQRUcaeCnHZ47wiJCJ+CpQ1nMZADnemN9Iyw0/FLyJUpCwSHpjeQESVzeaEK81mq0K8srG2sbZqN5aHAoNCS0prpGr9PbbXAK5AX+uNVis1ltJugoAifFzIFMFlpG59zMSYhPmJmawWbiEPAxwWwJmxPZrDZsrIh9Wvg8/vLSMnQnV6rycvOCAoOnJqdwtoGb4+iCAxuZH0BfRnIdmWAak10wmrSketagM2jUGozskfkcE7JjwjWMKLEUpA4koEg8PzcfdTbK388fFeWkEqlGrQEaJVaEcij/iR/0z3b3HMR/yktDQjQGPSiliISi/r6B+LiEs5FnMf6ulCtRJRhbvrFJNgy/sh2FSJ06qJFMT04H+gf++P2Pjx4+JrqPZrVKLRZJ9CQUQBg49Pra+u3c2ymXUmZn5t4svomOio6NiZ2fWwBJExlt0BusFvBAeRu8laUVJGDotHqlQqlVa5UKJX+DL5PKjHrj6MvRuNi4irIKSkqtrqxevXK1rrZOrzOoVWpQfeEJJGIJDg8KWoFDlFql1ml0TY1NYaFhnR2dJqNpcWHx2tVr46PjW1tbBr1BKpGur21IJaCIYNAbZdD8iKLJ0CUUiBDuGUIhCWcL+cLOjs7lpRWSSDDhMICNYZsamvbvO3DwwMGJ8QncOSWFTuIYN8dOSWOjY9BQ+14RWv7E8RPFRcX8DT5vnSeTymCEc5QW83l8oA9pddhORKlQYnfD+rr6O7fzeRs8uFIUjYJu2INJBxFzmqS45Vq1dmVpJfdWXkZ65vzsvFqlrqupu5F1Y31tncC6kZJQQoEI51Kkk5QMJeGEfKGCVmD0DNOzZqPZbrX39fbVVNco5UqjwahVa2kZNCfBOmR054nqGUpUkp60xEtQyIFU7ud7JvVy6urKqlgkoSmY7TFFQxzEf8oH/XPeNwfxn+zqEP/daDAqaIVIKJqanL529VpwUHBtTa1YJFbKlUCSY8rZmRJTNrcm4AtJPzloGYGNOIwGY011raeH54H9BxLiEgR8gc1qG+gbyMrMWl9b12q0Tx4/Kbpf/PRJlZen19EjR7MybzQ/b46LjfP28k6/nn4p+dKtnNyN9Y2tza3Ojs6b2TcvJF3Iyrwx9nKMz+M/evio8O69u/l3r6ZerayonJqE+slv93wX4B9QXFSyuLB4/dr15uctZpN5YnwiL/d2asqVvFt5LwaHerp78nLzMtIzbmbndHd1j42OxUTHfPft97ExcY0Nja/mX6VcTpmenLZZbYMDg9k3si9euJh7K/flCESomp83l5eVlxSXpKakZlzPmJmeQYBGF1uv04+9HAsJCqmprkFYhwC6DoYoSkolJyUfP3b8u2+/L7pXhBy7muqa+4X3aRm99HqpIP9u1dOq3Fu5hw8d9vb0Listq6muPX3qdEJcwo3MG5cvXq6sqDQZTUqF8tHDR9fSrl27eq2stGx9bV0qkdbV1pUWl+beyq2vq3/y+ElxUfH62sbDyocZ6Zk52TnZWdmlJaVLb5ZbW1ozMzLTr6fn5d7u7Oh88viJ62nXY0ePpV1Nm5qcev7seWZGplAg0ml1zc+bM9Izr165WnS/6NX8q+Wl5UcPH5WXld+/dz/t6jWUzGUSs6St+dbm1o2sG+5u7rwNHpRf6fQalQZdAaTPYlEbBuVB0EYsQT0izNVXPa3y8fYpLSnlbfCgHbkKekUBynMQ/8ke9M98xxzEf6oLZLPadFqdnAaNlNeLr+8WFAYFBhfdL1peWsbOD3IaCl5Q3tZRhoORGUB8iVgCrA+5QqvWWsxWkVCUdiUtOio66mzU6VOugwODW1tbZaXlX//164mxCaVcGR4W7uXphUWPB/YfSEpMqqutT4hP2PvD3pDgENfTbnu+2dPa3Lr8ZtnN1d3/jH/KpZRjR46lXE4ZfTkaGBC4b+/+8LBwTw9Pdzf3ygeVyUnJe77Z4+nueSMre3Rk9Pvvvr9+7bpYJLl86fLhQy6REZFXr1ztaO9srG9MvpB86eIlD3ePhPiExvrG0JDQPf/YExoS+qDiQVtr+1d/+arqadXC/EJoSJi3l3d0VMypk6dSLqfMTM9mpGe4HD4SdTaKbPJt4d1C1DszG800RTc2NN7Ou3382PGLyRebnzevLq/aLDaLyWK32cdGx7y9fFIup/h6+wYHBUsllEFvSIhP8HT3FAnFY6Njnu6el5IvpV1NO7D/oJurW/6d/CePnriecj154mRcbPyhg4eOuBzZWOd1d3a7HHI543cmJhqOqqy0fGZqJi427ojLkcCAwJKikvi4BG8v7+Gh4dxbufGx8T7ePn/7699CQ8LmZ+fLyyoS4hPOJ5738vS6kJScl5t38sTJY0ePx8XGDQ8N4wD5auHV8NDwEZcjQYFBCfEJJ0+cvJl9c3RkNCgw+NiRYzHRMW6ubq6nXQf6BkiKFTIHc7Nz9XWQqjmw/0BxUXHz82ZKSmFPWjmtYKX82dA8IUoywnMI8Wura1dSr/r7+be2tEnFUjnolGmZ3hqf6k7n9vtZW4CD+E91edBPlIqh+/OTx0+Cg4Kzb9x8/YoUIsoVSH4HciSpbCIQD/iOgpFSsZQk61DUUG82mYeHhv3P+F++dDknO8flkMvd/Lub9s2ykrKv/vOroRdDWo02PDT8jN+ZkaGRC+cvBAUEvRx5uby0fP7ceR8vn57unprq2oMHDlY+qHz6pOo//+M/zyWcq6mu8fXx9fXx7e8bCA0JDQoMGn4xTEppjj99UlVfV+9y2CX7Rvb62vrC/MJ33353Pe36q4VXJ0+cSjyX+GbxjVAAYraLrxbbWttqa2oJgvtMjE3cuX3nwP4DzxqfqVXqlubWr/7y1dMnVU2NTXt/3FtSVPJ68XXK5VQfb5+O9o6szBunT55+1vS8t7v36JGjV1Kv6rV6DFVvrG2Eh4V7e3n/+MOPBEMv9Pf1Y9DcYrZUlFccPXL0QfmDi8mX9u/b39fbb7PaoqOi3VzdKAk1Pjbh7eWdl5vX/LzZ18c3KzOLv8Hv6e45dfLUhaQLy0vL169d/8c3/5iamEq/nnH40OHenr652fngoGAIoHX3xsbEBgUG9Xb3rq6sJp1P8vTwnJudE4vEszOzQQFB+/fuLystU8gVC/MLTQ1NDyoqA/wDos5Gtba04ug7NjqmUqpuZGX/+P2PszOzt3JuffP3bzraO1dXVuNj4wP8A5qfNxMN0YjBgcGCOwUnjp9oamxCaqnJaGpsaCTjsesP3/1wxu9M2tU0AV8ArCQ9idhQ0HmcwXcnBQvUOZBJZRj7ggsaHHoh6cLc7BzQ5GmFyWACMV7u75/SAhzEf6rLrtXo5DREUbs6uyMjIpMvJI++HJPLoFyFlslllIy48E6ig6S4CWpTxdBFT61SazUgWmvQGZQKVVlp+eFDLl4eXqEhYft+3BcaEkpTdEX5g6/+8tWLwRdqlSYsNCwwIHBqcirlUkp4aPj62rpYJE48lxgfF8/nCcZGx10Ou1SUVZSWlH391ddxsXGZGZmJ5xJvZGWPjY5FhEUknU+iZXRrS9upk6dqqmu6u7pPnTxVUlRis9rW1zYQ4ifHJ10Ou+TczAFC3tYWLaMrH1Seiz+XmpLq7ent6e45OzNb+aDS5bBLX2/f1tZWe1v7X7/6a9WTqiePnxzYf7CludWgNxTkF7iedm2sb8zMyPQ/4w9J3bV1Hy+f1JQrBh3I8JpNZqVC+WJwqLKi0svDK/dW7uTEpFgoNpssNotNIpJcSEre9+O+6KjoAP/APf/Yk3MzR68znI086+7mLhQIwYv38MzLzevu6vb19s3LvW00GIdeDLmecr1/7/6mfavyQeXf/+vvY6NjyUnJp06c4vP4apU68VxiYEBgW0tbQnzCxeSLQr5Qo9ZcTL7k6e65+GpRJpWVFJXs/XEvhF8ItenO7TtxMXHJF5Ix/jM4MHj+3Pn4uHiRUGS32m9m39y/78D46HjyheQff/hx8dWixWy9nnbdy8OrrrYuPCw87UqaSCiqrqp2Pe3WUN+AnEujwbS6sjo0OHT+3HmXwy6NDY1Tk1NaDTTbMhGSqFoF2VfM3LBkeax4gqJoR/mbVCJ98vjJGb8z5WXlAr4AqtjUGquFNMn7VDc7t9/P1wIcxH+Sa2MxW7A53+rKavr19KDAoI72DuCzk9gL4LsjgYayBI40Goi2K+QKoPoRIXIdecJXllcS4s95enheT7uefyc/NCT0wP4D/X39jx89/tf/+69PHz/t6eo5fco1MCBwenL6Wto1L0+vttY2DDvExsTyefyx0bHDhw6XFJc01Df87eu/XUm90tPd29LcMjjwYvHV68iIyPOJSRKxpLWl1cPds7a6trOj88TxE2lX0ubn5ldXViFQQ7z4E8dPno08O/RiaH5ufnBgkPjaPtitwsvDa2FuoaK84uCBQ2WlZZSE6u3u/fd/+/e6mrquzi6Xw0du5dwaHxtPTkr28fLpaOtIu5p2xu/Mq/lXq8ur7m7uKZdSEOKRRW40GOdm5lJTUjs7OpG4YjaZ7TZ7f1+/t5d3RHhE7q3cnJs5J46fcHN1FwpEcbFxB/YfaG1pLS4qOXzIBSC+s9vT3RMoMdMzPd09rqdci4tK7LbN8tLyv/zHXybGJrIys374/oemxqaB/oEzfmeio6L7evriYuIuJF3YWNtQKVWpl1O9vbznZufKSssOHTzk4e7Z/Lz59eKbibGJw4cOBwUG37l9x8vTKyY6tr+v/1zCuQD/gJ7uHlpG38zO2b93//jYRP7t/L9+9fXjR49npmdCgkP8zwS0t7WHhYRdvnRZKBDVVNe4nnKtq61DEifwgoxmq9laUlwSGR4p4AvMhMDDhnEg+0r8BqKd6USWJ41KiHMALWXUSvXrxddpV9PORkYN9g9SUmj7ZdAbNjlH/pM865/7TjmI3/krZLfZFXIFkQ8UNtQ3+vv5F94txA6oEIWnMcsq3Z50E01BUEohlSyYdcTiGqLaoevq6PLy9Eq7moYilA31DUddjt7Ou93b0/f9dz8g5AX4B0SER8xMz9wrvHdg/4HgoOD7hffDQsNiomOEAuH01MxRl6PFRSVrq2v+Z/w93D0vXbyUEH/u8cPH87PzkRGRF5MvSsTS9rZ2H2+f+tr60ZejPt4+Lodcks4nvRh8cWD/gfRr6TJKlnY17YfvfoDIe1xCWUlZfFz84UMuEWER3p7ePt4+M9Ozz5qeHTxw6NTJUwX5d58/e/73v/29ob6Bz+MnJiSeOnkqNCTU9bRrZkbmq4VX0PYkIGh+bn75zbKnh2fKZYB45LYD7cdgklGy8bHxjfUNLOAyG81ajfbe3Xse7h51tfUo5pN2Ne0//+MvnR2d9wrvfbfnuzN+/uxPkBEoAtMSJcUl7m7upSVlFrPlQUXlf/3tv8bHxl8Mvjhx/KSXp1fAmQBPD8+qJ1XTU9Mx0TFJ55MQ4q+kXvHz9RsZHomKjPr2H9+ePnk6JDgk5XJKf1+/n4/fEZcjkRGRnh5eMdEx/X3919KuuRx2CQsN6+3uvZZ2/ccffpyenF6YX/Bw9zh96vTZiLOup10L794bH5sICw1LTbkiFokB4k+7NtQ34kBOSDWWLfvWm9dLwy+GGQYnqRLAYjGsigImJdHOfDsiL0KIx8iMVCLtbO8MCwnLu5W3urIK8mpKtdVi5ZKuO/+0f/Z75CB+py+RHYRowBmnFQgZcbHx83PzKtCHAfEZRh/m7UZ6ZJYt0xBxdkYngFRdYtn9zPRMbU3t6MtRUphuFfAFVU+r29vaxUKAiVs5t548ejI4MNhQ3yAWiqcmpwvvFt4tKOxo66ivrW9+1qyQKwQ8QUV5xcuRlxazZejFUHFRcdG9oqonVTNTMxKxpL6uobWlVa1Sv3n9prqqem52TiQU1dXWYaLyzeul8rKK7q4eg94wPTVdUlRyK+fWo4eP5mbnRoZGSopLaqprmp8311TXIOiUlZbdvHGzob5hdma2tLh0dmbWbDKPvhx9UPGgsKDwYeXD+bl5jVrT19vXWN8ok8poin708FF7Wztbu8RI4gDDHVpwYKTCZDQp5IqW5pYnj5/y1nlmk9lqsU2OT+bfzn85/HJlaaWkqOT+vfvNz5tbmlu6OrqEAlFnR9ft3NtlpWUDfQNPHj2ZHJ+0mq2zM7P3793HXkLdnd33Cu8V5Bc0P2uGsmGx9Fnjs7bWNshya3Ttbe11tXX8DX5TQ1N5WfmDigflZeV1NXUCnqC/t7+0pKzqaVVTQ9PzZ895G7yhF8OFdwuL7hfNzc4P9g9WlFeIhCKL2dLd2V14t7Agv6Cupm5tdV0ikjTUN3S2d6pV6vnZ+SePn8zNzEESgtSmwUmZgc0J/jvRPyAlWhCoIUYAU2DgDsR2mDYv4M4TGiXkXZE7K6flG2sbebfywkPDO9o6UP5er9V/CV0Ad/p5/eL3x0H8Dl9iq8Uqg7SYWCFXFBcVu7u6NzY0qlVqlVJFUzRUsYLoI6gesilWKEeUAr5jgQ8ruoKQx5YsYeElRjO0Gq1GrTHqQXOcksr0Or3NakPmtUFvQG0DrFN1BHNN2I4OC1yhR51ciaRpq8WmVqlR1cRoMLJNMLDdoF6nt1qsGpUGVSdxBYVcodPqbFY79NxQqZHmqFKozCazzWJTKpQySoZHqFQogelotpK4E0jka9QaDEdoNcBDx8JRjVqjUWmQq47lRViCxBbl4r8GvQHbi2NMA71azFjYrDZQ2pHJCVtfp1apzaQIlsh1KYB6qIbeJljwpVbCt5v2TYvZqlKq5LRcq9GiuALuDWiaBmBVqlUg9qLVADldo9bYrDaUIsC6JDxxOCMTyNSoFCApAYVUBhMJf1s37Zs4D1MpwUoEtc0alQa4jKQSTaPWgEgO6qmRKA1z4swAD4fBgLtTUZhWA/rDEriLmHANC/FY8iqXyeUyeW93b3hYRPaN7OWlFZCGVqg4R36Hn/bdsDsO4nf0KhEtSQnphT05MRXgH3Ax+SJvg6dWqaH7NhGYJI8l6enh6OEpgroYNUhZkefZGeIRxRA6zSbQGMA22SRBB2WcWjVgE77YElCsw8SKIVLACfIsdpud2Rup5MRl3ATRDZRYUC7RYLSYQFYFfxcWoFIfRLWwEJTVgcEQCnxlMFlBBMYG1EaU3zJti5dBzAHcUtghBqBQ5wAQnPinuAlWgTKlpETyjC0odcxsoL7UarHhAbPYhwiLRbAOaQEiwUakH1EqAKRmiIMMWxmgTBc/N+ihrBdkBkgoHIdV4keTpn0O2xIgNuG9gqXFjJFBVxKrakGDAQ6edHcyGowwGBBpGhyk8ddBKQiUHoj6pkNqglUTcjQCZGTU8FDhrnj7hUF5Sgq66lgxRzwGWEaaPFZpra6s5t3KiwiP6Ovpg44iFLgCnCO/ow/8LtgZB/E7eZGADSJXIvEx+0a2p4dnT3cv6eIGji1Dfucx/Tqw0Y+QL5RKKCYcgU+yQ8QR4Y916wBBiNaYxWxBDgbAE9uVCUUlCaixDA1Y0ANeM8XxDqTAOO+2QI1jaCGjAhT344/iAuIyMzwQuURGV8sCuloIahg2QVDDlkasZhkOGxh5ILt1xBwIOG6HIIg0ozPKv7OMEgUwwpHRAl1+IptD+lKhCgLq/To0YXAMQFUcwtUh0Q+iUQPjhEMMEp1xRHwczHDIwYGEtZ6RDGN4FdjRBccVXB+dcQLoMOji8YP2GYk4sfWrjtW2tcyYAleUoiSjIBjKcbHeu2A0GJUK4jQ4dTuBijmmGAokDWSUrLOjKzQ4tPBuoYAvoKSUSqnaFq7ZyRuf29fnawEO4nfs2tht2O5DRkllLwZenDxxMvtGNtLbmZYUTJdOUGZnG0ZDf1SlGgGUeZgdEL+NUIjsBE8ZH9+h0oUA5BgGCC6gfCNZgewWxLZQ7ZZBGRJVcMYvXEa9XPxR3ISdTzBerWMkQIo6uqiMr0o8VlbNEWckRDqG6Is5BgbcIYF1pnW1Y+QAzcV3MH1boNEMMo1mE8jIMO62CWQsWZRn0RPR3Ck5iUJjjMaZMy7jKbOhIfZM31lgDwk/x5kNWgM/wUGXLDOykfiJ84ZoKHZNHBfhYMCeZMBDw6KIJoF45ttfRHm9Vo/3FRZFM7oXAhGjQyml5LR86c1S2lWomMOKYqaRN0et2bGHfhfsiIP4HbtIJqMZNQnEIvGli5eOHT02NjquUWuYD4VsI2am+YaAJ4CQPa1Asa23nDVWOZI8/Aw2IRywAwDr8rM9hhjUcAAHE2QANLRZ7QhnuCu7zb5pgzAxuJ8GCPggYLHIgsx3m9WGn+M7A4hmCLngMgRnEH/JsSF42azQTBnD9OwmOAg57w1CLg59XQTNn8IiG/vGgcRmsdmtdrbTm91mxxXIHALGAKdRgdELszGxI/gWV8BSTxam8UcdBwZ5TmZNx4DqfFT4FQ4P7CYMpjs2ZDYHKzG7cqy5Pdptj+jvvdC/iOzO94lGpZGIoSOgE8oT6QuxlCIQT0mo0pLSkKAQ4OyKpTTRl7fbODWDHXvqP/8dcRC/M9fIbtvU6wyQ3JPJx16OnTh+Iv1aupxWMHKSUujFio3lSPM8aMEsForltBwFxVhsdX6A3112eHyMz/4LQOAQ4EVwUcqVlJRCdXUTUfgSCcW8DZ5Oq7OYLQB59i2LyaJRaaRiKQnXbinkSolIgoVIeGxmoxlbQbHtL1ikw/AOhjgwVCXgCzADjGKKAHbk4B2zDUweEOHGt6GQjEY2RyErhDiQZGK32e1WeNEy+drqGiWhNCSxyQ5d7FiCgwGBV0gGkC5ISrAkqR7Sa/UKWrG2uoZ5VGYrBzo74J4ZHpzB3fEV6M47TyBY3/y9OP4LH37QFf+FS0zSGHiCWCDtQHkmViOTQl2rVqMdGR4JCw2/k3cHkq6EPcnpGezMM79L9sJB/M5cKJBEV2uh15pcebfg7rGjx0aGX4JGjUxOkZbKThDP523wBDyBjJIhzWN7tv6Lj/S7iP8LKztBvE6rK75f7Ofr19TQZDJCwnBqciokKORuwV21So0YCrlBs3VocCjxXCLookio23m3o6OiJ8YnMIRtMkLFaXxc/PnE8zqNjmQOIX+LmVijwUhJKQFfoJADd+VG1g0/X7/xsQnIKwLVHfK0/ssfRQAAIABJREFUTF2PxWqzgusNKEmSnyx0YsoUEJNo9uK3ZH5DZiEW29rK2p3b+e5u7gcPHNy/b391VY2DowLDADryNhJhxyHHoDP09vRGR0U/ffKUpkCqE4/hzu07p06c6uzoJCF4k16nR9l6OBIH1qO/z/jaZNqEgwH5IZjEoN0wMeCM4yxwszEx52+dl9k1f8NlffuKY35FKVdKJVBj8S7EUzKFXKFUKAV8wbW0a7HRseNjExKxRE4rLGxz152597m9fNYW4CB+By4PNu1TKlS0jH618Mrfz/9C0gVKCh2fSVMnitGiwVj8BkC8UCBUKlQMi+btR/d3P/PbGzpB/NbmVmN94/59+1Mvp9Iyemtr617hvf/49/+sqa5FGV5sZGGz2trb2lGDTClX1tfVF+QX8DZ40EUTGvvpxSKx22m34MBgpFcb9EaFXEEGCbOAL7iVA7WmG+sbm7bN2pratCtpqyurFrOF6bms0WFYBqWMMTnJiBszNHAISWP7wPGx8e6ubjKQAPnEaDDaLDaaogvy7x49cjQoICgzIzMrM2voxTBGxlEEGFkxeh00d9aoNSDPqTd0dXZ5eXiVlpRinyxgUprM7W3tSYlJUxNTRoMRpwLIBNVpoWkJGVqsmMd2dCW0MOMcEcSfn5tvaW4hGXLCbnIaFbbDL9hOy0EKei/cfzzEw+UmRoOuMkTpiKC8UARS8hJKQqFOBi2TV1dVhwSHtrW0CYmyjV6r52qgduCx3yW74CD+oy8UEQ3G7g1SCVVdVX3U5WhjQ6NGrQHxP9K3D2jLWKjCF/I2ePwNPsqm78xz/tMRwgniN+2bqyurocGhp06empudUynVvj6+Rw4fGRocqq2pLci/e+d2flPjM6lE2tHe4enuWfmgUqPWdHV2P3n8BGM1qAN8JfXKgf0HY6NjNWrN8Ivh0pKy/Dv5UDw1PdPY0Oh22u3E8RM5N3OWl5a7OruKi4oVtMJutfd29xbcKSjIL2hsaOTz+FKxtOV5S0N9w5PHT27l3ILSJ0rGkCmNZo0aerFmZWb5ePnIKJrpUQU8URAx9vXxDQkOmRyfxOpfvVY/Mz1TXlZ+t6Aw71ZeZ3ungobKsu6u7tt5t7MyszraO9pa2329fVNTUouLinNzcrs6u0xG0/TUdM7NWxvrPD6PX15W3vK8paS4pCC/YGhwSKfVUVKqva2jIL/gVs4trGPCw8NhwG61P3r46MTxkwvzCxh0wmkHgvg7VxNWYC+N0xVBX/6dlbfXZDf5gAV05FVKNTryGJTH/iHQDYqEDTUqzcuR0YjwyJKiko21DQFfoFQoQcyAC8h/9KO/K3bAQfxHXyb7FoljqGRSGZ/Hv3zpckhQyOKr10RxTCWXyTEhhlUqAr6Qz+MLBUI5LX9PlvUDnuoPwgInQLFZbAa9IfdW7vfffV9TXTMyNPLtnm+vX7s+NjoWGBAYHBTi5+vn5+PX3dnd0d7h7eX9+OFjlVJ16+Ytby/vhfmFnu6eE8dP+Pn6hYeG79u7LyY6VigQ5t7KDQ4KCQkOdT3lei3tWmZG1uGDh/ft3RcUEDQ4MEgGgwNvFt/Mzc6dOH7y1IlT/mf8jx09VlJUMjgwGBwYfMTliJ+P38H9Bz3cPcfHxokcPFBflt4sDw8Nx8fFHzxwsKW5ZWJsAiuYzEZzW2vb8aPHszKyKCkF7ZZItKe6qiYwIDA+LuH4sRN+PhAa6u3udTvtdvjgYW8vn7sFhc3Pmz09PI8eORoYELj3h71BgUHLb5aLi4q//ce3Q4NDfb193337nYe7h6eH1+FDhy9dvLSyvFJfW+/p7unl6eV62vVvX//Xw8qHwDoliVP+Bn+gf+B62vVDBw8/efxkamKKlkH8B71pgGwSj0KiqoPVSjoIImHGwYncQYjHEB+pzGJEKFl5MuzxCzVuCuXrxddJiUlXUq+8XnwDtVFSClTJOF7NRz/6u2IHHMR/9GXa3DITLo1CrhgZHvH18c2/kw+1JxRUkMooZhINEO+odZKKpdBZWw/Cih8E2b8V+p0g3mq2btq3urt6XA67XLp4OS/39jd//0d3V7dSoWxvbe/u6gbpx1OuD8oftDS3eHp4VlZUqpSqjOsZHu4e01Mzly9d/uG7Hwb6B5aXlk8cOxEVGaVWaaYmpzraOupq6wL8A2JjYpsanwUFBgcHBff39qtV6vTr6Xt/2Pvm9Zu83Lw9/9jz/Nnz+dl51Cuuq6nz8fYNCw3r7uzOysg6efwkxMSJn242mYuLir29vF0Ou/zw/Q/ubu6XLl5aXlrB3qfPnz0/cfzE3YK72LcWQyIryytdHV39ff3JScnff/d9U0NT4d3Cw4cOVz6oXF1ZlUllfT19bq5u5xOTBgcGL128dPLEyanJ6dKS0q+/+vrF4Iue7p7v9nyXmpI6MvwyKTHJz9evvbX9QtIF/zMB/X399XX1x48dLy8rh6Q0icbU1tS6u7m7HHbZv3e/m6t70vmkmekZrOTCOD40LCS1aWxNAFxfR/GUcyDeOaTz8TeA0WBUKVUwTSQ3GDoTDMRTtJyW8zf4mRmZUWejx8fGsT0WZGU4iP/oR39X7ICD+B24TAa9gZbRClpRWlLq4e7R39cPFeSkNStx4SEVRh4/ILeJhCIFDWlJbGFKkn47DfROEI+cmaU3S5ERke5u7t6e3r4+vkKBcHxsIjUl9ULShaizUUdcjpaXljc/b/Zw83hY+UilUGWkZ/p4+7wceRkWGnbE5ahEJNGoNV6eXmGhYSKhuKK8IvFcYvKFZNfTrucSzg30DcTGxMZEx6ytrtltKKW7f25mLvlC8t4f9y69XtLrDCmXUvz9/DEofP3adQWtqK2pdXN1a20BhWFIb5osE2MTDfUNsdGxR1yOVFdVvxh8QctoIiJvRnHjq1euYrsrbAbb3gpR9eQLyWcjz3737XfNz5pvZN04dfLU5Pjk1taW3bbZ1dHl4e5RUlyiVqkL8guOHTn2cvhl0f2iv//t70Mvhgb7B/f+uLe6qlqv09/KgVlLfV392cizyReSKakMxTsfVFSyEP/61euW5hZoinLwcGlJ6eDAoEQMpCOT0WS32jftm6S+14r1vWaThQgkEN6kg/DujPI7EqhhhgciI4GVFs5evEQMkjVE8VRWXFQMEmk9vRKRRCKWEOFJLlKzA8/+578LDuI/9hpZzVZkJfI3+EmJSTHRsRvrGxLScIeSUoTqIGQfPwFfiC48+u9I89j5pOtbEA81qHJaXlxUfHD/wT3/2HOv8J5RDyHvH77/MTsrOyvzhsvhIxXlD5qfNZ8+dTovN299bSM7K9vP98zYy7FzCYn7ftz3cuTly+GXR1yOhIeFjwyPnD7lGhQQlJeb5+7mHhsT29vdezbibGhI6IvBF3JafiPrxv59BxZfvb6ReeO7Pd+1PG+Zm5mLCIsIDQltamwKDQm9fi2dkkLSws3VHSEeIyFIUym8WxgaEiYRSxnaO+Hdz87MhgaHerh7VFdVL71empudW5hbCA0JPXTwUNG9osSExG/3fPu86fntvDsuh1yePnm6urIqEoo72ju8PL3u37svp+X5d/KPuhwd7B8sLir+29d/Gxka6e/t3/vD3trqWpVCdTP7po+XT2N9Y3xsfFRk1NjoWGVF5cH9ByvKKliIt5qtW1tbz5qe+Z/xf/P6DZHDJGXABtPG2sbU5BRqzI2Ngjqm0WCcmZqZmpj6KetmJwM1ZHpnNkEag4A7cSaw8QBRGJYSgrxKqYZmI0Ehz5qeYRdfIjFk+9hbn9t+N1iAg/iPvUp6nV4KojTU2OiYv59/QX6BjKIlIgm8O8pS+DwBctrIAyZHSS+c4zOaKr81FPPL678N8RgWmJ6cdj3tevjg4dmZWavFmp2VveebPTFRMQnx504cO1FaUtrb0+vh7uHr49tY35h2BcTc52fnHz54eHD/waizUTHRMUePHI0IjxgeGvHy9HJ3cz9/7vzpk6fjY+OHXgxfTL54xOVofGz84MBg+vX0w4cOv158TRzh04H+gUmJSR5uHoUFhUMvhkJDQjPSM2RSWXVVtYe7R2tLK7QXJ5EQEyG0TE5Mtra0qpQqks8EHrrVYpXT8oeVDz3cPVxPu8XGxIaFhoFUckiYy2GX5KTk6KjoA/sPtLe193T1nDx+0t3NPSE+ofLBw2dNz/x8/YruFyvkyvw7BSdPnBwfHa8of/CPb/a8HHnZ19u/78d9dbV1SrnyZvbNM35nerp7CvIL3F3d4+Piw8PCv/n7N2WlZcC0geIy4PzYbZvLb5afNT2TiCWY6rSarRq1puppVWxM7ED/QF9vX1RkVNWTKrFInBCfkBCXIKflzs47u7yzXrxOq5NKoPZi24snEA+VriQq2NvTGxwY/PjhYwFfAAVQaq3dxkVqPvbZ3xXbcxD/cZdpc0ur1iJ7obam1tvTu6W5RU4TLryEcqKyMRAvEUvUKjVG4VkX/hN78VCxiUq8pcWl9+/dxxjR3Oxc9o3sm9k3Hz96XFxU3NvTu7K0cq/wHmnK2lFfV3//XpFIINpY3yi8W3gp+VJebt7TJ08rKyrXVtfqautvZN24f+9+RXlF1dOqleXVro6u9GvpGekZkxNTzxqf3bp5i8/jyyhZQ31Dakrq9WvXK8oqXi++5m3wy8sqWppbtGrt2OhY4d3CqYkplInHcQjeSbUtJi2JX4/Hb+at8541PcvKvJF6OTX1cmprS2tXZ1f+nfyb2TlNjU0F+QUT4xO0jH765GnKpZTUlNT6uvqx0fHiopK+3j6dRtfX03e3oHBjfePl8MvMjMz1tY3FhcWb2TkT4xMGvaG1pa2stOzN6zcz0zP3793PzMiMjYn9ds+3lSRQg3Cs1xmQca/T6hyt+KCeVqfR9XT15N/Jn5qYmpmeycu93d3VI6fl9wrv3Su8p6AVLKw7L+wkxBOLoc4dC/HQJFIoFguBV6NWacZGx8NCworuF7EFGVDjyoVqPu7p3xVbcxD/+y/Tpn3TZrGplWrstXYr51ZIUMj01DSq6UrBhRcJHClW9OKhylSrx/i78/vH59ze2gNJ8b1FxybStShNZTFb9DroB0uEduV6nUEpV6oUKoPeCMlhkQTVbrExtNViBbl50h8OUw5ajQ67UoACsFpDy2iNGtRxUeaQyGOpJCIJKSkCxUTMM6uVajhCo4mWyVGTR6vWUlKZSqlCpUaEeKMBdB8B/pgX+M5YN0vg1URTtIAvkEqkpGrMiIwRJDuixpZOq4OEh0BENN+1MtJlBaUZkYmv1WiFAiHIduoMUrFUp9FZLTbss6jVaBfmFiofVN4tuBsdFX340OG21jY9aTcIDE5C0t8ej1ELiKhHoPAyNuqSSiiNGkSSFaRDL1YIO4M7Lu8sxBv1RrVKIxZJEOIFfMjtiwQiqKCWydUqzcL8QngY1LgK+aBcrVKqOIj//U/+rtqSg/jff7nsNrvRYFTQCkpKvV58fS7+3JXUqwKeQAFEGpmEPG+OmkPw4oV8oVwGXMlPRaR5J3rjAEpGPRGCIZD9Q6xEOV8rlJuCnpezTgBIzZAXChGj8gwr3gKimESj0WYF3WCSbwRnFitCEZoBxYj+MKlyQoFMUCd2rMYoxiDYsTWluC0mMMnMAw4VBwZmuHJIOBAdR5A4NuiNNqsNBwZCvkT5RhNq9mJw38AU2aLMGRwD8iCxAsu5kNVoMPb3DSQmJAYGBAUHBWdlZq2trmGIxmaxMRC/LWMJ54iVsaDVbLUTBVDIvqKR0W747yeHeOj5B7NJB8QLAOUFkPhBIsDiq8Ww0LCb2TdRclKpUNqtds6L//0P/+7ZkoP433+t7LZNnUZHUzQto0eGRwL8Ax5UPMB/KSlEaZzxHUXHSAMNAlvvwPGn/Jd15zH6z/r7yPBzTnUis5vFMoB4M/TYwzURfJn4koMOiBL2GMHA0Qs0ion2PWIomazAHhDKce6CSUiEPzwAHBUYKEQKinPpELEPKq0b9NDYFmEU4zlGUBImSgkQsoBl9piJkK8BDwwk40nMCiYKZBlcbAfdBU9BwBeMjowODgy+HBnlb/CdmzExkr9GQHYWslExHw6GzFGQJUXsDDryqBHNruy8sLNevMlg0mp0CPHsXUd0qoEFL6NkrxYWQ0PCsjJvCHigKqxUKFEt7vff/dyWu8QCHMT//gu1advEola5TP6s6ZmHu0dHewctg9Z9TLXh21EaCAtodSzC/nELTiEFRnWdHVGIrDkWarIuM+uHMhBMWiAhpLJrsuC1vZWjwAcBDtdksQ9Wc8Re0PllU6zOwMcuMyuzx4kLuAdHCw5mOuLw9LePhJVvJF4/A7VkD4ynz2xCdNDIzAZ/lwjmMH08iA/+1mzDGdmdjtOB+DjDYI/QMeF471ZozJ29Ad4D8QIhFjrRFOhqhIaEZmdls148QDwnOfn7n/5dsyUH8b//UtltdgxGU1KqpLjEFwosxxmIF0vFIjGUkjtQHmKgFI3F9zv7bH/I3hBo3oObLPKyYOr4BDYh7ioLnSy+s5+8u0PHtuj8su9vrcau41hgQdB5aHn/SeEmZCxhjgHhnj14HGZY959dn13B8aOwf0fXDhavYYFsizMVjEe99e3bFaoEqUk0yXm35LcYWzGjETu8vb3AHtVOLCDEQysCPpPbh0ANqWWVUbLFV6/DwIvPEvAgk6FUKK0WK0A8l3H9/QCwO7bkIP73Xye7za5WqeW0QiQUpV9Pj4+Nf/3qNXTfllJSgHgJUQthtLyFfCFJ9+10ldMHogNx5FlYfC+AIqazX7HIi8DH/Mui56/+LvGUGS/+F1dmf8jh15Nuf7+4CXuQiNTv/st68b+8EydqqTOOs7kB5Gs6f/XTZYjUv/dX2GNgF9672g59aIT2hAapRMriO+acsTG3Qq5YfLUYGhyaczMHlYLktJyB+N9/+3Nb7g4L7BzEbxJho133/hGXyWbFVtT08tJKXGxc+vX09dV1mqJJlIa48E69GoQCEdGl+ZMgHj3fXwQUgl+kHzRZjUXet3Dt5xDt5/b8IQDncIGxBx72igKP/rf+1s8dw899/n6IZ9LCKJj81rn/xIVnvPif2/8f+DnqNkvETMNuAvTAqJGQdKtBZ5iemg4KCCopLiHEJykD8XbOh/+I53+XbLqjEG/fAuGLXfT6uDvcYoaqUZlUNj01HREecef2HT6PjxD/jgsPuVbowa36g7g0HwIuzhhKwI7Ju8JgwFAV3wNwnxJ20eVnHH/nw/uQ0/kd67wf4plU6q6DeL1W/zbEC4QCIVZZ63X6nu6eoMCguto6qUSKuG82mYFUw/196Rb4YIj/Vfd8FyE7e6gfCfEmCwnLyAYHBsPDwsvLykVCEaoHvw3xhKEsEmtUmp+d1/8OhPrITQiGIvOEIb1siyYizXGbN7KN9Z8O4om/b9AbMSMNbJx3Ausfeb6/vPnbcI88HDbKhEnabSM4ufN/+gUlMwkgLKlV6ncZNQDx0ANEIVc+rHwYGhza29NHSWVikZimaIsZVHS+dHzjzm/rwyD+Q+6EzV3lv3+8XvbmlslgoiSUTCpra20LCQqpra6lJJRDIN45UCPEsiCN+rOBeEQ0Ug+FQCan5SKhGOqAgCUJjTh2JlDzy8CK35JADWI6NhdUKpTIuMeqqPcHuz9kz79pHTgMaBpuMVkMegP06pJQWLiELEyWQOmM9Z8DxMP0y2imZXKn3k+kDkMAvgVNgc5wbk5uTHTM5MQkDboaEjkt/5MhHl3GLRLdZV2uXbTwq5DInuCfPcp8GMRz87mfXqfNLYMeElwyqez/sfce7G1b2dro+V/3O/d8c+6ZmWTGSSZ2XBL3XiWrupfEcbfkGndLtoqL3HvvvapR7A1gA0iABEEA7OU+ay8QpLpkS06cM3r40DAJEpsbe7977bXe9a4rl68sWbzk5o1bXABqt/byxQPEB1ionvq7I4IKl0WeGSJv4jebLGaT2elwhoIh5L+jN7wYzuB4FKz4/CWSYSFst9rNRrPFbOUCHCr5ICV/4EDxJ60BZPeQz7eCVKaIGPF6vBaz1WQ0eT1eURAxUQAJP/nWqluc3/2GYkXDWDSGXpqicCukPnmAxwV0mp/X/7xt63az0YyOxFAwz6jpPbA/2yuDOga+qBOymSw80tlsJkceWXBZD7oSjH5vDw3iR78dX94VsjlFjrIM62f9LWdaliwueXD/QVGZp2IrHhzxavmIUYDI4QEcxjbzlMGwEKYp2ulwBvmgGBY9bo/TQQHzR46qtL/uHowRgPh8A3CvgMFVSZR8Xp/VbPV6fLIkh/iQzWLzur1k30PirhrrfFiG+WAn42YFifyY+sQHeIfN4aLdoiCGhbCLclFOKhQUMMMLdjaY94QHefL78G7BYK0a1rfhkhMRIz5Qy1DpkphK7fP6GB/Lc/zTJ09LlpQ2nmh0026sJCyGRTX16Q+AQYCDf4RmjAgGFS9LI/KFn/wlQ4J4TNA3m8wmo8loMBr1RkOXwdBl0Bc9DHqDUQ9vfUkPg9FmtQX54LBV97K5bCaLFU1ZH9vU2FSyuOTZ0+f5Yq1+n7c3xAcJPbwfjt2ITvsBMAIRAeBMAYEXp8PptDvVOHAMalX7Wb/T4UR4VT02xa7nT2kngjt5JvmoQC6CCuZ8kKZcYLn7OdJFQB4XQgJN0TRFY3ksaHYxnubXiQF+6eBv5duDkgwRMcIyrMPucLvcWLg8GQcxH4/L43Q4WQake9Ro+VBoQp/SUcP5bCKeUCQlyAe74Ttx0TA+JuCHusHNTc2LFi66ffM20ORZUJCXIlI6lR4asBaD1siBcSYnS4rb5THoDR3tHboOndFgNBlNJqPJbDTjw2gAtCE4o9fr/mAPFfr0+i5oWJf66OrSwUOv09MUDXVX/gB/g0F8Nme1WGt31C5ZtKSqoqqyorKyvLK8rKJsaZn6KC0rK8Xj8vKlX9ijbGnZsupl9XX1TodzePcCIZ6kjDNepu5Y3ZJFS16/fC2EBL4PR43Hi1Y8KW80OPQMZ4YP9duK4AxrorIMa7PaGC8D4c0YybYnFYsSsUQ4BKa9i3IJISFvy6vW61Av19dPANUaoh9AtCRjqDSAzaCctBAUEEBV657okbEMSzkoP+MH3TSAeFVgpxvc93WtQjv7WwzyHYKiDmJYdFEup8MZ8AeiRHcMNQ/w3YA/4LA7aIoWQgKujmqPDXzpz/IuEYuP+JlujHivCvFswM9ZLdYtm7esWb3m3dt3yA7gOV6WlCGbNcUQj77z4c2VnmcT94UiKXfv3F2/dn3Z0vKK8grEloryioryCgAZ8oDj8soKeMDrf8BHeVn50tKlS0uWlpWWAfqVwW+pKK8oKy1bu2btjes3EvFEz5//2f8/CMRn0pnaHbUzZ8w6eOBgY0NjU2NTc1Nzc2NzU0NTU+MX/2g40bCzdmdpSemRQ0dCfGgYnV8E8T6v78ihI4sWLnr75i1AfJ4Xny/Wqga+wFHzu0A8mpx5f0s8Fg8LotfttVltXIBDES4tx4cgFzGuI6DX6HQ4EV7RFY7kDdXQHgC/+kFVdHFocgIRUfJ5fLDM+GCZQW84ek5QVgyfA/4A5aBgVxGOaCo3g7dBa16x7Z9/Ea+FvvWoEg3xIRflctEu2M0oapwZlHaiILZDHPHxcCjsdDhpig7xoagcxeCwatTnv7awrnyuV0hnxoRQmGiaFnlpPGqEn2XYB/cfVpRVHD1yzGFz8Fww4OeCfDAWjWkmfG8fSfdXiiF+xKz4tta2VStXrV29tr6uvuF4Q1Njc2NDY8OJhu6PxsaGpsY81ADy/AEfjc1N8CBg2NCEwFh3rG7NqjWzZ81+9fL1kJfSYcDPsE4dEOKzOT7AT/kJKgGlEimcV8lEEguYpZKpVELVDszbeqrOH07jL+E55na59+zes6xqmdVsHUbHdYN45o8N8VD5GpkhMSXG+TkwSJ3EICVIBJX/kul0Mk20JFE5Mo4QBo5pu8Pn8RH1tBgxokmYESMKmiHc/UCl8fUuSwt7BTDesdaoi3bTTvDDIOBibT/ts4k4NBu144WQ4Ha5XTTsKshvAU8Oohv+tL6xVW1VXq4Sk78IVRQsdLJliSoQTXHYHV6PVxUxJpIDqEapEmnge+BLZElhfazdZmcZVtWOh9/Sj6gcXh3fLe6f/s7/qNdj0RhwkNhANy8NkRHG2q0Om+PggUOVFZWPHjxCOnzAHwgFQ6kkVLDCv96w3R3iwXLP5jJE6wAOPt1xnoglzrWcK1ta9uL5C0VWxLAYESOKrERlEJgDmTnyUO+1euP6ovAWuRB7hME/y3+BfEUuhM9kp0tCNalk6t3b9xN+mHCy6SQWC8t39u/w74AQn8sxPmbcWKg3n8sBRxD3rXBApkrxzyMSTvibUbT2y3gOC+FTJ09VV1ZbzJZhdH8RxDM+5ujho4sWLn775q0qI8ywUCuZ8Blw7nk9oF7w+a14FAtDgcawILpdbofd6fWoYUwV5mQgCLpol4ty+Vm/BLQfkMPFGwohR9pls9rBUQ7Sifl60zgGiItcDUISHCSmehLxFyTPNOTKw5wiR7kARzkpt8sNpZ3ILEW9xlAwBA4i2kVTdCQcgbfyNrgckf2Mn1RMZAnThgxF1cTuljCcXzCSSCVU3TukGZohQhAEVKDxWizjj8pRrAcbj8YhdOllKCcFNb4DPFRQyVv0uCS4aJfb5Q4FQ6ozpxjN878XtywFHcp8kLbQIfkzh/0KuRz+FkVWuABXVDYSDHmUiWd8jJ/1P3/6vLqqemftLovZgtUC+AAfFsI9GPE9UL633Z7OptO5TDqXyeTS2eynVgSMRWNNjU1VFVVGgzGTzmjVzNGIxCHxh38mgtuJbs95wW1IOHBRrmlTpp04fiKZSA4DWEbh1EEg3uvxffPPb86fPZ/L5eSIrMgKlrxRZEUh6606+vujUf/Oy+ygK38yIkpnTp+pqqj6aIhnGf+J+hNLFpcQiA8F/KAMALLcAAAgAElEQVQUX+ylQQnvzwnxuH9CREbICwVDDrujwJYhPnFEqIgYsdscZpPZoDd06bqw5LQKlETzHUKObq/FbMFCH8TQJqZxHmuwxB1eLqqAEwM2AcRmV/ErbxBgOQ67zc74GIROPAEBy+vx6rv0dqu9rbXNZrWRnQd8Dz4IV51zOiiku6iGPFEtLqAkXojgaTIBOpHo/Vf3MeR1bFjAH7BabG4aIqtROVpQTIvGeQ4UKaxmq64TYoBCSCCjXR35sgRWp4t2OezOgJ9TJAgSaJsPvBC6m/BFsliCemXxzqPQ4OECfb4noaQJcTH5PD4XXZAeUyGe4DvlpI4dPVZeVn771m2WUQOtGEnWvDQIKT0gXqOnp3PpVC6RzsXTuViSPNLw38QnGvKxaKy5qbmqosrQZchlcnCPiGA19B6upmTfqXXmF3BArA0ML5EpkKIp14xpM5oam5Kk5O8oQPdQv3JwiP/6q3+cPwcQny9mhvtWNfYFg1Wb6n90QO+J+MlESpGV06dOV5RXmE3mofYZiTkBo4aEW/1s4NRJSB189eJVKBiCYiCMv1iA7PNDPN4UtINiSszPQrQQiSIEu1XfBUwnkK9ShJAghkU+wHfp9E4Hpd7oKLAV81Z5LOAP2G12ykGFhXAqAeU40FSHux8FKk5UiUZEiWWApYdVpVQpxzgk5pAYAGwIKAeF9aS6McrJEII2cLwiKQ6bo+1DmxSRVOljeBdaElWiQT7opt0kLsrJkoK+o8JXxYgifDQONwJqG4mgEU9MLc0qlCUgydisNo/bizEAXM9U2AWHjBwOhfHmfnj/gQtwxHsAHYXmf1SOYv0Nu83hdXtFYNpAERJtl6Amx8YSYjiC4uzIDc2vN/34doYC97gbIPgeDoV9Xp/b5UF1SU3TlLhoIG/r8cPHy6qX79m1x2ICE57xQQWoeDTeJ75rzplsLpfO5VK5TDKXSuXiUiboC9utvg6jp03vavOJVDwnZ7KpLHhvPvKPQPzJqkqw4nO5HFSkIVl4OCC/sGcsEdP93mXSGTftnv5lQLzb+/VXXxcgvmiNVcFd+21F9oU2nf7gB1B4U5JPnTxVXlZuMprUAVu8Te1vDBc5arDSdMmSkscPHwe5YLdwq6Yk/DkdNbjikuUWq9w5bI5iDwxYl8TlorqzkUhDxBi6dF1ul5tQSop8MoQJk4glQsGQ00FZSV4SlNJOQtUnfMSiUPEjqsQYH+OwOSgn4LgIgg3xZCIlE1af0+H0uD3g1ldiODDQx61iazSOZPxYNG42mfVdeiVf9wPxHa3vmALljXwen9lk8Xl9JPKZwvpK2BJSwQq0g4inxel2eYJ8SJEVhNeIGHHYnYTqHoIlBJEFvU/5kYxWeSKe9Lg9HW0d4JAhLcFND6nepzqLAySw4bQ7eY6PR+OkrFVKE7fJpDNyRPZ6vLC+0lDJVhIljV+PS6P224d6QGZZLBoTBTHgD0DZSJcHHTVaait6BS1my45tOyrLwQvvZ/wswzI+RggK6WRPNwumpWuGfDqXjefS0ZwSyfEWtv3umwvN1w80XPmt6eqR45cOnb/bdP/ttU7HWyHuh4Xgo/7yEF+Nkw7jfKoJj863L+gZC7/kBw/ex0w663YRiG9o+qM7ajxuz9dffX3h3AXVii/u+l7xtPzc6Gks/2GBPplIShGpD4jXdqr9GSpFEM8H+GtXr5UsKblz6w4X4DBBHK144o4vMGrUAkndR8NQ5/bQP0Vs3mQcfhrxNbvQawwX0ng1+XEJKE/uqRASjAajvksf5EO4LdMapsIxiUMqcpTxMWaTmXJSkFmj0v8h6QaKQfsYj8vjsDuNBlN7a3vr+1aEP6/ba7fauQCvWs3EUOhxFazcFIvGXZTr3dt3LMNCcb78HhEMbTiGvWMsGgcmOBe02+w2iw3BC0tRMz6G9bHoKHM6nGaTubO9s+1Dm8loYn1sgA1AdhXJqMLL9Y2zZI3kAlxnh85hd0gRSYHtgtpRGAnUCvCGhbDH5bFarJSTgqsDmMKDCLVzUN/cSdttdoPe8OH9h462DqfdGeQhf1g1+Yd+W/Nnxki0gPNzvu5lxTSIZ3yA5ufOnluyeEndsTqng8JtJakbLPfwwufysiMaxCdzGTkX59LMK8v9Y5dqDp7ddP7J0fvtF18Y7z9qv33txZmG6/uPXKy5/+6SEPPmch/jaM5DfJXJAHbVFwzxvTAQZ80XCPHnhwTx6qQlM+SLOE7EEyMC8ffu3istKb1y+WrATzRq8o6aAsSTPHL0+WrQOVoHpP+TiaQoiDbiblYRqkh5hsClqtYbI/lHlJPqaOvwerzg/UBgzWMK+pTRSk3EwZbXd+mNeqPTAeYw5aScDqfD7nDYnZBI5XC6KJfRYHz96vWrl6/0XXqf1+e0Ow16oxgWifIM1N7rk4iSTCRDfOjN6zc2q10t3adCPMA6uMvzbop4DOrYYfzA6/HSFK21BBpAArY05bJZbK0fWt+8fqPr1Llol8fl0XXq/ER5BkLN+R/Y+0CW4MuNeiOBY2iw6iwmLYdFMU9SgjXPyxgNRpvFRlMuN+3WHmoUFDKnKL1O/+rFq7dv3ppNZjD5yVrb9wLTf6uwDRFR4jme8TLa6MKQPmqQMT6WC/BPHj8tX1r+64Zf21rbQBHP4/N5mVAwlIwnVS8N2i6qBVP4J5vLJXIJLss96rqz+8ymY9dqXjluOJUOf9bJ5Vguy7Jpqt377OzjI/tPb3709mokESB+nf5Mob6NfA3ijQTiMVHjC/PPoLE7GMQ3NjT+0a14t8sNVvwQIX7A0dl7Iv3ur3w8xBN3vCxBtUw+AIVbK8oqTjadRHenn4WST8URV6/bizbUZ/rJBEFiSizIB+1WO+2kIyL4i9E/g2wo1aInXnIpItltDqfDqXnhtXaiKyOqRNHUYnyMxWxxu4i/Jb8SRIlDP6pEoUO8jN1mNxnNNqstwAZQ4IXoEzB2qx0dGpoBi3vzwrXiCcbHtLe1q/zFPKOfWO6AqtjyZDwphASLyUIUdYQUBFQKTDvcKAT5EOWkLGaL1Wz1uDxCUIjKUTkicwHOYgYPD8J0N86PNnpjcTEsWkyWgD+gUmKIPwcRFhuDxcfFsEhTtM1i8zN+KSKBgZ+n/ZEYQArkbtxeq9kKd4GiA2wApehIjEGNiGg/f4AD1aUWjSG+swS1EeJxmKHOndfjDfEhXYfu53U/L1m05N7d+163F3dXxFNHMlqR9NjNG0lcN4QUmclllJzUyX44fHVP3Z09bz33WpmHXdzrYM4n52QpJ+kDbW3eZx3M4wuPjx05s6PL8TqVU7LD9Nj0gHiyXSP3V7sFgx38Ubw6g0L8iT88xKuOmn9DfG9zJJtDiA/yQZPRtGL5yt/2/eam3ShD5mf8xRDvcXtYhpUikupwGGwEDzDbh/QWMeTRwRIWwk67E3QauCAaSvFoPJ1Kq94zEsYkIVnQUytuHlLpIXIoR+OxRFSOUk7KbDIje7JbTW1iXGO6P+MFrp4YFhWSH4Re8ngsAWIPXlgePG4PCZPCegO04iLRnkQ8ERYghFgwbzF8mqfhx6IxWVICbMBkNLldbkUCWpfqRyr6yUD/J1RCngtKEYlsKJECBFx7EDuzOSxma0QEXia6qjA+gX1L8kUlj9ujcTq1pQhbGyNu90g4YrPYTEYT9JsSI5EASBPBB/qUxLCI4IuJBXl3E4kex4cF8VBzvAe+94B4rwcqRzrsjh3bd0yfNuPSxUtYQ5jxsbi5jGGgVTO4VZTPFrvU07k0n2Qvvz69/9KON76Hbzz3j1yrPXC+ttP7IZqLOUXqyPl9hy/UPjNdt4c/NFzZe+VBUzDqSuaiw2LL94J4TN0YRhQad1EDzAXVA9kPBBd/UJsU+GK/i8dw5qzmqGn8N8QX9/XnP/5EK16RoQhDiBiMv/z8y8YNGx12pxASYGp1h3i3CzQMPqtefN7tjmY4y/hNBhMQIonPQcX3PKtdDIu6Tp3ZZEaOCr5Lts/ggE7Gk6QynNlmtYthkfD/EmgFF2MxXgiVBtIpiMRqHh4yIeNRJSqEBLvNAQ5uUdJ4hIX7HovbrLb3795LopTfcCRIDBNIdahy7KJdZqPZz/iRuU/gGxqpzU/0kitEhADRtrgZ6O2Jx+Jul7tL1+Vn/bh6gS9LdQpBTgDjZVo/tPo8ZLEhXnis46rtcniONxlMlINSsVsNWavsSewWEphVkLiZTKRwE6DuRSBlhvBBhwIchH6KVYLR64LWQ/Gzx+3BUXfwwMGfJv1Ud6weX8HIRIgPSRG5jwIggPJZ4k9XgT+Ty7hEa92tPWdfHvfl7C+peztPb9zVtLXT057IJd0R9/5TO2uP//Kg/XIk53nUfvnExT0m95tkTk4Rn762fPS2iIpf6Qbx2Zwa5xhKV3wh53x5EN+NUaNFXIewQhZm7x/y3nwSxOdyiXiC53ieAwHuA/sPlC8tN+iNkigFuWBPajxAvFcIhQuYOJodUrBEiMuYUBjBuWE2miknjfKzmhmOjBeaoj1uD/GQqDiFXxKPAU+8s72TclIF5l+fjSc+HySu9L7vUSUKRHiiPOOiXFaLNcSH8jCtJrLGo3EiWQOOePUbCIEEfUqSKDlsDofNERElTKtGoxgTcQvnE+tYS0pCfM9fCGhCaPsnE0k/G9B36Rkvg+sEOPpVhntCCAqoq4ycHzT0sD6qLMk+r8/QZdByXOEcWB5UlkGPW4xLlGb+fxzEK7LCc0E2n1KngbvP64OcNdrFc7yfDRw+dOTHST/u27MPqo9xvNfjRSUyBRRp+oNf4n7PZXKYvZrLmpj2w9e3PzRdC+a8rpTllfPxa9tzf5KN5eJiTnxrfvpUd8slm6Qc2+l+UXdh12vD7XguksxlU0RDV/2aHsTMYoDP5T4a4gsDG4MihEffe7AR+0ANj6u2SF8jVrutmonQ51d9xItfFsQT0iRJfYL5T5gYatf8WSEepZY0Z2X30Vn8v2w6GxEjAT8nhISrV67OmT3n2ZNnYSEMCsPEii+klbuAV8OTVMmPGDGf/hEkqiuyYrPaLWYL5r9otnxUAaI3QjDiaTKRzKQysWjc6/Ea9AaP2wO+bEn+xJYg0MdjcUBJvYHxMlElWiC/5/NftGGWiCfAp0T4mjarHZKeCOcSCZS9G4Ogj57r3u/iK8Cvz4vMiIJotVidDqckSuBTyqfj5uk9wHuBY7LkZDNZRVacdiDqIPdfXRtgUUFHUB+uhk+Cj7ykZUSUSMF3BrOmNYhnfCBoigzR/fv2jxv7w86anaD0EBSgRjwLMpOhYKh/fMexniQhU0DlVDbV5nh15OaOF867XM4r5AJiLhjKcWJOELKCnItIuYCS88dzgpQLGNh3R87XPum4ouSEeC6bzGXTQ0P5bhCfK7Li87+3cO9wjScATfaCQLclZgR0uIr4+bxLRHMY1eR24OquQrx6g7o5xxDHtAUeLgruvj60YPELC63qa8EofvfLhvjiX/KlH/dtxRej+GDH8Vg8yAeFkPDi+YuFCxaePnWaCwCbjUA8ahgUxKFYxh8R0TXcBxaMdmcmYolMOhMlrEeLyYJGaL64Ul6WgEwbhP58DqdD1ZscbFgPsf1oxkblKFHLATUFiIUSpjzav+lkmiAs+F5SSQil+kgIl/GxsWgMor6Evokn974oonzv17u9onmxgFIF1HWoq04ytlBCJ0p867jaofGOXiYMnGJkVd0fAHb0bb93u+JH9F6eAh9VohiiAGIMEcYoQLyXQf5SbU3tD+N+2L1zt8flCXJBF+3yeaFEgZ8NhPjQgEpY6KiBoj8A8ZlUu+PN0Vu1Lx33wznOIVtaPe98SbeSi4RzQjQXEbJeM9vqksxKju9i3tZf3vus67qUE2K5bGLIhnw3iEdHDemfPpA0v41DQMeQPkR6JJLoQHIpilIySQIaSmIQainE3gn9CXG8x5jBmuayJKPYKtwvEtEp3Lge/x2ygfvlQfy5lnPAiydWfOH3f8So/YN9pBjikb81GKT3fB8ihKFwkA8aDabVK1dv3bKVpoCHDkWQiYxBwZB3e1gfK4ZFFLL4/N0IBimRUUwlU+C0MZlRrIYY72C8oJUUz6vG220OMN6VKAZFhwSdQ7i/aHmR6ZQIC6LD7rRabKGggMCNhHHknisy+O5BrYyiw+Djynu6SSppj+k6rP7Mq0eBTYeMPcYHRCCP20Oyk4Cfg+wd9E1FxAjjY0xGE9FdAI+TOhfUpYKoUKGdOIQeGGpTCb6QDRZI6muw3uPAYrZu+HnDt2O+3Vm702a1hYIhjHj7vD5IznBD+VZZkkE9rN8/cKTjrjWXy1lZw9Gbe261XQ7nuC5/25FLBx503mUzXjEXCuaYN5ZH9Zf2vXM8lXPcS/P9+iv7PjgeKznxoyE+nUoTrxoYPf1BPPrQuAAUST5x/MTRI0cvXbwEBDDi+sOtIUqqqFl1sYTD7rh88bKuUwe7KLJOqEZ9Ps0Nt3pyRD539ty5s+cIe4qY8Bqsk5tLQJ8s4eT+kgxnkNIb+CZ+sRBPEkA+ZWoN3C+f/93uEA+51MP7y+YSsYQQCgNP2cfs2/vb0pKl7W0d4VAYtsmEHV8M8YyXQYsYRtsIYsHQvgrl2om7GSBJCAk2i83poELBfK4T2SaLYRESMkF4Fmo/oV0zUviueWAQyjE/i6Zoq8UKei8yZBghkRGLk9htdrfLg0wkFA9QCfLDoaP02dW4nQdMIQoH8Vgc+ZQojoaufHw3LIAiDWlhgEA/6CjAQd7o6wOYhnZH+mxYjxeBRES4nj2QHf/rZ/2dHZ0V5RVTp0xduWJlc2Pz82fPbVYbywA/iojIe90uN+fnpIgMNUD6/ksXQ3wg5j/1pPHE7WN2yeRO2Jvu1B24sOfGh8tvnM8edd06emnP0Uu7LUKbN2lteVDfeP0gHTYkc/GPhnjcqGl5Dz3hJb+I8hzfcrpl+rTpkyZMmvzj5IkTJm3dstVhd0BFFBli2rjoZlKZdCqtyMq1q9cmTph4tuVsMg7KuKpnD+GbjHPCtQURtzWr15QvLaecFG7aSM425Evj3Y9FY+lkOpvJxmOwp8SJoO4M+r/LXyrEy5Ks+rn6/209Bij+F+9fn2/9vi9+OsSnEsB95rlgkA9dvXJ17py5N67fwMILCPHF+Slej48jwlXo7/vc3ULCiYUpBNlDEuNjHTYHy8D2QtX4pUDoEWstEfGZ6Ii3kxhQxFVFphxKHFstVqLYLsaj2DDGZrX5WT/J21IdryM4WlRcztMxYROjxMimQVXRkSKSLMk8yaGlnTRsv/KibLEosIOgMZobYZgzYlg/BGKtAYid9nqAne7zMh3tnWdbzq5bu27hgkXlZeW7d+6+feuO0+FEnyEkHhNVsrAAqWd9xUGB8ahZ8fFc8rn12eHLB2++v+ZJOnXch6b7dQcu7Tpybe+RK3tO3jvS5n3mTZsfG64fOLvjQes1Ocelc8kEoV7CWjEEibJiRw1CfL+dSSA+mUh2tneWlpTOnjn78qXLL1+8/GX9L+PGjrt546YoiO2t7Xab/dnTZ1aLNarE2lrbHj54uLN214TxEy6ev5hKpFiG/fDuw/Nnz80mc5Toqra3tVvMlufPnns93nt3758/dz7IBx12p75LbzFZXr141dneiRxiP+vv0nW9evnq2dNnBr0hpsRyGeBZ9Omy127r/xaIx42/FhJR/QCjORm0Lh7iwadCfA7K+ykylFWDfPf2zrKlZdu3bfd5fOCoYdg+UxDDobDWM0Ns52ichrT3WBTK+znsDrvN7vV4XbQLClITuCeuG0KKH81bliexxIWQWigVmgEVU2mQUgDvJ+rUg0D8aPSD+p2w2MBCgrkOlBOKkKAYg8ftiYgSGm6oYo82PrQn/6lRbBhZTkLBkOp4KQJ6skH0+hnIQvC4vTaL7cmjJwd+O1C2tHzJ4iVHDh95++ati3JBFp7b6/X4WIYl/q54L6cNcidVWbF0LueJsZefX/mtZd/djlt2xWgItz5z3Hlguv6CutceeG6Ptj00XjlypfbM3aOeiCWdiyZzyWReCOEjIZ4s9n3uh9DBcvfO3ck/Td69czcX4FOJ1N0798aPG79n99621rbly1asWb1m4fyFLadbbt28PX/egvnz5k+dMvWnHydfOH+Rpuijh49WlFUsXrS4orzyxfMXTx8/ra6qXrVi1dw5c588frL/t/1r16ylKbrheMOy6mUbftkwb+48UNh/+Cjg5y5fury8ennJ4pLZs2ZXlFfYrDZUPx74jn95EH+25VyOZPoM1YonWyENyGB65HO+RxfoyUAZuPeL303EE3JElSEz6ofvqCEhqqgcJbxJyHXat3ffvLnzOjs6haDAMpDjmheOV4OuJD+FkyOyyuobVdga+MuJBYrMcaQP2m12tYQe+pGG2ZnFHTuMY5zbRJ4+FgUVs86OTrvNHhaAYIr5oqML7thL0AzVNU/ylRgoH2oyIx8xLxJbYN+ra8/APTxC74LoWFjUMloLtrwbnDCQVQdRH5/H7fWzfspBPXzwcM/uveVLy1euWHmq+ZSuU4eZdywDOVBoYWR7ueY1Blkyl5VzSSvvaLl39sDZ3849Pv3K8aiNea7j3uj5N09M188/PX744o6We8d09KtELpzJJVK5QoURlZupbQr6cg31YcXjMOgznkEYUJcuXpo08ceGEw0REcTj2lrb5syes/HXjY8ePBr/w/hJEycdPXL09q3bixYu/nHSj02NTTu27/hx0o+nT52+dfP23Dlz16xeu2f33okTJu7Zvfdsy9kx/xwzb+78w4cO2232VStXTZ0y1WQ0bdm89Zsx32zdsnXrlm3jfxj/2779jx4+WrhgYcmSkpYzZ5csLhnzjzHv3r5DB87AI/zPD/Fo7BRDPMZSCAWN8FVHlnCpgRFGSIY8tRLxgtLkx0A8Gc6xaByI8IyfC3CPHz6eOWPmqZOn0H8KglCqlohXc8ozPiYUFDDPfuCB8jneJdDGBTiHzREi1VPRaPocl+5xm8i9iykxXacuyAcxXIH6vSMYCej3dyHEE8Pcz/pRH99FuaDGk4/VSlD1+/Eev2Vk/0sC4AE/VwD37rY86gnTTtrtAp8MqWPlvHnj5oZfNpSWlO7YvuPZ02dejzfABhgvwwV47F7NltfAHQ8SuWyMiE26Rd+9d/cartYfvbiv/upvDTcO1F/d23j9t8brv915d97Bd0hpNpNTcrl0JpeBcG3xn2bM93idnNMb4nEV723Fq0FRSbl6+eqkiZPqjtZFxEg2k/3w/sOsmbN+3fDrg/sPfhj3w+ZNW+KxREd7xz+//ufmTVukiAxW/4+TsVjgxAkTVy5fuWN7zbSp03Zs39FypuVf331/7OgxSI2OJVYsWzF71hyrxVqzo2bm9Jkvnr94/er1nFlztm7ZeuJ4w6SJk5qbmmPR2K7aXd+O+fbD+w9DGQN/fojHGB1JsUln0hmIYBDSMebFFKB/RIC+QFnTUleGuqNHiEe9eJSuLh6lfR6D+UOGbzaTzZJ0EiSoABee9VNOau2atZUVlUC1jkgo0k22yV7QfXWD7itMNj9olRAXxFCbOpSB9XHnxKKQ7o8Nxhv3cd/ziZ9St3exhFEPVThIfAwFy/rWLPvEy/X8uAbxUYi7AvndaHaQSilkPwGe+p4fGVkcH+Db8mHwABtQFUzB8ZJ/gC0Pe0TMgQKU9zIBP8cFuLbW9rqjdUsWl6xdvfbB/Qc05YK3gCzvDwtiPJbowy+fhapOJI8pl8xlQinB6DU81z26/+7arVeXbr28+Fx3V0e/4ZKuZE7M5qK9lSazGeDGw19f4I5zKh6LNzehXrxpkHAr8dQpsvL0ybMZ02b88vMvlJOOytEzp86MGzvu8MHDL5+//P5fY+vr6nO5nK5T97e//m3jrxtlSbl+7fqUn6Y0NjTWH6uf/NPkTRs3nTp5qr6u/umTp1cvX/3+X2OvX7uey4DI5crlK2fNnGU2WbZv2z5zxszO9k5dp27hgoXbtmw7cfzElJ+mtJxpCQvhzZs2f/ftd126rm6pdv3ctT8/xKdTaYfd8eHdh3dv3+k6uygSrYI0PyzvUqh6rNGxMXlE5ZlozhxyoMblkCut6vFi1gOK8RPeWyqRSqfSUKpiOFwLIqsSbTndUlleadAbCpjew7Ah0sGQAJjJBvng40eP375+62cDiTgoqaZTmbAgouedC3CXLl6e8tOUc2fPEzqzWKxHBttqmI2Qcxjkg38QEqoK8XYncPb7GbKf83WD3kAgfuRDrAP9iiKIR015XWdXl07vol24En+OnUT/nY+pWGJY5PxcIcc1D/TolEenDdaf8XrAaRPwB2wW24XzF6oqqpZXL79546YPPPJQ/inIg3qPWsFVk84mB1mSn5oCyclsMpeJ5+LRnBTJBsU0J6a5cJqTc6F4TkrnYpgwVZg1uVwkLD95/PzJo2eMz59M9EfggVwnqPpUCWLCg0A87u2iMYfN8cvPv0wYP2HTxs379v42c8bMmTNmvn3ztqO9c8w/xxw+eBhr6U2aOGnyT5NPNp1cvXL1+HHjTzadvHrl6oxpMzZu2Hjl8pWTzSfNJvO1K9e+/urrSxcvw+RNpqurqqdOnmoymLZu2Tp18tSuzi6jwViyuGTH9h3Xr12fOX1meVl5fV393Dlzv//X94YuA2ZmDDSWovE/P8QnE8nj9cfnzJ6zaOGiRQsWrVu77u6du1IEhO6w5BsSXdH7GScVJ4heFanERsp/YxQur+gEca0kAXGsIo1MBigUTkqExxS1JhEX4LBiJ9wAmLSD2MikikX0bMvZnhBfPGzxmJgkmXTW4/YePXJ065athw4eun3rjtloDgvhZCIZESNYG9NhdyyrWrZ40WKHzRGVofozeuTRhMcCDqD/52NCfIiUIf39zEOCKbEo9J7T4ZRJ1dZBO23gwf2J78aUmL5LL4SgpitS9T/xC4f68ScSxYAAACAASURBVO6jxef1tX1oa29r5zkefa+/O8RjgdOIKJHMVbWyGAK66gMktnz+FS/Kn7E+1uPy3Lt7r6qyelnVsocPHnrcHpL46g9yQTEs9iFcQwZ8huB3GrKZUqlcIgkx1SjW9ovllFhWSeXiJJu1m7XuZ7jj9Y0bftm4b+/+a1eu67sMQT7Ym6wZlaNNjU3LqpaZjeZBIR63/pIoPXvybM3qtbNmzpo5Y2ZleeWVy1ciYsRoMM6fO/9k80msHnW8/vjsmbNLS0pXrli5dvXaq5ev0hS9f9/+kiUl5WUVq1auev3q9Z3bd+bMnnvzxq1sJhuLxjZv2lJRXuGwOeqO1q1audpus5tNlvXr1tcdq7fb7PV19YsXLSkvK5/80+RxY8eZDCZ0IQ48rv78EJ9OpTdv2vL3v/29ZnvNxl83TRw/ce3qtU6HM5vJKUBa4oCTJ4M+LcozyZIsQWFYIgkrRyNihBQegvo+MqmNGY+BsLsQFISggC9KEUkMi1CATVKkiPTk8ZP1635+eP8hJjerYeGhQLwchdqtlVUWs7U3sPd+JZvOOh3Uo4eP6o/Vb9u6nTjsTjx88MhoMPEceDkVSYFw/w/jjx4+KgRBkoyFEg2kYDf4aro75fkQccoPshQNPJ4+8V2EeNpJIy39d4d4Q5cBJR4/Z0izWx/G4kJQ6Gzv7NJ1YeEqjCF1O6d/i3tUT0O+Jgx+QQzxIZZhtXp+2gEiPvIpifOd87P+Rw8fVVVUrVyx8uXzl0CZZ/1cgOcDsID1HuTaK1gQKpNLp3PJTC6VhZJ/AwVSM+mci/K8fPGmuenUrto9WzdvO3Tw0J3bd+xWezwW16qRxGPxxoamZdXLzKbBIR7zOZKJpCJHnQ7nq5evXjx/YdAbwgLQWLkA/+L5C8pJo/koRaQP7z+8evkKdKQtVtpJSxHZ4/a8ffP2yaMnuk5diA/5Gf/b128ZH4N5Uga9saOtQ4pIVou1rbUNyzp2tHdYLVY0OO7dvX/zxs3ZM2f/OOlHF+0eygT580N8KpnaumXrhPETPrz/4HRQlRWVC+YvaG9rpym6ual53dp1O2t2vn/3HktAtJxp2bZ1+68bft2ze097a3tba1tzU7PJaArywevXrt+5fYfnoEjbuZZz27ft2Ltn76OHjzg/9+jho82bNq9ds3bP7j03r98sW1r+1//5a1Vl9e1bt0Xg/6bULcKAUxGseOLXKyst6+zozGaymXQ2k4bsCXD7JKGqMj7SqXQmnSV+RtjHJuKJgD/Q2d559crVnbU716xes2njpoYTjc+fPXc6gG+38deNU36aAtVceaC7QSWgQui1WNIAJEQwd2MokfrRgA+EeMpJqRHgwdbFkW9DnkcBfjklhrNXUyAZyowa2SahVprD7qApF8R7ieUxspf4+G/Lp/hirrIYjkCVsV7l4BHlvR6w5QmaA6bfvHFr/rz569etb29thzHpY1EwOZVMpZNpfJBtcTKVhP0xPCXTqVQGZkMmnclmMhB9yvRdtTWP/OlkNh5LioJktzqvXb2+Z/eeFctXbN60+czpM69fvRbDYg5EaRINJxqqKqB26yBWfD75IBGHJqVJLUnwyibzathEriCTyqDcWy4Lxb5xf49Ce1hyEp0HeFoqAb8GuI8xUNXGma562GMJuAQJHKYSKT/rrztWV1VZVVpSOmH8hA0/bwiHwmS9H2Tn/eeH+Gwmu2njpnHfj2s503L18tUpkyH1rq21/eCBg7Nmzl5WvWzqlGnVldX6Lv3xuuMTfphQUVaxZPGSr/8OtUcuX7o8dfLUxw8f+zy+1StXr1+3vkvXdejgoWlTp69etXrBvAVlS8uePn66eOHisd+P/XXDxuXLlp8+dXrK5Cl//Z+/zpo5q77uuBAUUKh20IlEkuKi58+dnzlj5u5du0/Unzhef7y+7nj9sfq6Y3XHjh7THvV19Q0nGhpONByvP1F/jBwfbzh29NiRw0e2bdlWVVG1aMGixYsWr1qxatvW7S1nWq5dvTZj+ozVq1ZTThA/QZ4DlF7L76bVzXXeLw8DkVSR/vwOAaDGB3jaSYPX6PcIKqpzBsALVtyO9k6oT5RIojq82iHdHSmD3tmPOyFPdY+DMA5JbsDc+oLy5YAWw8dddHifwn4AvyWkKKOPPiJCYB/MdqBO5g2IfNlufJ04DNlTzaemTpm6dfPWA78dOLD/wL49+w4fOlJfB6O9+HG8ru54XX09PE7U1zXU1zfWH288frwBZkc9mRz19XV1x8m7J47XNRyvVx8n6htP1DecqG9sbGhuONF07Mixmh015UvLFy1cDLNj5eo9u/bcuHbD0GWor6tfVr3MYrYMDvHFTlekzJFQnCJBUis+IAeV2GTQJ0SxAEN3MHiwIiM5QA5uIl92GCEebIi8ohkeo6xFKpESBfHxw8eHDx7eu2fv+bPn7TZHLpP7pHBr/yFobec04gf/MfA3ekh57uHy4pPx5NYtW//7L/+NDqy5c+Y+fPDw/bv3ixcuLi0pvXb12uaNmyf/NPnsmbMzps+orKi0mC1Xr1z9r//8r0sXLl29cu2HcT+g07CqsnrFshWPHsAes7Sk9Ma1G7t37R4/bvzZlnNTp0ydOGHi5UuX9To9H+DPnDozftz45qZmzIMfYtAV854vXrg4fdqMzRs379m1Z/eu3bt27t5Vu2tn7c7amtqix85dO3ftrN1Vs6Nmx/YdO2t37qrdVVtTu3f33u1bt1dXVc+fN3/BvAVLFi1Zt3ZdU2OT0WA6c/rM9999f+jgoVAwFOSDONO0mFhhKro9Po8vyIGHp+BfwjJDfYneDQ8RhgJJsXgoGKIp+nfjccIcg+BqRIw4HZBhaDaag3wI4FWBUhg4UUfdnCfwAcuMAvVpTUazQW/0eX0Yovj8S29/Nxr3OtomFT2TiqyIYSjY7fX41DFGIB4j/JBi7fLwXNDr9tbsqBk3dlzJ4pJNGzdt2bylZkdNzfYaMs537qzFR+3OWnjU1uysrdlVs2NXTc3uHTW7yH9ra3furCGPWpgjhUctvrpj5/Yt22u21eyq2bm7dtcuMl+qK2F2zJ41e2nJ0rVr1jU3Nre3ttcdq6+uqh4qxBcPY4BjoFqhXxFSFmCbFSNl2UGEkmiXQpkBBO5CBjLZnsa6l4fshtf5cajpyoHqWUQWw6IADmEZ2RxQZKa4PX0d//mt+HQqvWnj5jH/HHPs6LG5s+cumLdA16lr/dA2fer0CeMnLFywcNrUaaUlpcfrj38z5pua7TXZTPbJ4yf/5//5z8uXLt+4fnPShEkvX7wUgsL6devXr/v5+rXrCxcsHP/DBALrk6ZNnfbi+Yvmpuavv/r666++Xrl8pd1qv3bl2qSJk+7euZvLkWUWjZ2+er/49gDES8rZM2dLl5S+f/cBbSKs5CBLihyRpYgkRaSIGCEHMo6qVBI2roqs0BT97MmzfXv3lZeVr1i+4tjRYw/uPdB16nxenxgG4aqf1/88ccLEmzduBkHhIMj4oIA1kTQoeOTze2rYUIcFSHzVBuVnct2AzI5AU7QUkUAi7TOsK5rdRG4QWvE8x1vMFhftEsOinw1geak8uMMCMMRlu/j+DuOY8LKw7JQDimTZQ0EByiKCSI5bEiWAht9DWajfn6D500hnolEPWhoBXrXl8xCPKE+GmVeKSLrOrjmz56xfu17fBWLOLhrSX7E2FmrvxGBNjcZiUGkvqsSjSlxR4rIcU+QoPKIx8F0p0Si8q76Ii3FciSWUWFRSUvFkTFIEPtT2oa3hREN5WXnJ4pKaHTW3b912US6cUI0nGqurlllMQ7PiiycyAWJyO0CMQYXyvDIoFiJGRw0OGGLmdyvAglQONP+x39Qxr67xuDOAjyQTsGDIpLgYimmrQk+oV1zcqu7Hf36Iz+VyGzdsHPOPMbpO3dmWs2O/H/vbvt+eP3u+aMGiXzf8arfZhZDAMmzbh7bvvv1u3dp1iqRcunjpP//PfxIr/ur3331/9crVLl3X0tKla9esffTgUVlp2fJly9ta2wiv3CdLcsDPtX5oXb9u/V/+71+aGpuvX70+9vux58+dJ2FbULNCY2fgxMhiAQOTEYrBD+UvlUzZrfYL5y9s3LBxWfWyrVu2nms5p+/Sy5KSI3VCpIgc5ENCSDAajOVl5VOnTHv96o0syX7GDyqvRA+2aOLBztrnBePL52WQ5wDCWyQfmAzTUdYsIxBPOSlg0SVSnwPiYesNqI34FYvG/IzfarGyjB8dqbFoLBQMWcxWaBWRX1bxXbutI+FQ0jQIcWmPRyHKSqTZnBjvTcaTYSGM6g6RcCSXyUEEeCQu3S9wd0eKYZ2GmIXMLm2PiFlRSJxnfEw4FI6EI40Njd//6/s7t+9ExIiLdgMPjdB/hzL4Bz0nk0i5nfSVC5dqtm6vrqxev+7n5qbm1g+tRLZezalVZKW5sRkYNYOGW3t3CJKkk+BPV0O/GagxgrcGaRrqbhj9+ODM6Qbx2KvYXWg6FMY8WT/wRRyKSOrDlUAl+PVuUq9X+oX4P4OjhtgUiXhi/bqfv/rbV20f2twud3VV9Q/jfqg7Vrd189ZxY8etWL5i/dr1hw8dbmttq66q/sfX/6isqJw4YdL/+5//dfHCxadPno75x5jJP06eP2/BN2O+qSiveP70+b69+yaOn7hm1Zpff/l1987dXZ1dK1es3LZ127LqZWP+OebGtRsP7j34Zsw3P/3405HDR/ysfyjcVVSvlSXlzOkzpSWl7W3tqWS6v0cmBfGZXDbndrmPHjm6YvmKyorKumN1796887N+zPVAVe5ELBHkQyShHLKcHj96PGf2nMWLFr998xbo8z6WhLkg9bwHyuO0xDgYFwDSkRASkFykugh7jaRhQUC/JxOxTMpJRcTIZ4N4BMpUMiWJks1qMxqMEMgiITW1XkcsLokSTdF2SLsNYbm+grVVtEL0+7v67y7NHldkBcX14rGEn4Xahz6vD3f66ArAMrNcgDcajD4vg5addkVVYKf/C2lnfo6DvDAyFozF4dQD4nmODwtho944fdqMZdXLYRDSbp/XxwX4eCyuIiYJnGZJXBVDqyhRBnx5fCsNSX8ZEn7NZLLwegYypnK5XCjANx5vWF5ZvXr5ykP7D96/e18ICsWrAhAW0llZkoE0Wf0xVjwKQbMMe/fO3fpj9Wdbzj598hQkoEkpR9RKwe2IKjIsKbKk4D1FFWgoCUD89UjZUj2BJMcKlwpcIXANUBNuSJgXgX4ot7JfiC/ui891PMK+eG3Qn2o+tWvnbofNIUvKowePNvy84dLFS+2t7Xt27SkvK1+zes2F8xe4APf2zduf1/28csXKivKKv/zfv1y8cJELcAf3H1y9avWunbtPnzx9svmU2+VxOpwH9h+oKK9cXr28saHRZDAd2H9g0YJFq1asamxo5AKcyWDaWbuzsqLy6OGjQT6IwbpBbwb64lvOnC0tKe3s6Byoz3FwZ3KMj7lw/sLNGzddtKtP2weFyfys38/6XTTg+O1bt2fNmLW0ZOmD+w/8bCDgD/i8jMftwQnWKwCrGvWE9AZUHK1Ck2b2Dvq7hndCLB4WwpSTEkICcpCH9/EhAhxZ+wtrFfkvH+BtFhupgAo0WeSuAL8IynnLJNwKVfQKQr7kWtpGW+2Q/G6gZ7Pxin01D3b3xB4nWBCLhCNul9tmtXEBKLSNfHxC5JWIzmU8nUzzXNBsMgf8AYzjEXQA3WPoMe0S/V+xcI528kgfIGwlYglFjhbcNTjMSJCf8TGggcoGhKBQX1c/9vux9+89EKDaQYgLcADxn/JHDHSBD12+cOnqxct2s1UKR9TvQ7INShqQ40Qs0djQCL74vKMGBwYs4f3dzXx3pZIpj8uzedPmb/75zXff/uubf34zf+58QlcHvw2ODSIGmUTfGnJp5Iis69TBBGT8BNPjmXQGK8wQHl0G64sRtw8EbGHBUEBGGB1BKrgP1jbtLhdDvJpf9il9+2mfHWGI134kqZAJhDOcEih+BEXa4okgH4yIEfSX4ZY8IkYeP3r81//5a8uZllw2xwV4zs9F5WgmnUWt8CwJZKPHMJfNIQdWkRUhKCQTyXQSqgoIQSHIQc4eWX6LJl5+cGht0w5AhoxY8UtLluo6dAP1JA7TbC6TBuVojeELB/BiBlJIcBeWhZQ5KSKzDBvkgwF/gA/wd27fQT2j61ev0xQNdGaPz02DDYWSBtrOuscBypYhq7KAj/3/Iu2nDeMAIF6kHFSQg6Vx0Dk2jG/W2kmwr9g4QqYmKsCAsBTJSYYpB2Q48IFiZRIkjQT8AasZOM6iIKr2l1bkAdXeu19I7SgNL3ogL/ks1JkiMW0xLNIU7bA7MFeD7O2wAcBXScShCiB+IZbBohwUSBr0cM3jJfCK6nE+10H7r3ZQTBHRWj5yBzElBtUlCSdStSQIxEMxMtaPZaF0nbqZ02du2bSFI0kqIwDxOHnS2WQ0nkmSvFYN0/Gt/OwgnONkU0NTdVW1efgQn06lX796PWvmrOXVy1+/ev3i+YsH9x94idCmz+uLk2JPWN2F53hdh65L1wUynFb7ls1b58yac+vGLdjlJ1M+r89kNBn0JDkrmSbDwBVgA2pASBA9Lo/RYGS8TCQcUS3XT4f4L91Rg9sc3P6QmCQoCqCyNjgxMgDN6PHIEqDEYBopnZx68ezFj5N+vHP7DqHNQi4r8XwBLR1rKyOqwg4xlUFTK19fFJZchVTXTBN3iuq3HcKcIRAvt5xuWVq6VNc5IMQXD1PtOK9XU7zDRWZ9KpkKckE/G+D8HK49jx89XrVy9fx5848dPdbV2aVmvXqh+F93TflCJBaTWaCQCJS+A8mkUcLfiBihKTrgD2DxhI8B8UF7W2s8MGckj9vjsDuIJDeEMfGnSREJ2UehoKDmCuTlKELBkNNBgZA9F1RTgklwDFFY7RaCobi/Jtv5JHj8u/v9EZqR+Q7REdbvdDiJXHAEkyRQ+CwshFWDNwRFB3GgonXv8/qgCiApw0sENkh4HNuZl0tSVyz4IPl15F1smHoTtd4YtN8+6gRZkrl83JW4BNWtIeODQoBcANw1u3bumj51entbe5ADKeyBc6BwyA/vuTecYSYV4cU3NjRWVVZpvniMzQw6wrFAx9s3b2fPmr1g/oJ7d+9xAS6XzbW1tlVWVNXsqI1H4106/YZfNpw4fmLvnr0L5i8oLVm6a+euA/sPTP5p8jdjvpkze86d23e6dF2bNm5asnjJwgULd9bupCn63t371VXVW7dsLSstq65ahskuS0uXnjp5imVYUgpm8Gx5beIUW/FpXPA00BheJ47A2aNlxUO+NRFyK9w2QubFzbg2q8FfJimxaIz1sY8ePrJZbblsDis0YtaJugzEoNQOyeEmRNcoUKaQ8UJ4dTGFEGDQ6TZ0HEQx4ZbTLWWlZbrOrqF2Z96iL5yPr+D/yTG4ayQlFAyR+pmgFsL5uXdv3+/YvmPWjFnr1q6/dfOWzWqDhFhQqQRBSmDNu8F9rxnyKFmOJR2gngNEjUYh9Aoi6QpeBSsuaSP10w8w3I1QCMAqgbY+TdEu2hUJR4h1rJbrS8QSbpcbFEL0xs6OTp/HhwBNPguqwlCOyu212xx+1g9DK8+J1gr0AHyTsidoE2AuDLlEfnKqfDuozCeEBLfLbbfZA35ONU1AuxhGF08877pOXVtrm9lkjojQTrAqonF0IoUFMPyBNwViXlAaUL0v+QohMOYJsQ9XIDwB26bGmUcZ4kmlWSgT7yGCwxD1cXu8bsiE8nq8mG336OGjH8b9cOniZdxryhFZ25sWBvYQjzQ0z+bAKZ/JajKWfX5BPJZoPNFYVVGAeFwUC1jRz8KG6SMet2fP7j0/jPth0sRJv/7y6/t37yknPX/e/H999y+rxXr54uWx34/dsb1m1sxZixYsOrD/4NmWs6dPnp43d97ECZM2btj44P7Djb9u/Ntf/3744OH169b/7a9/u371+vlz5//7L/+9ZDGQnr/79rspk6esX7t+6pRpFeUVFrNluBOhG8SnioSbtY7qs19G58UhQTzWbv2Yqk846MkNK2x2wNrSchZgP4vskXgsLoahMI3GcFB7llhnONW1vsZpqWGHOkv7GRnap3ocJIguwrAhftA7QVAeUq4lgBI/G9Dyxc0my/lz59esWrO0tGzP7j2PHj7CWhyYgqgqD/dMjwITjOeCagcO8zf2+Ml9/heZ4B6X5+O6sc/vxBcxmQgncESM+Lw+hx2tZihTjrcPJzZJRucYL0O4NJbOjk5oDErGE4I8lqAiRVYdjI/B0aihZ7EZSLo9LIQEdSVAPM1T4hRJ4fwc5aCcDiditKoVTMZqMp4UwyAeF+Qhp/rD+w9o4WKyu8bdDAUFN+0mRb2DuDNQ4SlPOcUxrMigroHVn8kJCP3A41bXnlG4m7iNliU5FBQYH+NR2ZMwirweKBQV8AfEsOh0OOfMnrN71x6UrCG+moHEDAYd9eoJxeZOP5/5FIjHfnO73OfOnq8sr/zq71+VliylKfr0ydN//9vfm5uaa3bUzp0z9+6du9VVy2bPmr3/t/0vX7y02+y/bti4aOEii9ni9XhnTJ85/ofxF85fOLD/4Ddjvj3ZDGpl48b+cOnCpQ/vP8ydM2/DLxv0Xfrt27bPnTO3s0OHAxguPbT79b8L4gv9ovkiNYjP2zIwH0j+As55HKOF3sQPDq1zC58awvkA8aJ05vSZsqVlXUO34vsZuIWX84Z8Kgl+KiEEDGshJPABnud4ngu2t7UfOXxkWdWy8qXl27ZsO3PqzPNnL+w2OzGy8qkrWpoiOQj4A6qGzBB+17A6AedMwB+gKRcQSEb0+9GxnoglIuGIiwb5dfghJMkLc3YANFUIBncN6BTJUcpJAcQTd7laClmjS0bjoiBSTpqm6BAfUrOCE+A9h+hOIoW+QcbHWC1WyknzHI+5KmrYTZJ9XsZqsTE+FsM8qv0IvhTCvkfjI5ZIp9Isw7a3dfABHgek6hRSC1HFFUnxerwQTmDgq7DsH24dcOGB1UIQvR4f1BUJ8GJYLConrfr3C7NjRLs9L2UjcwEO3X3AmyRC1j6Pj/ExfIAXQsIvP/+yrHo5+p0A4qOfFnEtTIBBjvqDeByK/Y5AMgbUc2CoKEaDac2qNf/z//3P44ePKSc1bcq0RQsXzZszb2ftLp7jH95/uHb12imTp6xbu+79u/ebN25eOH+h1WLzuD3Tp06fMnnKvr37jhw6Uluz8/mzF1cuXflx0o8P7j3o6uxaMH/hju07HHZnzQ7YCnS0d6p0yfz63W8L8zfxfxPE539zz04hKD9K47vntfprA9nXR0TpzCkC8bohO2oGGcD5t8mmDMuAYY4cH+ADbCAUDEE2qZN++eJlfV39qpWrSpeUli0t27FtR+v7VoaQbTRfjXbgZ/yqxHz/P2foP7zbmWDeJoNECAidEt3e/bTLoc8kyAddlMvtcoeCIYxeFjumVYgnTnNFjno9PpQzwuGBHhJokmYiRONiOOL1eCknRax+IRTUHpCOgFkXDrvTZDR16br0XXrKSYX4EB/gnQ4nKeQUxCxWbS+ofjm5CnpUREHUdxmsFiusrD06Ia8foMhRLsDRlMvpoFiGxUuHgtCGEB8CETo/7EucdqfVYjWbzA6708/6cWkprG09vnyE/hsj+Z9BHjJatVEEgR/irsGF9tjRY3NmzWlrbQP7g+OjSjQ/dkf3334hfsDfru754gmr2Xrp4qXrV6/funlrWfWy77797sXzl8l4cveu3f/4+p/jxv5w6+YtP+O/c/vuqZOnypaWzZo5+/at29u2bps4YeKRQ0devXxVXVU9ZfKUmzduPnr46MK5C6yPPX/u/NjvoRhsZ0fn3Nlzt2ze4rQ7t2za8tOPP7W1tqmWihpxKRqK/dj1/4b4oe53ek6tAUfAx5wcS0TEyKhCvJaAh3WggPDOAc2GCH9DJtTrl6+3btn67Zhv589b8Ob1G9hZE7Md01XgmPht/CypIjIaeTfEmxwOhWmKxlocH9OT/d0aYhp73B6L2QKsKgXc8arki7bM57EbKtgJYkd7R5dOT5KPVJcdkp27OeWIA8dhdxj0BsoJLhenwwm+Fzsc4DHlpGxWW+uH1mdPn717+w7Bvb2t3c/644SHozKpyUqP1YU0jZooETXUdeoC/kAfBNw8xCfj0ELGx3Tp9BazhXLSlIOCh5OmnBTlpEg6G1jxJoPp/bv37999sJO8WfS5Fda2/nrvE17HkHIPiEehU6/HF+SDsiRfv3Z98k9T7t25Fw6F/WxAjsijC+35b/9IiM/z2V++eLliOZRqmjd33rSp0/bt2cf5Iej6/u3777/7fsG8BTaLzaA3rF2zrqKsYtGCRVs2b+nS6VvOtEyfOn3yT5OR9FxaAnbVsuplWLj15o2b8+fNf3D/gb5LX11Vvf+3Ay7adejgodKS0o72TnTQaeGfwkE/dn0xxGO6TP6n/w7//kd2wD+3y/P1V1+fPXM2mwX+omZYqbMOi7J+uc8EU06fPF22tEzXqRuwJz7qzUwWikNlsslECus5IF+eZfx+KL7Dul3uSxculSwpLS8rh4oNXnCVYlYUUCrJ5tpNu70eL3E4kPzxke1tkhYIWb6QZ+RC3jeA6QhdhRATQQOHclIu2gXERFV5puCMVi9HPO8sw757844LAGWWgBSERrUHykiRWithrJ3t9fjQZA7ywRAP2yNUnCbF7WAB0HXqjAYjrF5BsO4pJ4VMTY0jgbsEFMPBpJhYFBIFTEaz2+VBqWf1dcKQ0eJGxK2kBFiQ2qeBpsLB/oxkNQshAfNIg3zQ7XI7bA6b1WYxW8C5FAwh1x75OSPVz72/BxN/gnxQtRLIWNLKFfAcLwrim9dvpk+bfurkqSAf9LN+RVI+apQP+0OxaLzhOChNmoymVCKFHTLwqMNsJqRgeFyep4+fXrp46fy5uscMhAAAIABJREFUC7du3iICvyDCcfvW7XFjx+3bu0+RFT/rf/b02bmz5y5duKTr1EVEyemgrly+evrkaUOXQYpI796+O9ty7uL5i29ev5Eikt3meHD/gZt2B/yB589etLd1CCFBr9M/f/Y84A/gJq/YyCgc9zVT0qmMi3ZNnzaj4XhDOgXpYb/j378hXhxFiAf9Ybi5yURSCAkBPySeaFV77Db76ZOnF85fuG7tuocPHvJcEEswqxCPJaJcULANU88xHaP3ZP6kVwiwohg3mpzFQZFP+mYy9GFDQLztETHiISlsSDdUf0s+pRAvFI9BUT2rxQaWvqIWD0AKFkIwMltAOsZqt9vs6FtQufywXVD96fFoPOAPOOwOF+XyM35REBHQY0osIkoBNmCz2jCbF8yxGEl1IQuP2gxwBIkuygUB26LXkbcK55B1MSJGvB6fw+5gfCwGVHHaqz4fYumLYRF7lSO++BiRUiHef/D7Dwxqn975USUaCoaKHTW4QcSaUGFBNBlM8+bOO3TgELgQSYwELZLRxqNiiM+kM0iWG7g38hXSISNJY8oi9Q5t6mdPns2dPXfh/IXv375Pp9KYYwHZFZJCVlPo7bAQJkMLVF3V1DYZVjXI1yGcPQiikAMyYCAxAmP+uL0buIXF9+vfED9iRmJxt37M8Whb8QjxaSBQcgHOzwYYkpDCMqzdZj92tG7e3HmbN21ua21Du56mXBrLDenMbpfbRbv8bACUsPqyFz71xbwVH1VimHMrS2SvQAb3p345omGeVSVFZAzqEpk2MT95CoMhEUvQTrpL1yVFIB9deyBXHeaeHGV80HVE6BzSoHDuqeuBUsiPRbc4fjC/b1A3BDIQN0MOO1jWWJEcDV7tx8ah0ARn0BvVzUS+29XEd0IAA54+OIUoniMFGok/qhgCEJKwcA02A3+vtgB8BoiPKTEhKPQH8ZFwhHLSC+YvqNlRwwV4P+uPhCPZvFEyqihfDPHZLJReIreyMBK0e9HzgAxLhaSeErYVVA0CxI8lXr96vWvnrtu3bhMtP2BskwUV9CbJvSDZM6S+ECgMSrIoiGhJEB8dqFcioOepH2BhoL6Fejk8IT8Yejas++t/LIjPDPjnot1f/f2rs2fOZjIZDPdhdq82/b7sAyUaDoVPnzy9tHRpZ0fngD0x/DdJyisaFEFSoAeUJr0M4ntjQ+O8ufO3bt7a9qGND4CgPE3RtBMI43BAmOMu2kUkRIBHCMhbhHojeYz2shLj/BA5BFUcMrhVr8gnXpRIAZMvJBMmAtlGNmKDQ+iVvIteY5LrlHTRbrPRLEdkXGnQRUOk/hTMz7JabAF/AOUNENnRvw/Z1KAICM94PsFQINTn/Tw4YxUUqhOCIK5pMpr8jB8Jjvh7gfSixHiOd9gcPMcXLkQgAzRHRcnP+s1GM5r5+VUE/E55mMADQBlgdpIc2kJn5n+yapZ+YvcO9vEQH8qTJkFLAx+YA4E7jPnz5m/45Vc/68dwMSl9M/yhPsxPRJVYw/GGyvJKo8GIVjwyqQYf1WSs5m8o3G41Gh+Lh/hQgFS91wYbfBsRo8ZyciCTiYOEjBNZknGYqd9G3sIGFMYSGU5wi0lZmMJNHKzbU8k0TdHTpk5vON6QSqaH2T0jfPp/DPx9/4b4gftnoHdTUD0qlUhFxIif9fu8QFYLsAG7zQ74PmdezY6a9rZ2VXiSdrsoFdwR4mmKdrvcrA/KQkkREEshY7Fg2w4+HwYbiOqAhtxgyD4Lh8JglgaAWaE+hvYNA7UEPe84u8hUkSISEGxUAiWH3g+cPET4UyaJOfAzEXnxOcgHMYgK+E5KlxRaSLLnCrOXdBR5F7Tme7cNZywK4AT8AYsJXORqfhNJqcPtf0SMyFBsEug0uG0nWuQxF+XSd+k9bk+IpByr1hyxLlXU1npP3VV0b0YB4vtoW+/WfuIr/UG8j8QwPG4P1oFifKyf8QshqKXzGVC+D4gnQfhh/1joapL2SNInMQ9Z/ZJ8PxfW7/wmr89RMexLDzg1ukF8IjUQSoz+e/+G+FGw4knZMCwgEAlHSKEGqMfNMixN0adOnpo+dXptTa2+y+Bn/V6P12axaWa7BvQu2sUyrCiIBGhGHQ4A8iIyZvMj4qtzY8ChPKSJQaYW2kpwPslSliOy1+OzWWxejw8WMIL+mitDs+4RbQNsXqMmDO4dYpTBph6+szs0qJYaml39tBxBGZMMokqU53iiUeMM8kEpoga0yYKK5j80GH3oUkS2mK0WswVDpkQ/HWIGhQ1+XytKzy7qsQD008ien/rY0/qFeK9PCAoet2fBvAXr161nfCBfE+RDqWQKJEZG+a9PiB+qIY9dQRwjKlgToIfBQwhIxYsu3ppumI79/7H9OcT7Ugzxyd8d4tMD/tGU66u/f9VyuiWdBqUe7KxuFpO29/kSD4iQ2anmU+ioGbAnhv0mJusCiLu9LsoF/GiHs+V0y7y587Zt3WbQG0BykoiROe1OmuTyoP0O5BNyfigogM9h9B/o2ZAlxUUDxTsshBGLEUNHrAEyBlFjGOmSJZnneKvFarfZyU4FPFHoWkVpiqgcJVlOlMkIGr8RUYLhR2z2T2oeaQbx54CRjtIIhH9pZBkgrcMWHurFk4UHKkJAw7gAp+vUUQ6QXCaVImLYacVG4gh310jc9yAXdNMQzil+uF1ur8cX4kNul3vB/AXr1q3zEf8hz/Eo6jfssT7MDyhy9ET9icrySoPekE6lUYxkeEOd2ArY4XiDiu0DHCfa8+e/L8lEClKxpk4/UX8iHksMs3tG+PT/GPj7/pdAPGjUdOgG7oqhvptST5SI3xnp7QEWBIQvXbw8a+bsdevWdem6kLBM550zlBM0tmgK+NQkvgoawiOGrUMBC+AmRgN+8CPxHFAb0bIeqemBVbQILBZcolDtXhDNJrPRYAzyoAQQVaKSSLxSkhIWwjYLSMljwj0Gx7A9WJnr4/sHfazYLcTkJ45pj8loRkky1YMP23/QpfF5fVjMS5ZkXBvIMqD6gn9HKBm0BwaAeC7AUw5qwfwFP6//GUXxeI6HIt35ATzUAT/88zSI13eNAMTno6bAftHuRfHBSI3hQXtbO6E7xMeH30Mj+Yn/9RAfEoA0OYIQT+4OegDcLjdNubweb8DPvXz+smRJydKSpa9fveECnMcNbEgtRwYzZcD/Trv9LHhF0cDUBs2oH4A9GxPDEaKjwGhB9dGbHvl4F9AbPG6PQW/weqDyXFSORsIRlmH1XXqH3YHMB2iGypQH+Tny35Hb35CoXSwaC/JBm9XusEOgFYOlQkiwmq1WixUZ/QgceC8IMSNP7sTtRfHKMZRldfTPGQDiQ3zIarHOnTN329ZtAX8AZXk+A76n0yD9jVb8CEC8ujVU3WXFyN7nsTaecSPY+5xuUdn8DervZDA18ucUH/yxID414B/lpL/6+1dnTp1JpVLAKiWDGCLRf4qHIivhUPgUMGrKOts7B+yJob2ZVE8DPrLHSyS3vC7ape8yrF2zduH8hTeu3yDbZC9N0c7ibEySDOki64EoiBjr+6ydDN4JMEtR5lcFVkIvG/FmQCFckTxwFEnAlvF6QL/bZrMJobDP4zMZTC7ahXtwmDykPBPOKID4kWsYtIQ4Z/ASQT4IfEqbDbQHoEi3yWa1CSEhEU8WLy1qnxCXjrrekBaOeF99/BeStvEBXovuaGF8F+3yuDyhYEiv08+eNfvAbwe4AAgtYLh1aAP9k84CK/74iYrySn2XIZVIgVsM7oKKKqrfJv/fPnqA7KVwl9kbo9UdGMmYy+8dwSZA/5u2CcOyzL2f8TTV/tDakB+B0BjSsYVn7Zyig0Q8STmo6VOnH687HlWin9RZn/zh/xj4G/7kEE/0fk82nSxbWq7r1A3cFUN6l0B8TImxDOui3ehht1qs+/ftnzNrTsuZswE/xzIs5aSddqfD7nAUJdyD/93HAFGvaKx85mNFBrFfmw2IiRhO7DnWR6FtOM3kiBziQw6bo6O9w2Q0sQzkE0WVaPFqp1kYIwjxWg9L+WrsWPpD36XvaO/EcuFYURrzm7Tz4QCxJm/HfYa+6nb1/u4FLjwElbh+IN7n9YWCobdv3k6fNr3hRAOGhcSwOKRB/sknyZIM2a2V1XqdHmlUEVHCB1BaJSC2DvAg8KpCNuiH94qdquMEsVj9KjXEgnsvojrek4YPqwX5KnU9yHcvWiRaz2srujYatbc03E8ixE+bfrz+3xCf78dCN33GV1Ds91TzqYqyipGC+HgMqjz7PD6PC4pu0xR9/tz52TNn794FZQ79DERfKScF+G5TIR69NIyPAf4MBPog1ve7dAiCFNLzkSD/eWAL+ObE/RIRI6DF5mPQr9qzH/LG+2hAvByRCcoAV1KCfHdnZ4cOkmPDosprImjy+9yXYU0KCR1ZECgOsCAgqtnveeKWm2XYsBC+c+vOj5N+vHHtBuNjfB7fZ4P4iBhpON5QXVVNJKPjaMVH8hs7CW5EpP8H7v9wSYho4XENXmHdJW49tFFwqJBFWiLDDDZtfX4Kh3q32Zc32HEfia4YbUXpaQPBySqDPpWEcOv06TNOHD/x+1vxyQH/aJoe889vjhw+io5adV+j3gy1s9QXScd9WceKrPAcX3esvqqyStfZNWBPDO3NRFKKSH4G9MUwzeTVy9flZeVVFVWtH1phvpHMJspBIN7uAC4NyXLyeZkQH4qEI7IE41v1Y2A/f8ZnnAMsw0IhUz+HxJLP1hgxDCtcW2sb6qVgY0ByXesBNLTJph5Gmvb6SBwgvgOgh0UhJBj1xjev3njcXiEUFgURL6e6FEbiciPb+G7fRuwDKSIJIQGMDKKJhhtKEGGmId/C4/bKktzc1PzjpJ/evH6DOvJQreGz/InhSGNDY8mSkhfPXyDttYfXpZulTFwu2ivELU6ymvPio+iZ6QHx6MBBmk2+UgUpmoa6EZi83eu5h9sH+JdF5/R4FyGeLEiq1xF8TQj0SrSzo3PK5CmNJxoVOfpZOrXfi/xHv++QN3iOLy+rWLRw0d07d9++effi2YsXz1+8fP7y5YtXr16+ev3q9euXr199uY8Xry5furysatm2Ldtoih64K4byLpjwOK9gInlMRtPuXbvnzJ5z88ZNKJvp9tI0cGZQDRGfaRrqB4WCITRbRhy5uk3+oWFTWAjbbXY37RbDYCV9viYRn3h7WztxE0E0tWfjNYgf2g/p+fH+PwWdH4YH4jtN0+/fvX/54hXpBBIaIf7i/7+97/5uG0nW1f/2znvnvN17d2ecbQVLsmVZwXKSwziO4zhne2TPOGdZwTnKVhbFBDAjEiRIMCvO3H337m/vVBcA0bKcRomUuk8fCISARvfXwNeF6uqq/KB4MrswOvJHJpXRIhpSvDmfr6oR4tIg9q//+hf6Q+f8XEyLoWbsWx7yyZ7zb5jVeP3qdXVV9bmz5zraO/p6CZNY+oFPpjJbrRZrP+R+sjO1hX9cGnAgUKKlDyixo73j5IlTJcUr37x+AyENZjV9keL/DVVre9e2fdv20pWl62rX1VbX1lTX1FTX1tbUrqtdV7eubl1t3bradZBr8i/XVNeuqVize+fu/r7+KeiJf0PAoFQCIiDDjFZUe/niZcXqinNnz0FI7jise/qY38HrbDQSzaQyJpPOOomg7ByPJUCQT49V7Nvp8i+fiYIY42QyqQwqOscXNW3jjUnxf4z+kYwnuQDvYl2Mg8EAhPhdD5UhOpzxtfr8yDFrZ/7x5+jIH6lECkUK4t8YnBvjJ2OMRAXJpAfqN2/ZtHGzGlJj0dhgZnAKXoFv4bJ/QxzEmBa7fvV6LbyAldVV1cgqNUAvU5ZrCU0BUxFqqq0hNIVkNbXbmnW1NVjtGrxp1dqqqrVVv//2+0AalhrMbir494SJBMaEiGX/BjezXo+36VFzS1OLmZubyM/mlhYjNze1NDc151duetT09MlTnuMhAhwmjAg6ISZfO4izrBDzXo1CfPcAv3PHzrp1dXabHZY4RaLhkKros6yKElTAn7gaTcTBkgEn9ECQHP0TxcnZ3Q4PDcuSrASVkeGRMfojcu70VQzHOafdmU6CFxrAZJrvmF0+qmjQUwLP8TzHcwEuHAqPjoAUjw7Fss/P5f0/yVOUiCeyVYLgAQJWXYBv6kwq43a5iwqLTp08pWkQ829kaORrD/gU/z8RT3a2dzY3tTQ9anrU+Gga88NHjx4+aoTcOJX5QWPjg8aHDx6S/NH+o8ZH3Z3dmVQGIpjOdvoSxY95vv+0lkZw5LFz8vGI2S4Yy4yUvW8c+/pfEiMQnDWSUJmJWOL+vftFhUV3bt+JaWA3iVaSxIoG+F0JhiLhSFyLQ8i34dFc44vRkT8S8YTf64/HEqhBmoEaZlM8ysszcFPzFoTK/0yn0pFwRCFxmsh8uDJCbFj/GAUdjnlyju+MjowODgxpUS2koOEWzPqElTC4MiVWAEMDQ49bn/zwjx+am1owIvzMU/zX36m8OMMUCrMI0GR2DPmrk+QsNafgf76Q/vsL/6P/+giBf/3X/xsaGIrHEmj27vV4q6tqttRv4QIccV0A86tBGbycYw4poWhEX+U0Qib0RofBciNH8sjw6PDgcFAKcgHwqQsEN/11w7HEYXMkSRRD0IxP/03xFiPDo/i9MjQ4lElnwFFwMIRjMwb3QLuaGavPZG40Mjw6NDAEvkuJbS553kCqwLn9aAQ+HNOpzNnTZ5ctW9Zv6QcHG2pkaHDoowea/pg0AuB51IzDPntc+m0Ub4Rey/Z2PcH+JOKQTWUwuW+vhtmuSXfnn6N/plOZeCweIbqXO7fvLlq4uLWlNZVMRSMamkgG5aAsQVaCihqOJBKJwYHB0REgl8m80tN07cjwCLhN9wVkKYjKCiT66avtOIqfUVYlhjQgm4+C2zhJlBJx8OE8kBnAgzNamckNbCPDIwPpgWgkiiL8hBSvRbSN6zfWrauTRRnnjUZHRif9EnxnAebbZ+58+5ubI2eaNZ9wByv5nahM+elfpPjvutuEjcz9g9/Vxs+dTAxpkokkyn0iL66v27Bxw8agrCQTKd0KnhjCGyJ8WItomXQGIsANj4wMjUwfb/7lAWCEEE0iBuoaDHGHgRTw+F8u9gsX6hRvd2B4ii+cOcX/MjUwo3+MDI+Q4H8K2LCicoZsp/iOkyPxL1dmeGgkmUip+sRPCNVNqKiJqOBOIxFPOB3MsqXLzpw+E4vCQmuIZzt7Yqb+VuU+V0xYw89xwv8YUby/cMKM/GvqKH5GqpubN/nXf/0rkx6A5U5RLRFPPH/2fMEPCxofNKaTaS0aM0R4VMHDFrTwsfhgZhDIHXMOCvIjf4AGaeQPLRrzur3JRPLP0T+RXGBYIvnLXPPd/yUTmzjd+scIsC0MJ2Tl0XcX9V0cSkR4uNHIKMyTc3wilhg1bCjx+PRW4Ltq+7WT0XkGEeFB3YQqGjSqweczlUzdv/dg0cJFb16/gVjBahR8wNE0RxEo+G+aJo3AH6N/JOLJSDgSgZja0f37DhSuKAz4A4l4Eo3fQXiHUEcKBh1FX/CDA4MYS3p4EKI551weHhk2aqVFY6wTViQhs+vVJkGop6raONs5PDRss9qSieQfozDADJJo11N1iy+UMzw0Mjw0nEymBF4IysHBgazR1wDhC5fnwr9GyZBMQNMjrgTloCLDDJAiK/gcahEQQWJabPfO3ZVrKn1ef4RMwA4ODE76JaAF5CgClOKnoGNGh0e1qBYOhbWo5rQ7iwqLDx/6Bb6IiY/4sBKWJRlVorIoy5KsRbWBzABoafKCPsBuEhb0+zw+XZYfGR0hnDg1TQBRHawShwaHZFF2Opx+n594xQIpfmpu8RmcsXAYyYZHM+mMLMkCL6RTaQj9OjhsjnB50U04KA4PwQyKGlbhkZOQ4ok5DfFzF4vCEieH3VG4ovDkiZOor0fPGVPwGtAichIBSvFT0C3Dg8PRiIbrmx4+aFzw44Lnz55jtPusKS+Q4pHrk/EkkAtq4T/DPrlDK6CjIGv6I2oE3KZrcdSffHcNieJl/FVoMEoWHPEBPigHY1oMgnR7fFpE01EahhFlmvIo2NKMDqQHglJQ4AUSSXFYp/i8YnmgePjwAv9IRKqAD0dQxBMRXiWL7DD02M0bNxcvWvz61etEPBFRI5l05l9//msKXgNaRE4iUPD/aJokAiQkENHSgIb9wP4DZaVlXo8X3cETKxqQ3EkOypIcUkLJZJIIiURUHMz57RBQHrJ8UAoyTjakhIEEcZQaHhkeHB4aHDKVTkODQ0MDkM0j+g5cYpxMZpiHBodHh0eHBociaoTnwHtwJj2AdixqWPV6vCIvZlKZsdJQuJ46xKCqg0PokwfdWwJLTl35M1kUztiDxacSyn7qgOjJOjsQ4ZOgOdy8afPG9RsFHuKfRCPRkaER8L5C0xxFgFL8ZDsW/fmh5Znf619Xu27P7j0YzA9t4Q1+l2VQxwcj4QgE/QAJMefJPZvshoZRToxpMafDGZQgGt8oUaSgQsOkM6T7L3AlCpswbAyPppNpgRM8bg9a0QxkBocGhgYHBtOpdCad4QKc3+tPxBN4yQTDRnYNv2cfCJFM5KaSKb/Pj0GdyLiVrxSPw3Ailsjmd11dg0upI9F0Kt3+ob2osOjm9ZtoABZVo+C0maa5i0DBv2iaHALgWjKZgoBNkWj7h47SktLrV6+jhz982SQRwgaRDOpRLaKlUTI1pF2UUnN/i5L78NCwFtG8bq/H7YGl8OnM4MAg0joKxcODusiPP812DQ4MDmQG4Ofg0GAG9pOJZMAfEHkxGU/C5MTgMJyTHkin0slEamhgKJVISaLs9/q1aGyIDIpkAIASzGK/e4dci5WJqBGWYf0+fyoFtxscGIS2kE+QfNxmUhmc+DGeN3jqZBHmgVBhGI1ETx4/uap8lcPuSMQTiVgilUhN7vGnV+c6ApTiJ9tDJsVH1OjTJ8+WLV327OmzZCKphlSgeFEWBdF85YJyMBFPDhJZdVI8NRs0NDwECplMGrg4nUrLoux2eSRRSiUgEqEpmyNLoo3K0OCwyZWDA7CSaHBgaHRkdCAzEA6F/V5/OBROpVJknACGHR0BvQ05bTCTzgxkBiBukRrxur2SKKVTGVi6CdoVqIlZ8gQ7RAMz/hxyyfDQcCaViagRLsC7XW41rMLlZHQZzOQVxWcjMAjoxbSYLMnmw4Y7OsUHQxE10tvTV7W26tDBQ2TxnYpe4yf7AtDrcxsBSvGT7Z8/R/9MxpNgThPRrv5+bcXyFV2dXalUKqyEg3JQEiWgeBL/UxKlUDCEAiOhlS+S1GyQ+ARc+flqDGQGtCg4TA74OTWsYsiqkeGRZBzczRP3aiMotg+SQlDYHxocSqXS6BohqkZRNkdOT6fS6MQNAtimUoTryffB0HAykRQ4QeDFmBbHJWNfYnnC7zggZbdoMDMILp0jmiiIAX9A4EX8VhgZButM5Pc8EuRxCoQMeDDtAZ+SITCkGU/xxJpLIT5qGn5tKC8rf/b0WUyLB6UgOG2maa4jQCl+sj38h0Hxakg9dvRY5ZpKt8sdj4GTP5PiRUFEog+HwplUBilvvIz5eTLN5qnc2iceXSJhsLRxu9xoDxPTYl6Pz+PykIjPIJKj8I5srkU1zs/xHE+ikIPpPbAq0dvwAd5mtTFO1tpvlQRpIDOAc61I1qlUWuRFn8enhlXC8nCtjiHKs6bkjhSPih3yTZBKpZPxpBIM+bygdg9KwVQyNZAZHBkeMb8zoFM+LkH/mbP9MkiMsohdFvkqUhVZkcVxFA8zQIoMDjNs/ba6dXW7du72+0DxFQ6FIRozTXMdgYL/omlyCMCSSC0eUkICLx7Yf2B93QY+wEfVaCgYkiXQ0gi8YGYlqKRSKaA8ohOAbZ5morY2Zd5UMhVSQjhvyXO8JEoet4dxsrII4vxABtXryagaDfgDsiinkikU6pHcUSGjBEM8x6th1cW4bP22eAzccOoq8szg8NBwOgWm616vNygHk4mkPgGAyn1SHyLYDmfSA6lUKpWAHNNiIVKs1+v1eX3k8yKJZWbSRi+YKvhPKB6Hn5ztI/IpMzyQHohFYyC8C/DJaGRJX40hBYmPSfXa1WvlpeWNDxrDShgW38WT4AefprmOAKX4yfbw6PBoTAMvBVyA37tn74b1G2RR1qLALBNQvKwQ+dEglzzl90901jh7mUqBzzVQg/gCHrent6e3q7PL5/XFtFgsGhMF0e/zK0ElkwLnPLhyFadekegz6QwqYXxeP1njmhpIwxfA2ESooXEO+AMBX0CLamBjMwScnk6lU8lUMpFEq3AwcucEv8/v9/o5PyeJMoReSWfgS8KYHhgZGhnAhpCPgAknWnOc4nF6I5lIKkEFmJ03MtENBmUlrECIsWgk6rA7Nm/avHPHTqfdGVUhsN/gwKAeDG+ybwC9PqcRoBQ/2e4ZGR4xKX7Hjh0b128MKeFYFsWLPAjyKFuBFJ8gUjxKwflL8eNqjkL0ECjig3Iw4AeKt1nttn5QvHjdXp/XLwoiLusFWjfMV7I5FFf8qiHVarEKnACKmnQmkyKTrgYXg9KGeMoVBZHzc6IghkNh1D6DhSXh9IA/wHO8LIEPxWQiadr8oOLFvPXw0DCMH6QyZBQh6vhx7crNn4geqVs6lY5Goii/Gx+LulYQvSFpES0oBa9fu15ZUfnwwUMif2hoojrZR59enw8IFPxJ0+QQACPCqCZLQc7P/bT9p82b6kNKSItqiqxIogRvHSfwHI+vH1rUoKIGtRMgqM6JjEwaj8VBHSxIQTkYDoXB9WY44na57TYHWlgOpAlxT9TkTDqTSqX6Lf0OuyOZSA5kBtOpDBrIZ4g4D8K+sZNOpf0+v6XX4veDnC5LQUmQlKCCa/RBG0ZWUREGBwNNksFgRoedkLt+nJSpH5+oYjnVQaBfMloB/qu1uBJUBF7gYTp6LIuCqATcW+EkAAAgAElEQVQVjF7Q0d6xeePmgwcOOh3OsBKORrTBgUEIwELTPECAUvxkO3lkaIRQPLg32btnb/3meljfpEaU4BcoPotrcp5Tvp3gBjODGSBlnZfRTiaTzmhRze/3i4IU1+KZFGhjSB4A4v44q2G1t7tXDamowEEpfuw0Mis7ODAIBja84PP6REFMJUHxjiqLAaJe/xJZI9fjTclXwrgK5P5PnELAwSkRT5AAVfDsmRSPE/uyJIdDakwD/di5s+eqq6oftz6WBAltn8ApEE3zA4GCP2iaHALDQ8PwpUwMIg8f+qWmuoZoCcCMQRREiAIagCigGA5UEqVYNJZOZXRhNgWKiLmTCXenU2kQvbPaNZgZjMfiXIAP+ANKUEnGkyib45nmNpPORNWo1+0FoyMisONokcaijMJjWiwQAEVQKBgi5YAi3hD2jfEj6+7ZNRm3P66e4/6buz/T8PzgFDeSOz5duBV4MNINykpEjUQj0Tev39RU1/xy+AiuSY6oMCcBrvlpmh8IUIqfbD+PDI9qEU0SJS2inTt7rrSklHWy6CMezGk4IZviRUFEBwYZ1Fd8GxPlLtd8pv5AymkweQShGJY7gYIlEYe19X6vX+CFeCyeToFaJpVKmRQ/ODAo8ILVYiVaGpDxTQpGKk+lUrIEi12Jf5UYrpkySphDI+VnUMXHgMCVQSt4kScyBMfrykCydEAURJlY0UQjGsu4jhw+Ureu7tnTZ5II/pHisTiEMKRp3iBAKX7SXT36B64qjGmxWzdvLV+6vKO9gwTj1i1qsile4AQlqGDwTJO/8o7Bv6XCaNVO9AlgGEoUOOlUCjw9BHwBvy9AVPMwDJgUrzsTtjvRztLU0mRSwGgxLcZzvNcNFpMEQJDcCfXPF3I3YQcYQyqR33lDcof5HnBXQBY6hZRQOKRKonzn9p3KNZUNlxp8ZCFxNBKFUIVUhJ/0S59HBRSM0jRpBBJgRgLfxU+fPF2xbEVLc4saVtGBgSRIXICDjCnAiTwI8slkMp1Mz+WcIq0jLAxcnEynksDIEMyWWMd7PV5wv5wEpU0ymUwmkulUJkmoPJ0EH2SmTh9dAPm8fp/HF5RhgAT9O8kAIN5oboOZ3TqyBljghLGHihtTAwZlBRayhsJKMNTR3rF1y9adP+3s6e4BjwUhWIE8PDQy6eedFpBPCFCKn4LeyqQHIuFIOKT2dPWUl5WfPXM2okbUMKw2lEQJXkBkebLlOV4JhpDR5jLFZ7MS2U8By+tqmWQiKYmS1+OVBCmZAIbHMQ+XrYJ3miwtjRJUWIYN+LloJKqX8Enhcx5JRC+VTMVjCVmSeY43pAbgd5ToZVHGMH5qWPW4PWdOnaleW930qAmta4jvhwFwsUnTfEKAUvwU9Daxm4yFlFDAH9i8cTOuflLDEVz9BG9jFsVzAU4SpJgWm/OsNGEDDapKJxPJsBL2eX2cn4tFY6lkCpU2qJbJpMEPZSwa4zjOzbplSYZBEZkdvgyIemfeED2CBp86xISGKGcEEB1IMk1yZQkongTmVhofNq5ds/bE8RPgWEICA9aBzIAeh3YKHnlaRN4gQCl+KrpqZJS4QFFCSvjE8ZPLli7rt/RH1CgGZ9ClrSyWF3ghFAwl4gZnzRuqQo5OJVMYfiiTziRiCZZhHTYHrD4lq5xATifyfkyL+X1+F+sCb5RELZMk/4JC5pNyxuT3mO4nA9TumPHRMszhRVyLoEW17q7uTRs3bd2yrburG4IWSBBLC6J30TT/ECgYoWkqEEgmU0owpIbVJ4+f/PjPH2/fvE0ELojkp4vwfg6W3UPm+AB8WUcj0WQyaaqV58kO6mR0yk6ACj4RT3ABzm6zo6iODm2UoMI4GL/PDyFw4zpK2dfOE7jMZsaisaAc5Hmd3HWKR9UfHOVFHihei2ouxnVg/8E1FWvAEB68kslqWNVDq0/Fo07LyC8EKMVPRX8Ng9fciBpVgorP41tTUVm/qT6iRkIKGNV8QvFA9KCR/3jm0HyZ58kO8nUyCQ4GUsm0LMkOu8Pr8UYjUVmSbVY7z/NoOWPodvQp1nmCD7rcIUKArtSCZRYfUzz8IksuBHCSAX4LBF68dfNWcVFxw6UG5H1JhNkOcOhP07xEoGCYpskjQGJlJBPgniUSjpw9c+7HH37s7OhSw6okgA8DUMf7iQcVnx/8qEAOCLyghsHhn2lSAhOP8zKjsY0W1TwuT093j7XfJokSxCRKppJxggkOCPMNnHgyEU/GY/FwKAxPUYCI8Fkr6dA9BnozlSVwtdb4sLF0ZenePXttVhuGoyGGkoOTf8ZpCXmKAKX4SXccCVQN8SvSA+GQqgRDbe/eL1q46OiRo2YUTXwJDZYHq3C/zw/zrqIUjWgZMBacp+RuDmmmbN7R3oH+3BOE3IHl5yc4pNXEw10I+Z0Dch9bKY2zrKYP4UQs8aHtQ8Xqirp1dR/ef0B+DynhdCoz6UecFpDHCFCKn6LOI0SvRTVJkHiO3/fzvsIVhR3tHejllXgVBnGeC5gaeV1dE5SD8Vh8nrJYllSOFJ9MJK0Wa0gBo1KgeLJ6ACYsss6cF/vQ9JQ+vyrgAmlw/4DRVNCihoTBEgRBkAQpEo7Ybfa6dXVlZWUvnr+AQPASxGslhvBT9ITTYvITgYIhmqYOgXgsLgkQEPnVy1eLFy0+euQovIK8gOGfkOINRQ2oa0h4OX29ayIG4ZIhaPK8zMlEMpUASxu71a6GIwkjAdcn5jQmRks/6vdYIh6LK0GQ3zmYqOfIFsQCMrUDHgtQASgI8PywTnbnjp0rlq+4e/suxgrGYRL8J9M0vxGgFD+V/Z9JD0D4Jw6cIB7Yd6CwsPDd23dBOQhZCgoCvq66oga5ngtwYF2jRmNaHCieWJh89LbPD8ZH2TwRT/Rb+oHi50er0XhUH8ZwJEsQ5TuJCilwgmGFhbZYwO+gn+EEgUR3kqVgKBhy2B0H9h9YsbzwcsNlnuP9voAkyolYYiqfbFpW3iJAKX6Kuy6mxVHz/v79+5LikgP7D6BbFaKxAWcGGLFobOsP8AEeQ1vEtThIsnNbaP0Md5vSuqXPMt8oHmIQkrUC8RgM8yEljOFN9IfEp/M7GGIRc1uMMIOege12+7Ejx5YuWXrh/AUX65JFWeAELRqDaCc0UQSGhgoGaZpSBNKpNLqIEjjhzKkzJcUld27dQV2NOeka8MN060fZ6+c5HmNo6BSPepv5s0XqjyX6evvCxJsKCPLzofnxBA5v0Ug0rEAEK87PeT0QaRbc8pAt6vRAXaObSIL+T5aCdhvw+/Kly0+fOsM4GPxvJByB8Cw0UQQIApTip/5BSCaS6Cm+p7tna/3Wmuqad2/fSaIeOtmcdB2jeP1N9hH3NUoc1DX5x25xoj7+66ScpxQ/4UfJhCOTeeYnMy5aVMPwhDzH+zw+j9tjULzP5/Uhv4NCj4QPQ80eeF3utx07eqy0pPTYkWNul1sURJ/XFw6Fk4nk1D/TtMS8RYBS/DR0XWYwGolCFB5BaGluXbN6zc97f7b09YeUEBK9bgOH612JAaXP6/N6vF6PD3wbKGEtquE3O27/Om9OyDVTfpCQl07xJpHhDiqdvuWOeH5eSPGftpEMyh9tPv0EicNECwjsOjKwE9fiETUiibA+zk9Geq/HSygeyB0z2teicgZV8JIodXZ0Hj50uHRl2bmz51yMSwmGZFE2lwdPwzNNi8xXBAoGaJoGBNKptBIMiYLodrmvNFwpKy07e/qs2+UmFC8B95NQIURjE/B5CL+74d0Gt1wBPep0LBqLa/F4LA7bXM4xUkmyjWkxLaqZOabF9fTV+mMhWry3pzekhKHV8ZxsNdYzDk2GZka0qBrFrA/MhMGh/tkZ+xEbRS6MqtFwKAyqc17we/0etweFdxjp3V6fxzeWvRCcFikeHEkqoQ/vP+zZtae4uPjsmbN2m10SwfFkOBSOx+PgpDMzDQ80LTJvEaAUP11dF4/FBUHkA7zNajuw/8Cq8tXXrl7z+wKhIMjyYEtJlrwGfAEQ1gyWR1ne5wVxHlXz+UHxWjymxdWwGpSCIjH2MLcqiSD69SGKEGJMi/V092BwIhRyv37hVwePqT3BqGdEjciSjEax6AiMhFUKg3FUNBbTYjGCCdnCsBcJR9SQGlbC5gPABXiz63XJ3WB2VOL5vGBWC1bwZJYVQ4m9ef1m29Ztq8pWXbr4q9Ph9Pv8oiCiL3id3ynFT9c7nZflUoqftm7LDATlIGre375+u33b9qrKquam5qAMYV3RqBkDQgX8hOV1XY2XsDzMtpFJWkUNq1pUA3E49zLyVxy4LBYOhXliLYr1x63b5Qn4A5IoqSH1W+ofixKKD0L8uRyV4rV4LAqNRd03SNygYIEMGhVD3CahORQgZZLNwSBgaOdwaPe6obuB36EcULsbGaxo/D4IYYiDJTo7evigcV3turraurt37rIMKwjwBaCGVYixhfI75fdpe6HztOCCDE3ThkA8loCwroLk8/hePH+xYf2G9XXrnz19LgmSJMIiWFjG4uf0t5286vjBbn62+4mljSzK4VA4GokS2TAGQmJuZC2qRSNRcFAuKzzHe9wet8v9afa4vTzHRyNRLQry7Bcqr0XAEa4iK7EYEYRzo5lmhaG9xEe0IAg+j8/tco9pV6D7dLL2erx+wvgGX/sNPbvP4wY9DGF2n5ecD33t0rU0H+nfiUdSjhjUgt9NJ3PpwqWS4pINdRsaGx95PV78gAjKwWQiCY8wxMudtkeZFpy3CFCKn+auS2dAY8MLHren8WFjXW3dpo2bXj5/SRQaYB4HXkfAQxkI8ijQZbO8hwh3uAgWYi6HwlrEoEhQBUwb139a+ET3AlMQRRfeJ+R30hav2+X2eXyKrBCWN+r/KX1rsRyn+GgEnImi3YvO7yZNE2X6x30HxI0Zv2n0/ayRwDwBh4oxiif6dzCeIauj3719t2f3nuKi4p07d758+dK0sUFP+voTnKYUP83vcn4WTyl+JvotrIS9Hq+LdT1qfFS5prJqbdWL5y/wAxyVG7go0e/zZ3MBef/JzBsxrkCiDymGOA+C7jRTfLYobe5reGOQx1ETNSG5j5PlPW6PwIGLfC0Ck7GmXJy9kyAfPRBoVFbisXgsBiqR3MnxWDwaiYqC6HF73S5QraBI7nZ53EQMz+Zrc3+iYXuM+sdOc3vHRH7iiJQL8EEpyAf4hw8eVldVFxUWnT9/vqe7B43fuQAH9pFxcMVME0XgCwgUpGmafgSS8aQgiGA44fI8uP+gsqJy9arVLc2tKKMxDAsUT/S5+M4jP3o+4Q6fF2znJVEKK+GIGiU6epB8pz5HNUjEYgQKNxMeIfoZWZJ9XjDidjEuF6tnNwuKGvyJrdD3WbfP6w8pIRTkJ6ywGlajarS7u1uWIIqFPh5MR+v+UpmJeAIjETJOxsW6Ph7YgLUJ14/XU+FpOpVDh+IJH52PGnlU5aOjMXBQIIgf3n/YuWPXP//xz+qq6keNjxgnE/AFiMm8XwmGpv+xpXeYCwhQip+hXtQ0TRRElNSam5vLS8vLVpbdvnU7AB5FJEEQcbW6z5slyH9C8cgU2YaVURXIWDdV/EvMNSHbArlnU3wEbhHTYtFIFCR3QQj4Ah6318UCm7MMm03xpmSK7Gb+C4Jxi5Je8kRVZZyMGla7u7uJsalHFuWJ6zbRtTNwZiKelCUZhjTW5SYNJ00DBExlOpHZQSOPihfc0QdsU2lDlG/6Sggy3Qq6e58f594FXoioEb/Xf+3q9RXLVyz4ccGRX452d3dzAc7tcns9Xp6DlRMQydZMKXOP7lAExiNQkKJpZhBIprSoxnO82+X2+/xPHj+pXFO5bOmyK5ev+L1+dC2CfgT9wPIgHQNFEioxROMx6dic5eMDvCzJYSWshlU1HNFttGFiU4tGYC4UsmG4PbYz4UGVnIyXkG1EjUTItRE1ooZVJahIAswfeFxAc+wnCbhvTEoFPUb2aW6XG9ULOGk5VhmjepY+i9/r7+nu8Xl9/ZZ+WZQjqtEi45xPr5qhI5FoRI1yAZ5l2ezPFOgm0NIQWkd1jTl3Cp0Ix7MwwTPRaMqwfCcTswIvyKIcCoacDufV36+urVy7aOGi6qrqB/cfgEmSIJFhAPyLaRFt/AObHH+A/qYImAhQijehmP6dREqLaOgelueEN2/ebN60efHCxXt27+np7sGFixgF0E++xz8miDENgCkXI92wLOv1+PgAKHBCwVA4pAIvE45G2TYK9BTR6RKPE03LBORIxgbjKhghwqGwzuwBcJwCdPYZfmeJrgYlTd0Jj9ePbIhjgYt1eT0+SZQ+R9x+n7+3p7e7q6evt49lWFLtaCRs1HxWWV6LaIqs+H1+ljU/WdxI7l6PN0BieJnL2VBCN+fPUeoHZIw1TfAxR2zeMWwTWtD29fZd/f1q1dqqH/75Q8WqioZLDbZ+G09s5/1eP4keEwWv+tmJRC0ffzD7BLo/7xGgFD+DjwAJbaFFQWND3mqhr7fvxPETK5avqFhd8eTxE3zteQ58Dvt94IJKn6wb0+ESoif6blOWZBmgUDfr9nv9HFkjIxKf9UEZgkKggI8acF2oN1geef/jLQwGakgNKYTZiWWnrnBHsZ1h8XaGBA8qC/zUYBnW54GpAmu/tbOjE1k+m+JZlsVJV9TIf/qFoYbUnp6etnfvO9s7BUEARZGaNTjNHsVHVBhpBF7AOXNDKgeK93q8+FnT3dVt67fB5ApxGe316EbuGMfD0KH7TIfv6LHAxbqs/dbW5tZjR4+tqVizZPGSmuqau3fu2qw29FsAChxOUGRF0yYS3hMp8FJJHFWaYbMo48/gK50Ht6IUP1OdZAhcyUQSbFGkoMft4Tne6/E1PmxcvWr1iuUrTp041dHeCc5teMjoUTZbvUu0N8T+mpA+ivMm149Rj9vjIxSD/MJzMHcnS7Ik6lkWZd2LPfqyN7a4QofneH3NLRljsNgsJYwbVfB4HOeE3SxYiPMc39drOXH8xE/bf+rr7UNCNAYDEH7dLo/fB1opUyOfrUeKaTEX63rx/IWl1xJRI+AbgFjgTPC1MYN0T8Ksk4VOxBA+CwfQpPm8PlEQO9s7Dx08vHf33oZfGx63Pu7s6LRarC7WhWtTgfQDMGbjZ5DD7uz40PG49fH1a9cP7DtQU1VTXFhcXla+e9eexoeNdpudWNBixBjwWxBSQjEtNp64kwa5U4qfqTc4T+9TABHEaJoxBBLJJMRcThAL6xAI7CTm8of3H/bv279sybJ1tetu3bzlsDlI8DYeP+GJDEi084ZxnikdZyu7TX0I6kzMyUBTsZM9BoB1prkMR5/0Q1doY0OI2+U29RLmDrkj2M8YMwSgf/d5fSzLPnnydNfOXcuXLv+P//iPxgeNAi/o/G7I/siPXIAPh9QoURbBN0RYz1o0Jovy61ev3awblUs4AJgnzOgOUW3hDAQua0AEsrHFhgu88PDBw/Ky8uKikpLikrLSsqq1VT9t/2n/z/vPnD5z8cKlG9duXL92/crlKxfOXTh39tyBfQfq1tWVlpaWrixdVb5qS/2W3y7/9vrlayd4A+Zxvt0MBxZVo3rcx3GP6LhIh+P+S39SBAwEKMUbSMzsX3Q3GFWjfABEZkEQ7Db7ndt3Nm7YuGTJ0j2797Q0t9isNs7PSQI4tDHFQNNwPsuoAwj3I2HZUJ4gHZN/kROQaoliBw6aP8kRcyQgQjqK6kDxeGbWf9E+ElRGXsOau7e393LD5arKqtKVpT/v/XnZkmUnjp8Ih8JIiHohxh9Q1wjggQfFc11TFI7AQlkSgxSCkarwc4YonrC5WY0xzVU4ggudvMa88ccgAAI+r8/Fuk6fOr2mYs3NGzdbW1obLjUcPXJ008bN1VXVq8pWlZaWlRSvLCkuKS4C9q+tqa3fXL971+6TJ07du3vv1ctXfb196CgY/VjAslWOuCeKxiASFk0UgckhQCl+cvj95asNKQzDvZKveF/Az3W0d5w6caq8rHz1qtWHDx5+1NjkdDjRBbHpymZMR08M+D7mHcM+3WWoyE2LdcNcHc83+Parf10wv8iArh8+AlhdrifTqqB593q8L56/3L9vf+HywvXr1t+4fqOzvXPTxk2VaypRe6MPP+a4Qm7o8/gEAVQQJo8D3ROrlaAMi3hnmOL1apB56agKIw1OMoNXBpfnE/kdQPa4QBsW8Ae6Oro2b6rfumVrd1e3QJy2u1hXd1dP27u2Z0+fPWl90tzU3PSo6VHjo8ctj9vetfX29DodTpwhD/g5VKmhe1FJlEDtHtXiWhyjk8PzZTwq+g4+chMe/MtPI71w7iJQ8JGTa/pjxhDQnYbD/cBaI6jg0ie0oHj6+Om+n/etXrW6vLT8wP6DT588ZRwMBO3kBSQF1LGYxi2oNjGt1MmMqCHaZylJTGEfdkzOzZblx+2PWY+ANgatv4lhDNhxe9yezo6uy79erlu3vmJVxdEjR9vetbEM6/f5G35t+OGfPzx88JDzcy7WxTg//mIgdvQ4NxtSQmpYBcE5ApYzaPppbOEIOmhUQ+qU5fAnRWVVAC2IREEK+ANotApDUhZWiCHROMG8gs/ju3Xz1ury1RfOX7Db7IYrMVigRAyisowpDW2Y7lUUwgPA0mXQyQgQwJ2s9iL+5kh4v4+CBODTMi6WSLYXfjzB3M7YY0xvlPMIUIrPgS6KJ2JaLBKOQFC3AI/aeZvV1try+PChw2sq1pSXlu/ds/fB/Qc2q403HM2baylRKid6G13KBkpyQmacDONkYJ/w1DjdTrb4rxPZeIqHcYJo8GG9vmkl4vV4Ozu6rv1+bdvWbWWlZdu3bce6gUWQD5zfdnV2la0s27J5i4t1mYaGH92CmAC5XR6UXhVZCYfCKph7IssTFgZLf5JNfh/30zz+XTthNRwKhxWSyU3hLmBEFMLZZhJXz4ffKwS4MYo3ETNtaTraO7Zv275x/cbXr16jCTwGbMJpDP1yY6QEtwck8Atay4iCSD5ZoNW6M1Hiqfgjch9H6yaJf3knBx5qWoUcQaCA+Gylm9lGwAgfAS55eXBmgEaTfX19zU0t+/ftLy8rX1m8cuuWrZcbLr96+YplWPRTGPAHUIWC/DImyCO/OxjGQViecLfJUGRHX0g1pkgh5zDGwMA4GJReydQuKJ25AOd1e9vft//+29WtW7aWrSxbV7vu3Nnz79+/97g9uGIL1uiCF9zA6dOn//63v9+9cxecdhGFNfCdWbiTFE7uiGvBeI4XBVBToFyvUzASsbklVB4OqSQbNG3+99t3QuGQgjmkBJWgHJRECT6PsJ5jA+T4jw/C+y4XC5MQAX/AYXOcO3Nudfnqyw2XGSeDY6GfDHI8z+OEOW5h2A7AMVEQURtDlFHgWZ64Yv44fojxMIwFFZntx5PeP38RoBSfc30XUSNBOQjGFeiu1uWxWqzPnj47f+7ChvUbylaWra1cu2vHrt+u/Pb61WvwW+LnMHgQF+B1/7RoRz+2yJ4I42PW9PpUqj4egIxJ9OzEtRZO55qTul7iB9jngeWmrc2tJ0+crK2pLV1Ztnnj5gvnLz5/9txhh6gUxHQSltejr8SAP/D+/fvCFYVrKtb09fRJooSDCsvghwVsyb7+tYEm86ieJrItEP0EVE7IHTQ22ZL4tzM7nkms/kNKGH2oBfyoVNHX6zJOxumADMqlcfolYtfvYl0+L2hXPG7PzRs3qyqr9v+8v6O9Ay1E/b6AElRwIkH3CUocP4CRKHG+FkXvC/AzpvvEJwGk9KcQveTn3CNJK5THCFCKz73Oi0GEjYgaVYIhNJz3eiCMJ8uwH96337xx89CBQ1WVVcVFxavLV/+07adfL/3a0tza3dXNOmHxkR5shIQKynZGD6xNnCOivI8OEnAfLUP0AEMgawo8L0giLJrv6+t7/uz5mdNnttZvLS8rLysr21K/taGh4fWr1w67gzXcs6CaHsv0enTvwVcuX/nhnz+cPHES1wfpuossXZCuo89iUnTMwBMn6bIUxDh2INGHIBNmh2VZuKRrYkn/a4wvkzB4sF7JDfOoLMM6HU781kG9lq7dyvruMSeZySUu6BS3t/FBY211bf3mLc+fPcf5WJ/HJ0tg8j/G3Z97uEw5/XMn0OMUgSlCgFL8FAE55cUA0UPs5pAS4nkwXEHvhizrsvRZXr96c/vm7QP7DlRXw8KZZUuXVVdX7/t5/6WLl5qbml+/et3T3csyLLA2ELa+lmpMe0CM8VFvIAoS2GXyAs6gOh3Onu6e589eXPv92qGDh2qqa5YvW15SXLJ92/bTp04/fPCwq7NrTB1EJk7BdBI0SxClyEfCkOKYYe237tyxa9HCRXdug7oGKdWYGYb5XkKmukSPP3XVEPmqANWQn+N5QZZgoZYiK0oQ9Cokh0IKZGR5cx93cIvqF5E0DTx8GeGW0EIGmd3pcEK2ky3sg1JrjOJ1HbrbnPZwu9yoz7l/7/6q8tXVVdWtLY9R/eVxeSRRjmlUDp/yN4EWOCkECnTn3/RPriGAQTlItGtVhZioqAofk5ddHrvN0dfb9+Txk0sXL+3ds3f1qtVLFy9dtHBRcVHx2jVrt9RvOXTw0JXLV+7eudf0qOnpk6dvXr9pe9vW9q7tfdv79+/ev3v77u3rty9fvGxqbLpx7cbZ02f37tlbt66uvKx82dJlSxYvKS8r37Zt2/mz5188f9HXA35jiB4DCBE19W5wEQymkxB/jgctM8r+aLHjdnna3rbVVNeUFJc0NTYFfAEX63I6nKj9Z5yMww70yoBixGmWTGgXVCU4SwwrSElgWzRWIQ4A8DsDPzdg9II91H0bO2Bg6vGZQxEWjjPPTgfjsDvsNjtmh90BFG93OiA7kPRRj2Ss9gKKR5dqAi+4WPf1a9eLiopqqmtamlrAnJQ4gEQPkYYr/Vx7mGh95i8ClOJzuO+N4BtQRS0WVcEpmCzJGE2/+cMAABW6SURBVHUIXfiib1ung7H0WdretT1ugWXxvxz+pX5zPSxEKiktXF64bOnypYuXLl60ePGixYsWLVq0cNHCBQvNvODHBT/844fFixYXFRbByszKqp0/7Tx/7vyjh4/evW2z9lv1hT84GWvQMZhOur1cAKYBUIWiW7KrUfSmaWjbmVcvX1VUVBQVFd27ex+le6KxIVabuiD/EcWbcjSWAOOBMUkLMj7YL35sD2pqfrIUPlAIqSqORuYWGdxhdzhsRia0nnVTfYoVJw/IVDZYE5GlCZKlz3L40C8//rCgbl3dixcvvDCKgON4kRfDJAq5/jBld1wOP1+0avMBAUrx+dbLUd1pu2kgj6aQ6JwABWSng+m39Pd097S/b3/x/EXTo6bbN29f/vXyyROnjh89fvTosSO/HDl65Oixo8dOnzx98fzFG9dvPHzw8Mnjp+3v2+1WO0johltgUqCpVIE5UqKsAPe2ShBM2qOGK3lwKE8SCfXHE3N4CJ3hdXtbm1uLi4qXL1t+++ZtlPrRvRpq7U2dCQrRWWxrWN2YBqDGLCiZEYWPCSBrg6PxUwDnS7EQMjagOgjUL8jv5lWfyuxZYjsJygrRndwYg8Xr8TU1Na2pqPzHf/5j185d3Z3dxpSGV+AFNYQh1EmoxXx7oGh95zYCBWY8H7qTZwhENNDUB8GaGw0TYe7QIDLWCVwM6myiReECHDg/IdOtuNwGvBZjCnC6YR/HmW4SkKCRBHGtU8APpwm8GAqGdCdiJl7EXGTsF3FBDLI860a5O+APtDa3rqlYs2jBouPHT/T19WFocrCzdHtJtfWam/U3idjkZaJLIYRuqM6Jqsek+CwDRyLOM06YRzXE9rHBAEcFc+t0OD+ynCHu4HHeGKzXCSbdnd3Hjhz7+9/+Xri88OrvVx12B8wrkHkInhPCYQioSxNFIDcRoBSfm/3ynbWKaMRhVkgSJGBPP/h2BwHcVGIQPkIDEuQm0xsBGsKbIrCpHsHw0xzHKcFQOKz7kwHXj19L6FgmHFYFXiTKd9CtBPyBtrdt27Zu/+GHH7Zv++nli5fooxhXbGFV0cAGBXCTncftOHTd/ZhIPsFgYDA7KtnJCTrFZ0nurNFw/dMEZ01d4KHB5fOA/0gOHGf2nT93vnBF4f/53/+nflP9m9dvYSUXWUpGtDcQgHD8gPc1fOj/KQIziUBBlKY5hEAE/KvA6k2U7ompjIjOgQO+AASPJcoH1OoYWz0Knd/nR2/mPAeRpHQzlVA4YgaTihphoT6HGDoOQ08vUXD1HvAHcFzBAaOnu+fkiVPFRcXFRcUnjp94/+69i4UYWGhsAyI8SOgw0WowO1qpGxOhxoxo9tSoSfHZk6h2m52wObFwJ+u/8COAFEvmco3BD4Y0YvCOSwp0/+9uz/u2D2fPnC0qLPr73/5et66u8WEjOurR3ctwfFAOwvQDTRSB3EaAUnxu98931c5gWN3BOvkJ4SwMT4pA/SHd3DDbvtBkc3QXgx7BTM9cYzvfVRlyMlh8cmCOybIupF2H3fHk8ZNdO3YVFRZVrqk8c/rMi+cv7DYHLosFrneCZ3kwVEejGmOuFXU4uhhOuB4sfHD5rr6IFwYGQvQOEPZxAS2MMMTLJpQDGdUyhu0mrFNFnZXb5bb2W9s/tN+9fXfvnr3Lly1fuGDhjp923Lt7z9JnCfg5zg/RUz1kLVgoGIKRjyaKQM4jQCk+57voeytoxmVFxv/ey6f8fFjDpXAB8Eemzwyz7t7u3qu/X91av3XF8hWrylcf/eVoS1NLd2c36v29HnARg5oTU7mEdjWG7oUMALqBDZyCiXGyqGTP5necgh7TWZFT0egeY3TYrfYPbR/u37t/5PCRqsqqpUuWrSxZuWf3nru371r6LGisSQYeN4TGDobUkArDHk0UgXxAoIC4+KObOYRAVpANU36f3ebBPIGiCLwY8AVYhrXb7ESd7erp7rlx7Ub95voVK1YUrijcUr/14oWLTx8/7WzvtFlt4AqGLJTNmjYATQ6q43WbGd0HJA4eMLvLOBiHzaE72CH/NZXs6F+BZViHzWG32nu6e549fXbjxs2DBw7W1dYtXwampXW1dZcuXnr16pXD5kCvDCwD8Qhx2TA4SqOJIpBXCFCKz6vu+pbKGmoZnd+/5ZLpPgeJ0Yyw4QErGrSndLGu3u7e+/ceHDp4aMP6DQsXLCwpLtlQt+HwocM3rt9oaW558/pNT3ePxdIPAwOLzteIh16wDoIVSbgFr+teiHmNUfEwciwuGmBZ4PS+3r6uzq62d20PHzRebrh86OChzRs3l5WVrSxeWV5WvnlT/elTp1tbWy0Wi+nMAFVGAX8AHIcp4HmGJopA3iFAKT7vuiyfK6xGcPUWOP/CUEqGqY/TDo4TLpy/WFxUsrZy7aqyVRWrK1aXr66tqd2ze8+RX46cOXPm+rXrLU0tT588e/ni5bu37zraOzrbO2Hb0dnV2dXd2d3d1d3Z3vm+7f2b12+eP3v+6OGjG9duXLxw8eTxk/t+3rdl85aqqqqKVRUYcWXj+o2/HPrl99+uPn3ytLurm3GAFT+uvwVHnh5vIBAQBVFRFJiioIkikJ8IUIrPz37L61oTooeYeQH0vaOr3d2su+1dW2VF5eWGy0+fPL129drJE6f27N6zcePGmuqa1asqysrK1q5ZW7W2qnLN2prqmvV1Gzas37hxQ1Zev7GmunZt5drVqyoqVldUVlSCE+aSlavLV6+rWbe1fitG0L575+7TJ0/b29vBAzCJY4WLZt0uCLfNBTgU28PEpSUV3vP6WaOVL1BpogjMCgJhiMJBPPqKYMXPgBX/+7b3q8pX37p5y+eFGVenw2nps3x4/wFE8sZH165eO3/u/InjJw4dPLxn957t27Zv3bJt65ZtW+q31G+u37ypvn5T/Zb6Lbt27jp44ODx48cvnL/w25Xfb9+63dLc+vbN2/YP7ZZeC+Mk0jq5nbHSCo6gzB4MBsFZMU0UgbmCAKX4udKT+dwOJajIoiwKYk93b3lp+U1C8cSPGPGdYEQ1YZyMzWq3WqyWPktvd29XZ1dnByhq2j+0f3j/4X0b5Pb37d1d3f2Wfmu/1Wa12W0OwungkMB0owZTtQzI7yS8eEDkxWAwCDI7TRSBOYdAQZgmisCsIwBhmGANbb+lv3Rl6d07d0VeNL0pIDUTiRsWtTpsDpsV/ETivChZLTW2eBWMJm26I0mHHfjdXM3r9UDIWVzhJRCH+EE5iPfVASBe6WcdDFoBisAUIkApfgrBpEX9VQTIclyk+JUlKx/cewCrtECNA1H3ZEmWRPBoj27f/RA40O/z+jBGObpqcDF6ZCsIKkICYYM9u9/PB3hJkGRRliUZI8RCdJEJE/I7ZfkJwaEH8xYBSvF523VzqeIGxVsslpUlKx8+eAiNG8e5434qYVkmxB1UZAl2gnLQiBwCYUPMJbvfitO48r/1MnoeRSCnESiAFe00UQRmFwElBIG5QyFLn6WkpOTB/QdQHRLXafw2u554QvaRye9DLWiiCMwdBCjFz52+zOOWfI7iPyX6PG4krTpFYBYQoBQ/C6DTW45HQAmFgnDMkOIfwg8qUI+Hif6mCHw3AgUKTRSBWUcgqED0bUXp6+0rKS65f+8B/AjOerVoBSgCeY8Apfi878I50gBC6JTi50hv0mbkDAKU4nOmK2hFqBRPnwGKwFQjUBCkiSKQMwj09vSWFJfcu3cfaiTnTLVoRSgCeYsApfi87bq5WHFK8XOxV2mbZhMBSvGziT699zgEKMWPA4T+pAhMEoECWCJIE0UgNxDo6e4pLiq+d/c+VEfKjTrRWlAE8hkBSvH53Htzru6U4udcl9IGzTIClOJnuQPo7bMRoBSfjQbdpwhMHoECiSaKQM4g0N3VXVxUfPfOPaiRmDPVohWhCOQtApTi87br5mLFKcXPxV6lbZpNBApEmigCOYNAV2dXUWHRndt3oUZCzlSLVoQikLcIUIrP266bixWnFD8Xe5W2aTYRoBQ/m+jTe49DgFL8OEDoT4rAJBGgFD9JAOnlU4kApfipRJOWRREQxQKBJopAziDQ2dFZVFh0+/YdqBGfM9WiFaEI5C0ClOLztuvmYsUpxc/FXqVtmk0EKMXPJvr03joCvC6zU4qnjwRFYGoRKOBpogjkDAId7R2FhYW3b93OmRrRilAE8hsBSvH53X9zpPYcz3PQFJ3ibxsUTw7OkTbSZlAEZgOBAo4misCsIsCybHNTS0d7B8dxHe2dhStAiuc4ztZva25qsfZbZ7V29OYUgfxGgFJ8fvffHKh9X2/fjp92XDh/geO4TqT4m7e5AHf75u2NGzY+f/p8DrSRNoEiMFsIUIqfLeTpfXUE/D7/kV+ObNyw0WF3dnd2oxTvYl2HDh7atnVbV2c3RYoiQBH4ywhQiv/L0NELpwyBx61PqtZWtba09vX2Fa4ounXz1quXr+rW1Z0/e97n8U3ZbWhBFIH5h0BBgCaKwGwjYLc5tm7ZeuSXI6CoKSy8cf3GlYYrdbV1z58+n+2q0ftTBPIbAUrx+d1/c6b2Fy9crKmuaWx8VFhYePHCxd07d+/ft59xMHOmgbQhFIFZQaDATxNFIAcQePPmzdq1aw8fPrx8+fKdO3bWVNdcv3o9B+pFq0ARyG8EKMXnd//Nmdp73J79+/ZXrqlcsnhJeVn55k2b3755O2daRxtCEZgtBCjFzxby9L7jEbh3915xUfGihYsKVxSePHHSxbrGn0F/UwQoAt+JQIGPJopAbiDQ2d5ZXV29eOHistKyR42PcqNStBYUgfxGgFJ8fvffXKq9x+05cezEjz8u2Fq/1dJrgaZ551L7aFsoArOAAKX4WQCd3vIjBLxjVN7S3LJkyZJLFy/5PMYpWf81DtG/FAGKwLciUOCliSIwiwh4vF7MpA4WS//evXtfv3r9UY3MczwfHaY/KAIUga8iQCn+qxDRE6YNAeRut9fr1m/h9njfvHnLsi79dza5Z40E01YhWjBFYK4hQCl+rvVoLrYnm6mz65dN8W4Q5z0m22dfkr2ffTndpwhQBL6GQIGHJorAtCLg9njGZfN2eNzl8bjIIbf5D3KJ65MLs0/IOpfuUgQoAp9DgFL855Chx6cUgYlZ3uRst8dNGN3l8mBmyY75fw+h+ymtES2MIjAfEKAUPx96OQfaOAHFuw3p3eVxMR7GQbLTwzg9TqeHYTws63Flcfy4EsyfOdA4WgWKQM4iUOCmiSIw3Qi43G6Xayzre6zbTTJjc7MON+NwM053X5/bYnFb+t1Wm9vhgMywbtblhhI+n6e7/rR8ikDeIkApPm+7Lo8qPhHFE35nYOt0uNvaLNduPvvleMvPBx79fKD1wOGeCw3uxmZ3R6fbyQC5Y/ocyxv/p38pAhSBcQhQih8HCP051QiM8TIR5Fn4zQJts243A5J769NnO36+vrT0wv9dcGt5+dWSioYVpZcXrbhWsvrVwSPu5la3zfElEd4cAKa64rQ8isAcQKDARRNFYFoRYF0uPbMulnUxsGXgEOOyW633Hvy2prZhacm7+p2uhquu5seuZ89dzS3MxYbW+m0nFi65WlXrutfosjnJFaxRlFkm2ZnW+tPCKQL5jACl+HzuvXypO0vI3TVG8azL5WIY5umzK2vXXVmykj15wfWgydX2zuWyu1xOl8vqan/ranzYtnff5SWFz9ZvdT17TSiegUFibMwwiD5fcKD1pAjMOAIFLE0UgWlFgGFZzCzDMgzrdLKME27Y1d1y6MjpZcXMiQvsjXsv6396vf8g2/aOZSzMu+et+39+tmsX+/vvPQeP/L6s5P2JM2yPRb/WLNDcmdb608IpAvmMAKX4fO69vKj7GBEzQO6YWdbe0vrbmuqWrTvYZ2/YI6dP/6+/XVmwjH3QyDr7++/fPv63/zz193/0nDzBNjU3Vtfdqd3EPn7F2vFyRh8zxkrOCyBoJSkCs4AApfhZAH1+3dIkYsageGBo9sNv164UldkuXgbx/Matq9W1TVu2sc+fs4yVfd56d/2GW+vrLHeusZ3t7b8cuVJWwV69y1rtLOtgWedHFD+/0KStpQh8HwKU4r8PL3r2dyMwnuIdhOHZtnO/3i4uZ+/eY512tq/L9riJffGM7elhbX1sTwfb2sI+fsT2vGWtXf2/XmooLmPPXGYtVpa1A8V/xPEwYNBEEaAITIhAAUMTRWBaEXAyjJ6djNPBOO2MA468Pdtwo7CcuXmb6e9j7Bamv5t58th25bf+y5cdv/3OPHvG9HUzjm7G0tnf0NBQWMacuMj09TOMjcHrjUJJ6dPaAFo4RSCPEaAUn8edlx9VNykeSNmgeAfz4dK1y8tW2i42MN1dTF9XX9P9y3V1RxcuObdk+YXFy1s3b2EePWSYfqa7vfPM2Sslq5jz1xiLlVJ8fnQ6rWXOIEApPme6Yg5XxIltIxTvcIAU7mB67jSfK1z1atd+pq2daWq5vKby1NIVz3b93HX+wrOf951dsOTe+o3Mu1fM29fN23dcWVPF3GtibDZK8XP4MaFNmw4ECpw0UQRmBAGH0+F0OJx2u9PuhPyq4+rGn66srHBev+c8f+XUfyzoO3bG+bbN2dfjbHv3ZtfPl5YXO3+/5rxy9cLy4oc7djvftTntNqfTSi52OJ3ZeUYaQG9CEchDBCjF52Gn5WeVgeJ1licsbXG+u3rr5PLSxjV1ztO/2k9ddL5uc1r6nZYep6XP+fSZ48Kv9pNn71fUXF1e2n/1hrPfQi6zUYrPz/6ntZ4dBAocNFEEZg4Bu8Nud9gdDpsDtp09zYePH/jPhVfLqx2Xrjnedjj6bQ6bzdHX53jb5rjQcGV5ybkfl/YfO+to++Cw95PL8Eo7uR63M1d7eieKQN4hQCk+77osnys8jpntDofF+vRiw+ElxQf+9z/vVmx4tfPQk58PPdi647fSyiN/X3ipeHXX+cuO9i6HzWbThwV7Pref1p0iMNMIUIqfacTn+/0mlLxbn788ePL00rLD/1i6+z8X7v7Hokura54fPulofe7otQBidrttvgNH208R+CsIUIr/K6jRayaJgCmK2+02W38fKGfsDkdXn+P1O8fLN473HxxWq8OG2eawkwxn0EQRoAh8HwIFdpooAjOCgC3rLua+zW6z2q1kY7VbbXq22ex2q5GNc42/WcXQXYoAReArCFCK/wpA9N9ThYDNbs/OWKzJ5fCvT/89Vfem5VAE5isClOLna8/PeLuzCdyUyMcdNI/PeO3oDSkCcxOBAhtNFIEZQcBqs32aZ+TO9CYUgfmLAKX4+dv3M9zyT/ndOsM1oLejCMw/BAqsNFEEZgSBfqv10zwjd6Y3oQjMXwQoxc/fvqctpwhQBOY8ApTi53wX0wZSBCgC8xeBgn6aKAIUAYoARWCOIkApfo52LG0WRYAiQBHo7///ANs1y+xFUCYAAAAASUVORK5CYII=;" parent="1" vertex="1">
                    <mxGeometry x="-43.5" y="130" width="502" height="299" as="geometry"/>
                </mxCell>
                <mxCell id="3" value="" style="shape=image;verticalLabelPosition=bottom;labelBackgroundColor=#ffffff;verticalAlign=top;aspect=fixed;imageAspect=0;image=data:image/png,iVBORw0KGgoAAAANSUhEUgAAAdsAAADWCAIAAAAW8b8JAAAgAElEQVR4Aey9ibtdxXEv6ve9fyDvvS8v98b2/fJu7v0SBjGLQWhAYCabSWDH2InjxLEdx0PsGDseEmwGAxKTAeMYozOLQWI0YAnEpBkxmlGAJMQgoelI5+xxzatXva+qumv1GvY+e+scyQc4W/s76t2rV63q6urfqq6u7v4YJND+myhIVEJfoDSWNzmcn/+rIuV7ARcu/Ws/kUmBstgA+hQZo+zAD6Mwsim0SnfPOQR+GIdxKc+cmT7LiCXNSZhvqyJSBbriOm6mmnK1kMBnxanM8S7zuFLJQwKu47ZhO7HFa0jlOE/iJA5jFVM1uDyVBAXNRjNRiZQvPkguAUAcxVgYLDlQWsUKi5l8IoI0G/VGkaCdI8T5FpsTTdDQlJLyoHq1Lk/MXM3J3MhEnjumkkMCzYYj5YsJu61Nq2VlUso2S04lbtNtx7DhX2QiDIzJeaISz/WlfDFR5FxyRJHiKI6jmDnkFmFO4jD2vSDlHAWb+aaXAFScCBGdTwqiYqVb2YiIiUdBFAVRjqD9MyVuMEo4x0v8MaKzC0MCgR+oiFS0RQEpj0/sqnsq8FyPbsmIopTzj6VcpkqZ6GpIFVSC3cn+tGVaRSrwA7t4uzTJLi1AlLE9ND8IRuknAd/zM8STDFrlOY+74zzwQ2yVzj7UzayiWc7znChwGk5GjFpT9fssV14rpUVeFKI0gXDf8SdVd/uWBFLQtPMBOc9mtP6VQBhEscjQ6EmiEO6TOIV1JEFXG/VGa3L5K3nOjcwz73W+iapTrVTxKSbHKBXKHAVuN3Wx+ob5UoFDV2IBNGIMHwaXLQXItH4CcaSajWamfOvuCYoaLi1t6LfgP1GJ7/l28XbpXPc0RVWcYGvyx/zP7+MwCE2pMf6PozgMyLoSOsRzHMaoQrYZQdoSBVEcxmMQNZcJ7yzOjKqwDmQETsR910dTTz5ZMyhXHrunVJ9vaSFtVh7P9VI9lEeUJTKIjE+Vr10XlaR9jKlIsVzCCDTwyhCZ0DNXN3yl23WTMjZlYT2BwAsyTV4sb3GuYpVB2GJheQpd8j0/X1N+tNxoEdcoYPGWSo/JWoUhAafpZLqlPFoSVvk4UtpczTEghSVBvDnNFqApxYRPIIHLs1iTCDLiiGwTg5X6DjJjrbvHSEZhlL54DHEglEELi4lLZ1NQYzO2SLUV53ZJaRcpLPWiGtWqtbR4sXAWkbHprdsxLWTtBFeKhg4pcUnJXTYplrmUgTLKVnkVq0yDCk1hwyqcKERwm3Y520bmKlKeW4bI8hSLeEn3pCcp1E/zUKt8FEYZgynDVv6HipQe7/IVQ4eU37QFV5l40+PjPBl6A0kxc7Xb7kl934J7EbUkDHvYenb1RaWlpJ2gttbjY8Nb+r/I3GR1gMiEmNjk8phSfeKrpKxhEOVfwnKvFDMcJDkDXFi0bzGFcXDROSKT1YOILKRKiQtLNLjAYZT9kXulmLmKw5D27xKrCbtDZMIv1Hh5aFvOE5U065ZJVaoihm1sPRwVmt8GNNGMLUVkBfUajf3NHak8RThyCaAjROaHkv2FZqz9KdZUrpaascKDyMqUT1TSOSKn1Rc6RU6sS0mc5K37XPls6+fHHzm2GS4N510gcvfdMw5jNNnsT2vOk5wBbtQmA0lWTcMgzFhjOcq5anaCyEZVQOH4OAosM7YIRBYniMjddM8uEDkxiGzpQ0mn4KtkGeAo04hOCz6nAIbzj7FRbY/m+N0iDiO8hO4egw4kU1Mm70FmsyKDyCxQejyPI/SA0QhaI7L5WeoF00xSGfJahJJT5ARrbh6qbWSpvPEuldxFquO5nkZk4UdzbnwLks9wbw/Dy4gLn6C9FumwvZwHw7k2E5hz4q1YnnNYYikiC4dtOcdWkJKkDexH1kpsXUpU0gUiJ4BDSzbZuDcSKe214Iea0TpzniKyPLQt52n7thc4NlCivRaGclGGoipFRC4WNjmoYBlENvS5W5piloQZ16TYmJyz10LKWy4LQzxV8i66J3WNDCJnHqHnh3IS1u8SKilqU/QjsyS7QGQ0O2JEWNNhU+JhLC5dri8StxHZYtvGLlulFXsspWRbmbNvPQq1Z3wMFFIliGzapQQSE5WkiCz8tFDyj6U6RBYf233st7YvMSJrq5Ad27ny/JPccykic58slhcvHqtabJx6zGWBMnPCf32X/MhUUjdGrrwhzliv0O7D/kOVMoncLYaBDCKXMmOeyy8q/XbhkvRO1g8y9IVzNGMbzdTsFZZMSYRCoUPjUHYlE9vUzFZJ+ykshAwil3EunOQ41+42esGIeau7gaGDlqZoEoGRzQByLlcVhEGop2s0jmBfSuJEEzctzvVNFIEmmw3y4snWtBXnuiLZwnaLqFhVR6tye6oG1i1a5jRRw0MEXbWyBjKXaJLDtpGl4SzK0qDUQCgB4aSUc/tqHMXYoESWbifttYmLklNmV90zg8ilnBvi8uiUE2rrREEUxujSZfvMqlrgBzg+NvqAimSzTXKWq3EYh0GogZgEzg+KwkjPD0srEJ+pjdw9sLRpfa6m53roQhGZ59hGzkmTKcyBhwi6dhz4UCxPOUw8g8hMJ1tenjuFyFpjWCJTiIzvDBpnCbSpmMb+xpBh8zDXzaSPwRQiWz1NuhnDgfzEXmoV47R99UAjco6Z8SCyF/juFCKn76HuEZnfZhM1LKJ3V0sbWUfRkbFgvUXtYdEY4wUda3FAvBb2q0w4N2zDZPZadMC5NkxM6yMKU/QbmnLshjY11Yhs/Fx4lehn/mrfGA6lO/NaoNXPbZ3xWlgWtAwDU7gnmeNzDW9SRhJyiRroQHktWOBiDxa1ZdJ6LUpVJSthu3uK2pR7LRRO82hEtsY9GVURRRqn16KUc6MY3Po25+2BxXgt0rBa0ShJpKo1Tq9FW847mNnjsEH2sBCt8j7Jl0gibRBZt420CgOBPVNsxiOZVrQ6/L7M7AlNSTC39l+61MpGTpmxOEcntUw3l06mWYW7ntmTACDpHja3dpocZK28FinnIkMMGTYxFQK+HGuBsdjENGs2Xe0OkTuc2TOVauO1KOGcJjwxXz7FBrVk3vXMHlefZcsSsOUsabqU8SPTJey6PCoXChaf6FiweEtrZ5M15bua2VOx0g4EJlX6yhSWEijxWrCNLKaxxSe71w1f9DImrdCIzBekfFeITBELXcVatPRatJDhGHFWwjbVqKuZPV19S6olDWqaI+9Hpvz8wMgw0ykiZyL1xmry7hA5F1pX7GPZHtgFIlNQwRitYrelHWth2GglOJTB/kNkxrUxX1RGITKxFq04T3sVI7L5bcA3ndqyYJptDe1HNne0/1+c0VjMEG8V/dYdItO7JINrprJpfzCajQ/vJtYCrXteeSTVKxI3AmfXTRprwX1sTEQWyqU9yOK8C0SmanbVPbtE5GxoHXdGCTbgGgnngsh2TVunu41+6xqRuzGYukBkwLdaJiirlaqQuPYVkbnz2H+NKHmiHH/JVQGyXIIKHGhEFq4kIZzHSR6RpUwuQbWbLDZyJ4gs/GOfhIyNTPrBo60UqoxMKIy/JPpNOzdNl9PARxELeUSWR0vCIt4RIpsb84iM9r4148/aZRHXc4aSY+ikminoMMkRuci5VIpe9t3EI+OsqXV3mVvJelwGkSk/HZizwDMyLCAy35Kdo9NPL0Vk69GZt2mHNrJ1ewaRLc5TJbc479ZgmmBEFrbp7ZuZ2SvtnoZzYyNn2rPwQ0LQc/hb/El8HFBELjBrZ1C4hamrfaE0neBixzT6jWo3eW1ku1qJhchctWLTWFUmr4X5za93oyWo3JJDb6mJ91qYJ5MZC6kfmV/5bTgnM1b7VSwirZKT2kZuxTTlT7yNbD0ug8ilMrdUK7/8xHI3pQGyUl4QWXJYl+w2lUsdIrJwTnNImXjk9sS7HMJOPCJbnKeIzJm2QDhtxGIhsg3qQsvcryNMi4RyOZMMkbXplKtOq58fZUTOtSN3vMmGyBh0FeHco1Ff3b6suoVm7QqRE4WWpsxcacpFsQgktYp+K/PGstMmZZtxsAXb7BCbYBvZEs54EbkoE2mOKUQW4YhMqK27RGTBYqNt2lAy+eRhxNhpGd20SnCoRxREuG6HbueSPILgeQ/KSR0gFN+eBmaXPsXueIFPq6gNb/alfJrGrXryrbPynlNuI3MoYkYs9kpKIS7tIQm5JKuoJUfKSEIukTGo54IkU4pxQvLJUmjUm5nq5wpLy5Ki5DcDKha2yqtY1Sq1TN2L5S1mUq+FlQk4zKJpQzuTNCq3iAMflPsymlA19ZykxZ4uLGQt6EkRWa7mKFt0Ujc6lynaX3IvURt7Zs8ijltP5HaxyVLDtrM+2kYWtovMWJc41rvT1ifV8hzaZkGICDNSd75EPSgdNRbZyJXHRRwBLtEWysVbrEsZPzKXpKtxFOfCJJig9loIhRzbtsDtOaROytPyE+0T4/JtiKMM042WdGXblndoU6pULK0Lk41Mlxk6169bf9mll1126eWXXnIZfy+75LLLL738I/G97PKfXfyzt996G7uG0ST2WqR/RZQUu6ObUASYi+u0Iuc7XyHCEBMGIa4gMo/D1skRF1uMglvrtYYUHiPclfqk1nh02pbExqKpqCuFSFodrdoLHPKcWNXsJB7Z5lPFqjJasXOEeJppNYdexEHhZfz6Z71NC1vQphFZmrKspnwjPtQsIheCwkk+QcJpichWMwlXJfHIEiFnmhhVznxSRG6lWqaBGOtxpxeh07qaXCYMItxYzpRvp1pm3VDL7kCVTUnFie/6ruOlOW31tpMVIkIKaOI99NOa5tslG+iC4RBWhFipngtxin7raIUI3xIGEfru28jQ6hQ88d5hD7IQmYR7zdXX3Pyrm9etXSffp9Y+9dS69R/67/qn1j+17qnvfPs769etn0LkyY7Ipu+lfdL0DRvX9hGRGVLLcE0/bkIQ2QC39Gqb8ylEljV7qXw+QohMRgS/Kq+5+pqVT640r+qP2P8JzL9q/tiIbAZBdpA8OVsKxqa1d0RqI5vbUzSxO6e5imuRc6vsTbEUF0zhRCWNWgO7tPm2Iy4hw1S41HZI3ak0qYs2sl2XHCf2KmrcjdOsotZuLuTKrKK21lvT07WNbNi2rfu0K4rXlZiRt4V2cDEz7RGZ6ZeBLEuM7eLUJULj36IMU8kTqfLoNxGOLTFcIZJdGGWKpdUstZF1G5WNkIzQVKzQRjY/Wdo55u2r2kY25cttZHNV0fJ3baOULaDXbn0qn5CNjC4R40BoTzxjI5O2MJ9mFXWqz5gviGx4KyOe3jJ297T0NrWRhbhpIJGkVIqXQelYSa54UbUyrY8bgeUEJWQ5IcTNzJ4Z2SEir/ioIjLA/KsWrFuzrmgjt+o2+2uFSIfRb/LGHH+shSAaJwQdSqPfcoXtgHGBe+aN9ZsgNRPgYThPVHexFryBg8YXy5vRooG63fuNPN0iAdMpUuLWpZZeC/EniAxN9ZFt+RRlaF2d1LEWRc6tSnWxZm8q1sKWpGn9KUQWbcLEFCJr9DH6Ub5CxNYkTltSTGf2xLY1kIQTpNnPfkRkwlN9hgg/tBRhDT8cdG8PBdguy8MxW3/aRjY7oJIQtMk2hcg8s9dK5qJaU4hs9yMjlhJEXrVyldHSj9z/U4j8wUBkUcwiyBrNZjs6v4+o3FhM8BJtub1YwM6h56bHfHSAyOi1sInbvZHT1tUpG1nPPGdlnq4Q4fw2rd/9ktrJFI/M+kR+k2sWXDOFyNjcprFz7h47DC51VNkdMut+Egsr9SObrpinbE3OcsTCZIi14Kn8Ax1rwWam8egxtvJ6BOyoFB/Cme3+kjGbieq1u3chne7TXbiUzyB3Kp5t2MyepGV0Jv9WI3XS1neeVslvVAyFJ87gtVaqJZY4xdV1EWtBx27tr1gLBVOxFtKvM32f/cgd9P1CrMUUIpf5kUXKBwiR9Q5qFKbdQZ9M4mQ/Rb/xGW7VCs3sdaBPheg3gynW/siiqUy8PPrN7BGBrgBKc0g7RqrSgToEW3TJhJHpktZPFSu9V6+RIe1inth/BfJUpDgM1tDBubgWXzwqjI741IG3fAtzaP81pPCwR/5KTvtEHMbpVG1phKIgMgeo8Wl15h1WJK5lTgWiMMJDhsz7AwtnzQh77lTF5uAllmGuJP2UBuUT/PCAElGVNsQV7g6h3yXEjDzXzOxldpROZ/aEeJEZSyz7MfqNlwtkQusKMrQMrPFFv00h8iRB5DDSawoMmrTsNuTT3E+IzIf64L4WphvY4RDCkn01DOj0WNPh+ZKJtbBOoiGCreKRwyA8bNph6ffQw6YdOm3aodMOPeTQaYdgYtqh1lW7pJU++KCDDznokMOm6Xv59kMPOdT+MtnSv3axXPqwaYch8YORuNDPlUFWiWf7uZLTKnHoIYcecvAhhxx8yDf/5ZvtFMCCHl5tmDG2rcaym4aHFHrNnmmgiUVkPbNnGGhHXBCZXyTmFqCVmZM6+o32z+tuLcKUjZxR0I5/TLAf2VKy1GshzFhXdbexPIkRH2wjhU3/STuYVRhPqs+ds1ckLqT0bpzW7yJxuZ1G6PmdhuSqJCxieqEz51iUxQJCXDCfVjN7URidd855eMtH7WPM2M9d8Lm06pYYUwVg4VPQGDq47I8xllOvjnV1XKuojSMlz4aZ8MQzRLqd2RPerGqm2mJdnWA/smgvbW6lzxCRx1lXi91Tn5YthS3Oi4VxJ97cOXutiU95LUSomJg8iKxjY4W7sZp8PyJyV+fsUfQbhl7Kpy3nU4gsctKJVohcFKNBZL1pRp5Qy98qImeOXC9StltPdhmT8kU0EU7oBJmuTz4VykVO7OCcCd9pyKpIGo8szFhXiyBLrjNbTIWl/9bFKUQWoXadmELkvO1DJlg+YqGorJakMzayNUeaUraUdQqRLclRshSRS8UoOMhRInlCLX9PIXKqikaTpxC5pbr8cS+MC5Hbst6914L8yG1pphfH6bVICZWlFHSFyPnDMspISt4UIosodGLyI3Ke48zvLs6i1tsY2WZwhlT+xzht5Dw589sY5t17LbKeIkOv5P9J7bWw7KMS1ttniXesfbF9u0rE5181f9/X7LV97hQil4pnCpHzYplC5LxEzO8pRDaSmLj/GVL3md4UIrcS3ZSN3EoyH7j8KURu1WQfIUS2RHDtNdftrxUiODrAAEPegoOfSeqXRABRAhDHoGIIfUhiSLK2NGOxwmyKn4poCYfF9ziTZuQy/6r5q1et1sTkBWCeju4n4cvckua05SFjI3O1Ywp3jTC4VcVKb9Zn05d0W8roY5SdhqRkjnmbFLqGaSLCzpQbiwnba2E4T5B5i3N5HHs8i0RKcyiWFuORbU6IVBzFH9FYCxJg4Afnzzu/VGblmbYAy0tQLjcT7QWcylw02ThVc5d4bU4bqval1GvBqqJjyfFwNRWhkmMQBbPBqtIh5xTj4bke7sYpH6aT+8tXqVIdcW6qn3otmHMKds4oOXd/ZliqIMy0TmDf5+g3KSM8C00jh4816g37e8UvrtiPiJzEAGq0krz08uZXN7yxreLicW/O7le2VUYUOHv3QBSB4oB4bDbNpIhAJbv3vlNv7gIILWiUWo4vQQ0z/6r5K55cUa/Vc99atcbfelVfkpxatZYrXPzZqDeajeae4T3NelOu2mLntFzqKsHEd+/a7TTd4o3Mns2kcC51Kd7FOY16w2k4TtPZvXO366TEJ4rzZr3ZrDd3bN/hNJwcD6Mjox9dRKaDNc85+1yn6RZFncvJya1eqzfqjWIm59RIe2vV2vDuYWl90Qc7oSlU65LZiqbJRw13mm6tUquMVhs1zUOOW/xpLpkb832tNJ+VfHTvaLVSLRbQ6o3cSvfsnHOUmNNwRveOikxYjDnmi8/tJIc5H9493GykfV9uLHZPin4TwE7g2quv3V+IjIDpjI5s/cEPr/zWt/793374w2/94qa3t7wOm5dPv/BHT+2Fl9esAifCxakMrWhB6tdpDBADRKCuuumbyx/rTd+x4wPh3N1xFC+4asHqlatLpmLZnjXb8vJe6bIKq1g+n0MSdpouR1niBpgmwl+WVzHNXH6ejlgxdoKI6+g3oiw0dXw+2SlCipcLo3BtIqVp8y7U204a4ryO2TwFzW1O8yMoXQgGakGf/Mg1bFBDhEmFQfjRRWTa0XTeefO0SWJ1T635uRwSHcsQm8AYfdLiuYSKled60vp8FqW9OtFSQl64qCQnRyr9ySxR7KPeGpS5onY3qoIj3KLyp0RKlYQzSRUxHpn2iWciQpZNb/7J1IySj825rhq5RHDRRxmHXCZHf2yZCOd0fhC3S45z6oa03s/U3ew0ZMDp2mv2JyKH1UXXXvLTa3p2h+imWLVs/a8v/XH1rQeOuvDbq3bAA0vuhsb2Xa89/Zlz/+6UT39ptOJD9c2Ffbf+4KqbTv3UiVf/8oYnntvwP//6/7ng82e9va2uzWfD9kT9j4gsXgubqGi59WDdQnax1ukSr0Vugak9miNHBPaZTj60iEOv2ZORoDBsWtqmpD0kdlabdNFrMRbnqHydfHJeCwEaWrX1UUbkKIjOO/e8zsWI6NDxh9c6p8WLqmIToxWhaeGxUqnXglRRg6Ysd2ZDROgzao9FU1+X/ZH5N2uLqLfAn6HWafc01U+9Fq04N28dvE6L9c2jxvg/47WwlDzzKjIysRCZOLvm6v2509Cu9z97xKFr3967GyBUAD6Au3f47fsOv/Bry7a4v7r++mTr839z4kGvv7lj8b1PnzL3XNiz7rwvXbjgrsdHd7z4xa9+5aHXR6+47vL7H7qvTr7kMcSwT5fnX7Vgzeo1JbeaZrM7CdvIJYXLsjKIzAVIHfVC5Jym0rI63C2sk08BkdEJb7bQTlvdIpVffmLjuKV2+g4bkTmryHl74tbVTBI5p1OduKLMNsF96E8aG7kokEwd9suPMAjnnWtsZH6CaCBDj/1YUgA7o31aRQqPwpNPjrI9WdJtgBrgeQXFFSKZ1faWUqs40UcqCzNtEjYiG55N9zFjsgxx9Fy3oacvGVIZRCa3Ndqz/C4pdE+e+xmbOJXIIzK1IFNOu6fh/MAi8o7KF6efsrHm7kUvRIKeiHDUf/vBg/7mn+7dXP3NDVdte3rlEf/9TxfedudtC+8/6M/+ctt7j1140X8sfyuGyjP/ecN1Q9vh4usvf+zRxR0KotNiRhYAsGD+AUVkPcKSTUksTnCX4U70id/nstMQ4ORnB4gc55fVyatbEiK+MkRONakAEPkVIkxHyFIddUUTgEhVZWaP+gZaH3FyIBBZoFYSUmVJZNmW7PJEGzrlN7TIzXkt5H3Joua/lqqUrNmz2S5wNd4VIm2JlyJyRlsszvXJp7YY2hDfB0SOs4hcSrw1ImfYzr6oaBW1FY9cpGxVc7yIvHLFKtsStMU13nT9/Z/+w7yBFRv3AIShB434iTsWVjYvPeiCf35wk3PLLxdsfXrN6cccf13/A7f1/e7Bvv7a9hXfvOLaFbsBRtdffP01fdvg4l9e8tjDg5AE+WCMfeZMRElvxf+64idrhy6HN+6Gt+6BrUth1wrYsw5GngXvTQi3QPguRNtBDYMagaQBsQtxIAEk+B6Vrz3zSLENCvUpxHASdKahgOOEvnjeDznXiBPGU9zfJ6JZaamX8MnFbPqAtBq1Bt/Le5/RYxROk0o3tihEoYrM8d/4BL4k3JuSGNlCTFZrDfGpoAJLNU3C3IFP86MowhlbTONMLsXQBBROg7n8wuCHKpyj3Ttax9AZ8yJhR14YTOi+Ftb0vpEod0TTb6QC5rLpAsSWXNW9F41SqhxfsAw0kyFk9iWRQ2SiqYf/Zmc73WT8PqYzW3UOV0gaXRLCGJ3Yi9uzcQ4pZ444NxMXwKPiedMMUz7VqBxxKoD7WnjpWdQFykb7qXAcxVF217p2xAWRmZPsQI0fhLcbPnkzP5S/ySklLo5d13Htw7FKOBc69t5vkinS4ITk06rXzKlOpZyb8iU2Mp7qZBR1X/SpzT3xtndeeuAvT/zCm8OQJMFPvvuTO/7rhpG3V0879+uPvNnoufGX0ftbTzlmxnOb6i+88M5Bn/hE850V37l8wePvKxh5/pLrrlu8DS659sdPPDIAUTAxHBop6IYE6PvFd1dceW6z/+xk8HS16Gzv9guad36hueQf9y7+2p67v1N96MfNJ+c7626O/jAAG+6HzY/Dtqdh7+vQ2ArBMER7IdqD33gE4gp9qxDW6VuD2E3cKvgN6snYn1USUwhZEkcIygx5pf5AzSaDA+kcK57WNkRkVa81hYJKEpy2Q6KtEDmhOQwjRX6AUibWhZSY4hTxtaGgUmuKHY84y+8S669oYwzgRVGYKJqJhRChKwohcgFCjrpD3ui5FMlIiNzg0Bk27bnbRIGaWD8yvRvS7smtQC8USwim81I5YzsxnyxxrCe+LQEjNumdxtrO1EWdxtl9cohMwkWAEG+sNAbxqGKFbihzFesj7ZFLEIfj2futJWXzoH3Z+83cOybxNPrN1FFqrRNs71Bj5XbjbEVcBIuIPMZB16lgc2dRtyLO+W1sZOFfKBxYRI6wzz/32LK5xx8x/YSj/uO63iABb9emf/rRFc+/U/n94iXQbLz10svz5p4xY87fvPZ2HUa33vjb/g2jKqxt+c0dS1bvgpXLFn7jH8968b2RiHvCOP9yFxJ7TcHCX/zwgZ+f4w+dBv3HQB99e6fDwunQcwL0zoTe2dA7B/rmQN9s+nsS9J8EA3Nh8BS47QxYMg8e+Ht4+Gvw5PfgqYvh+Svg5Rthy13wzn2w9fewcwW8/wTsXg9734CRt6DyHjR2K2c08huhp4IAvBD8SAVxGMZ+FEEcEpKFSRTFfhh6UeSEkRPGXhCFQRSG+I3CQMVxTF7hWsOJEpwvZbhMMKabkd6okRgLKon8UFnHqmIfThK0ZcMQ/zJkWv2kUTTZS1AAACAASURBVK2jxgjiWJe0JsklHP2ECgGZiOKLAZSKfGjEKoQIDWyGOHyKSiCE+khVR6lbZCcQkXE4QtxonKWBbIxvRPogT4ygIb7ZNNAqgAASl2QI+Be/VFBFEU6AoM8tfYVI9SUxHs20EbkF9IjYebtUnhjQdqI2ezmqQf+V8sh4GGsbmQQukCTokEYR8ObLIdXdtA4ZlWXEqcA4Ebk9cY3IuiFQsVOebYdvC0QuJS7VHyci54hrgRsJF2zkPOdS/sAiMo9jgxokrsIxP7IBEDdIxxFL0EyLMcwNwEsA6FBjPEpBOW4CFSxchaTZpD42Hp3P38t6H8Fvrrh4+W9+4j5xZbT8x8HSi9z7vuHc9ZX6bX9XHzrfGTrHGzw7Gvi06j9N9Z9CAH0s9E2HviOhZxr0HAa9R0L/sTBwHAzOUINz4sGTwqFTvcGzGgNnVfrPqd9xYe3OL/r3fzV88F/jZRepR38MKy+DdQvg2Rvg+d/CSwOw4Q7YdDe8fR+89wBsXw3DL0J1AzibwNsC/jsQvg/hLrTEw1GI6ig8FYpBECfQcHyFXlmSIukqmcdkjnJf4jqTxJMoSaLM+BHhRiFJjV4GCLAlYmhUG5gQuDGdEzP5K5c0Imv/HdrqSRKpOEiCeO8maG6ByMdWxvP7yKkSRY2RUfKDGFJEcAIRWbe1s+uhob636qhXzQAeXr9mx66doNALgOiCamjcgvw6wbgkDysfgb9j9Pabb2yObrpz2Yph1r0kgQjHMxRhT7eSB0ZLKa9eXf4WRBaZ8zjXuCwIeU1zECrpA2FNW1CBzHb+uu3orRxHMc7sSZMViNttjccPRiQZU74lcSpQ8FrosAS5yyZe9FpIMUmkfCZ4QEmnjgU6xK8jzk31XcfrlHiZ10IYNgnTQNSVmo0mvuc6kOEBRmQcAxu1QfY0i6yxMtZjRcROggW0y5V+0VgR23QiPzIsDeGmK654eum94A9DcxvUtsDo67DnRdj+NGxfDtvuh7fugFdvgeeug3VXwGPfh6X/BPd9ERafB4tOg/65aC/3z4H+WTAwGwZPgqGTYNFJMDQHBmZB3wwYmAk9x0LfcdB7NGJ37+HQdzj0HQF9R8HAdBg8AW6bDXd8ChafCUvOUnd9wb3nq8H934JlP4RH/gMe+Xm48jrn2d7wpTvVGw/CO0/C++th5E3w9kJUBWjit7kbwhpadsqF2MFAlsTDBH5dUOR5R8xGycVhEodK9EMPEhSEEVqJul24nehvfZ8QGVUxQUMdnRgKos2POauug/degGAPhCPoIUG7JqqPjJQh8sSt2eNusOeFb5w565EdMAIw3ISf/vrGl179A6hQC0Hhywj1LQ7AdyAGH502TfRzK9jxwnunHXLo7neXXnDRVRsStBnQDRO5Hh7mFkMUh6y6OFONg5PxfgSRpUfYL0jpP/wYbcZiIK3+0oxI+pPzLZ7GO7MnD5KERXxcM3vFatpdfZyrqIvEWbwmvxhrkZehNAct4dFwb1qhTeHud+O0iF5z9TX70Y+MQ2n0vplXhZ4e4Z/IBaXYgkLwIO3Gdid7LkbEQEAnzLC0YDxJfKJxtsbwyyuvfnblGnxOhONaiCMIPfwGTQgaENQhqCHwRTWEwmgU4iqEe8HbCbV30R2x/TnYsip5Y5n/3O3O2lsbT14/uuxnex/44d57vl2/+2uNxV+O7/myP3hWPHgGDHwKsbvveLSyEaCPQIzuPQy/fUdC/3HQPxP6ZpnvbOj/FPSdAX2nUgKhPxo4tTlwnn/7Z9WSL8B9X4Lf/QM88h149lp44WZ48VZ4fxnsfAL2rIHKemi8AO7r0HwPmrugOQq+E7ku+kTQPKTGIAEqg8i6IVDotK49jpxqxcw/kkXJ+aV/IY5DegEg9keQhPi+Q6gCqG/Y+9APGosvhGeuheor4HtogMZQGa2xAwNtCNPJMSB3AnesTwCG//DtM058bAdUFCLyRTf/6uXXnk2qu35y0aV/8d8/8d/+/M+Xvukt/v2TV//gKwf/6f958FHH3/H8MKjtSwev+/j/mP6f/3btzGnH7Hrn0Xnfu35DBM88teS0Yz/+//23Px1YtbM2Ct87/dSz533jOxdfX1XxxKwl3RdENk4VRg0jxhQmrD4yhchaLFOITP3f4DHiKiOt9eoxiEygy2pF8Es3KRyUU2HrDkvT9jWJwKRR/torr3lq1VMGkiiTn6UNKDKjjLonhFf2xDQieORD2ICgAsEIBLsg3AbBuxC8BY1XYOca2L4C3lsGW34HbyyGl3rg2Zth3XWwaj48eTk8/jP1yA+j3/9r+MA33bv/sbn4b93FX2gMzWsMnuUNfjrsPxN6T4eeubBwBtraA8eSp/to6Dsa/d09R8PCoxDfB06O+z4V9J4eDl7g9n221vvZyh1frNz15eb9/6yW/QiW/xyeuAKeuRmevwVe7oPXb4c3lyAz7y6F9x+DHStg9zoYfQHqr4C7kdh+D8LtEO2Gyjv47okciD30cIu7BBMc0UHvTAJxFQU49yVgwH5cBOVh9YeeaHC2N3R6+PAPYcNiqLwJkdsY3ZuQswXdsmjfIamJPEOEGRh+8QvT/+qi6+/9dc/vfnnLHedc9LNnX3up+v7G22+6HpzdA4sWfu66+3oeXnPR1+ZBc+PNv/rt/JtXw449/3jmGS+9XV19/zOfOeqEHe8+es53L3u1CZd884tvP/3w9q3vHT7v3za9tONfZ81d/eymvQA1AD8bILOPGtkVIlPIMK5ksz9GRaURMhcnfMd6i/qUjZyBe5ZM17txmttAwX62kTXwWS3YIskQaYByf+Cw9WAD8AlcfdXVa9esxUvyaC5nhjYobpPDu+0wb3YmT3xjjqA5XfZcnz2WXJjRTIdRhQCeD40RqG6HkXdg90uwfS1sfQzefgA2L4E3BuGl/4KnF8DK/4BHvwvLvg5Lvwz3zYNFM6H/BOg5HnpmoGOk7wToPRb6jsXMgZNw+rHnRITvXp6iPBKdJAOHQ9+h0Hso9B+OtnnfdBg6EW6bC3eeBnefDfd/Hh76Ciz7Biy/KHnysmT1fHjm1/Dybc5zQ7DpEdj6AuzYAHvegfoIeA7NPHo4fkeYJhRWEbpHIg+/sU8xCQqSEFQYRXhMMbqAbj8V+o+EhUfA4Mxw+UXxtrXRnk24UITH2vgX/QUTicjsq9nz0heO+6tf/nbZPfc82bf44XP+/fr1r78J7q5f//SrXzv78DlzDv70tYtvXL6ur+dqgO2PLLl/6a+ej55zvnzmV96LAd51v3L87O1bl5/7bz94vQHn/vX0L516+jnzzvtfM0977tFnf3DK+Rt37twD4ND7OqMPWi26/G8Kke03ighvymshovjjJHKYeECYWDB/ASKyOLL5oTYcFxE5xxidgoPrL8xLRc9cJ+A6Lq9QkkE6gbJSuKdAlKgAlK+/6KZsogs4qINfhbhOsXTDaLH62yDYBvF2UNvRjK2/CaOvwK5nYMvjsPEheHohrL05WXXdyAM/3nn3d7ff/tVa/xed3s81e8/zBs5yB05zB06G3uPht0fCLYfBbw+DWw7FvwuPIO/2Mejm7jueAH0mesMHZsOiU2DolKh3jho4Nej7dNh/djhwbjR4frjoguD2z8O9X4el34Mnforekpd+DRsHYNtDsPNx2LMaKs9C8xUIN0H8LkTbIBoGfwTC92D195OhWdB7ZDIw3R04sbHoDFhxMdReQiOP3Ra04YYfqHMnymuB45sE9jz/jdOPX78N4yR2VePv3zyw5ZXHV973my9fdnvc2LPunmu/cONdNy1fc9vtNwBsfXTJvY/8aj1s2vn18y98zoP6lvqXTzhxz9Ynzr7oJ+sa8M9f+dbots2RM9x0AXaFPzzz87sazRHA/VhwC8Pxf7pCZAmHEBSb8iNTE+SX1OZ6sfRxk/+R9COPX1n3M4UF8xesW7tOIzL3LiuWSI9HmAdauoozVrkPHbGjV8TRvTwPjpvcNR00n439jZqAjps4TqI4CWMIxKcbR5GKcE4JYZ0cJioBH1SQJCFguZAcJng/BwzHkd+ogVtDbwlOmg3jSpaQvCUjL8Dweti5Ct76HWxcAq/fBs/cBGsWwMorkkd+HC39fvj778UPfkv97uvRvV+J7/q7+M7Ph7dfEA6dFfSdEvWdjIF9/bOh90S0xBceg76RhUfCrYfBwkMwwgRzjidLfDb0zk36PuUPnNUYOLfSd87o0N9U7vhS4+5/ch/+frDiYlhzFYaUvPhbeOZ7sGgGLJyGHvPBI2Dw8KR/FjzyPXjnEfDehhh9ykkMgRdMmB8ZBRjC6KtfOf3EVdvAA6i58cU337z51UdeXn3f+d+4ftXyFV//3Gmfu/SWW5auGFp0E8D7y5fc/dDNT0Cjcs3FP7i2/57eaxZ95ogTdr+38vx/+8ErPvzmVzf13XLdksV98z7/9W0vb/3mGRfsqtRq5CovaENOOTr7aSOyUZeS4Cq5xGuRBZEtjZW7tH1A47Y4Ung4qQwEC+XFmMAiJbEWNAFBEwpMPy2fQOiHvkfLBZg9q1ixcIxqbnnAC5xkXIJkI4f2ipI2xHHS1ayiFkG1KM+MeY5nL1cR0UnCrmYURjizZyjj3FiWeIohVKbZcOy65Arblw5srEVnCvlHLJUiMus3TfulMY/k4tTsdYbI6Czn8AVjI0sjEhwDRfeHkQoCFfgKvBi/oYrCuBGrIFII1VQyURg+oTA+UKEtFuHg3o2Vj6qhoNnwcV6J50qtv9rNy85eXtwQkys4QL9C6AZeoxZXd8LeLbDrNdj6LLy1Qr3xCLx2N7x0Kzx3Mzz7S1hzGTz2Y1j+r/DA5+Hec+GuMzAsZGA6zkb2HEkubA7ZPgYN7b7DoX8aDBwKA9Og/1DoPxj6DoKev4Ke/42Fe4/DzN6DYeGh0EOY3ncY9B0CfdPgtplqxc/VtvVeCBDFidOYd865XW2g01JtEOND8Lc/fGf/hgZGv3m+t/bFNe+NvB0Fo8tv+HX/9T3rX9kx+OQrz2/e9vqrzwPseff117Y8vy2BxtbNz9y94Mr1v3/p0QfWNauvPbh6xWgEyfY3brv1xqtuunnVxp2+D2vuW9b0At8s7mvJRucXDCJLXDAGVJkFIDrBqmgCcnF/bZNTEqVrrygZfzxyjhMhTl1mvPHIbYnreGTz7snLxNqakVaWx7ja0JjACIJlxEW244lHFiL2I7QBh0ht9kduzbkUnkLkTEeZYERmM8QYTp7r8eZBDMrYg3BhHc1q0bqOWOEGTCFirlIqUCokdwbGKdB6CopN48AQ7aE2k6MqcRtNDIvV8Q+03o6bn9FZq0KCvl00yiNctCexhComX7CDMSThKIQVDCCJdkOwE8Id4L0HI29gKHFjM9Q2QvUNGH0VRl6CPc/Du0/CpmXw6j3R0wv9VTc4j15VeehHld99t3LvN/fe/ncjQ5+rDM5z+z8T9Z6c9J2I62t6ToKemTg5ufA4iuA+FHqnQc/hOj00x7v3a8Ef7gJvF0TBeROFyLqFA4hDjIXAV2lIQw9eFIOd1o3RdsYBTwSJauB/ISh0jvsoVV6AGPg4JsG1IwHg2pzEoXAS3qwbd4WaEJcF6QzuNHTePAHZkg5v8NcGGunVZIJRPDKBlNBhm268K0TKcE0ePV5E5phrwzYaj9Z30iIyLf3HGWlEZHp92myPA5GT/Tyzl0G/yfgjRWTTwWyN15ot3gxaBJ2vhu21aIHIfAtCAzWhNmwpFA2RGSe3ElpijftDxGjgkQGGqkkQLI8UZY2VU6+h6Yvhv7xUj61iYzXrkoq2BAmTKMCwEJUoXNrcGkrMq6NWqWLf4OeLuY2rAmOkE/vk6R6FcJhWsrwL0TvgbYD687hS8b2HYNOd8NJv4Klr4YmL4Y55gL7sEygi+zC0qXuPgv4TwqG50eLzGr/7FrzxO/C2Q+BMGCKTeyjmBSCYNgHD5k0Z0R57CLXUsr7vRjEN6k0BqjmBdaCRHBs2CHl5CC7e00sUW0tSmqyTRGojE0HUkzIbWbdOavrZKEDjaLxLty8Xpr8pItPPdsRxhJdE2X0tbDOQ0/YjcIWItfykHXGacUHiLHnhEM0UilmRHE7k9rUoF4uWmLaRbcdC0UamJRvCIdrIgYlPpxFwrqYpnwrXPaLXojPOU0Q2NcpRxmYypCwbmXTlmquv3Y/xyJ2o4x+1jEZkFhxxUoLIRnY61iLHsCCyAW6UNX3IRjY/GKyNVun2EHXifF7kY9MnRWHg0NnEKjc5mtuC0W0SuNVnjG+XDj+JdRZ1OgbE3o7n9LCxpquD/R+HihYQRORgRZ79CPZsjO+4APqnU8jHNBg4EhfI9B4Nv/879fxNsHMtxHs9jFj3wK9NmNeiw2oWi9kSslSiWHCCcwwipw1txJ62r/BmXzIdnm9krEmJGC4nSzwyIa9WWsMbckuOvhL9nCSxFiRwPW1otwJ1gXx1uF77Hv02ZSPzzJ6lH3gYgRwRhq9uYyWN6Ufm1uIOQwTziMwoxmYyo7z1XN33pMlN02KTS6bpgXjOXr2hwbENFvMlWnGk5x7lieYNwV3CzoYOEdlQiHjdmuGNR/xolzrv1B67TA3MRK9x/zToP6F22wX15T+HV27D7T7CrQDNJHZx84vETaL6hNnImcp8EH7sMyJnK6cROZuJA51JEo9MDlZtxWeZRBOyaDFMJkTWHEpPNPyXVmc/rNmz38NjdvgPbgGA+VdR9JuRL8MTG4PsKpoARJZWNBqphzDGM6gfxN46k4kKSq2A5q3sZG/aJZH9kTsRPq3KR2TPfeRe4ZALjBORyXCPkwi23BPfdb4amhP0zXEGzoInfww7lkO8p7lnZ+x5uIRPx2ZHAEEUTpzXIlfNyf+zK0S2BuMZC5osTdxiO9eakwaR+YXBeyTlOI/pLOA855MGkZnzdIDIHUd3TzrCOCfzrm1kokizAbhl+6qVdBgz2zjG8Jn8ajwhHM6/ar59hgjiL+0nyz4jbAl5de+rjcw0NdajnxgPoua5cm4C9pMUM9kzqBGZWkfzQ31Sn+okqNomkUNkgXUrfIfZ013C3rE+LVzwWhhVydnIFIMdxs42ePzHcPtJydJvqVfuVnu3UsA17ilVrzgRRUCRz4a81DEof4J345wQ9ThARLpEZEuFdAwWAhxO4qo0QstifZLYyDz6jEO0METzUeXQvxzrsaANbZMHkclfx64/m3NceoqcG9+9yHwfEZmMsvlXzV/55EokZUadOiHUP8QJBVdecdWaVempTjwGicPYnLc4EYjMIzL9FkREjrHnECibWWzqS5lNb1lraZqFzhYh9KSuiHMCCvdHpu3Z2gCxdSkMaFc9VncBWfN0rLUUpuUG9VpdN7sUprmm1Ezgy0Qwwj5Gv6mwj4FZvrf1lcazS2DTfVB7HvxdGJ8QJgnto7y3Ugki3gkTwxpwWzql/CCYsBUiHziN7QaRGQUoPBZ9+jLewjhi1FuaMMgOhyYPIkdhFAahNkfMoDChFZt6qsPmfDIhchiEURDhDKR8yTDSR/8UnJBOw8E+JR/pX5Iw7x6a2aNcJr3gqgV/9v/+2Sc/8cm/+B9/8cmPf/KTH//kJ/78E5/4+Cc+/ucf/1B/sY6f/MQn/68/+b+ffuppkRv7B3DPQNo3gN6HRnL7bCNrzUNbgLuQjcicyeePCd7p5xIKp00ubdktIreykUW3xovIUepXofAMCAOo7wangUF3qoFbfwQAgYpD/Ld7dE+ofEh8CtpIHJzXi5zQPffcCYpHlub8oCS6QWR8H9M6CzTNTEfmBOntBwCRZf5DTAFef6HzpdUmDyKrhHesTzk33sW0exqcQPa7tpHZIrZ6eGoiMdhTnAqSblVG8omPOIwDPxBJtruRggr06YdCpFWCiOPbKbevSuZJmR/aBdwh59TktoN1fyByUYZi1+AlHprQVjvpkNPK1343u8no3dCFjXxgEZlaP8aNL+IoUWhIYBg2zvcp3Dg5ikdHK7inZYKrX5RKlEpispHPOfe81EeUadUP+4+uEJn8xfpsQzOCYS3CIdQk9iOTdwLX7GErZzmf1H5k6noY/SZxe9I9c3FWoqdTiJyKgjw++LMVyks+QaHv+ZMCkQk0U0RmmGZV4ICzSY3IISJv+sG3Ln8TFcdRiNsKcQ8kNKmMVsTWkHFD4IfnTiGy2FkCWLa6GgknGDJMuMZaYe6a7IhMnm72B2JVRMn1QeyFOclJYiNzN+R4ZOY5yzmacaYJdBNNIbLRVQye1yc6iyq3SpBY//iIbFjXC+f5pzQ5v4St2UXW4+5iLXLxyKa3px4xM/7F11jXfuQkCgM6Zs/WVg3K7DVHvDZmhYpVhc+i5uLGk3MgzqI2op50/3dlI8tunIICJvGBQWTDsADZZLeRS3esJzXS+z5KjVi39gWRx9JK2zM4VllcIzDltdDqxXhHItPxyIVXQsZrYYTbESJz4W69FmSDYMiHuZ0HEAcGkRPc6M4gMp6KlGhENlY/+9anEHneefMEoTCRUxurz/NUWKYwtewUItvj3ZYyNLId795vJPMpRNao0uq/D7mNzNX+ICKysfrbIzKuGv8IfqZs5Mkcj0wKqVdRi3IaPZ1CZBFJeWIKkfO2FZnGND1oJGZshAmykaG91yLhs67l4a1t5HnnnKedG6Zwy/9xi5CC865l6f18wbxs6DGmp3b1zClEnkJkNOnJ1OJuyT8zWtSVaincJjVze/sfZcSRE9tE4jIKd87FDUHkQ4AiaJLnPNM95J4WCdrKBOfTzKc81oJp8iiywDlPs6Dzml2lhhRuMIY71qfEZRZL17RQHutS/JRlpn5kKW8csilxuWQgOE+fFCCfmfMjM5E2xNn5IM9qnzAze8WHJnH8N+fPQxnqsxhjSHyEXetjToEKcFdofxgXYRMyIzX5WuUnIskMaY9PrMALlBtEQRj6cehiILW1+wwywVsQdflkQuTPXvDZ9DZpMvFdiCQo9hFDemVhApWRHkEKkFLijUc8PLXVfHI9yNZD81wdDpEtWapaeu83QxtlkFtVKJxnZ/PkDky06LZ6zUumaOsfLYigoMRlZ90d+qEO+rIyy5PYQFEm4svoW3n0GwB6ce2Kl9PF3I81G81mo+k0HKeZ//KlRr2R+zYbzVxOo96QzGajWa/VR/aM8O2Sn70FH4rfekpKHuc0nGa9WavUatWafbvTcNymW63U6rW6EC+yjbcT8ewTsRY2Nfsqlcfqj46M5vI918OcWsN3fddx67VGvVpPv7U6kxUZ8iOajabruK7jMidO03Edb2TvaLNuKt5oFjnXlbJkIszYgkozrbYb3j3sOp6m0Ia4danJgqpjKzhNp15r1FC2DaeJ8udMt4m1GN417LljExfGrETavlambgtqKWfn9p0iKOG/Xq3MnXncaXNOOmXWyXNOPGnWiTNmnTj9lBknnDbjuDNnHHXO8X91ztEf/8y0Pznr4P/j23P/pPerR/Rf+uXPnHLMiXPmzppz8pzZc/g7e9bsE2fMlJ9zZs+ZPWt27isl8/mzSgrPnjVr9qwTZ8+aMXvWiXPnzJpxwvS5R/3lOUd//NMzDp4785gZs2fOnjVzzqzZs2fOnT1z1uyZJ86edTwXprtmzZ45u8131sxZs2fNnjMLmZ970tzvf+/7qGaoYHmdoYZLlZx1A0XHrYbNqq+yjsnPJnZz1OHRvaPSF0jmfIv81a1G6oqZ3PXcpus0XfN0XRi1hfWwqbtnZbQiTywq+T50T9GcaqVaGa3Iz2JC+lcj7URaeo16w2k4jTopebXObBAFXdmRvSOV0apoYAlxhqxG00UZ1hvcU0wfpP6OWIFQQFiaSrje3LtnhJoyj6XyFHnux/TryGB86U+9QkHKyEtMb1Fm3mmmgIpV4RwBNHjlq+1HKp8nzm8SWrvM0ZRcQNvLZD7g28k8q32Cn1hShqy8vBkLaICn5gA/InuMQmp6mAXQmri89MjuS617QwQAfNfXE6QdME+c5wWLz7I5F+IJNBtNZKEDyljMhDqk5WmSLd00QygTzUa90SlxNrRt+mxQW61vN0qikmqlqoWXYT4G1QDlAZ6jSofvJRHUKvD+m/D6clh/LTz5HXhwHgwdBn3/C3fB3zgQJjU8V8kSQhLjBkyaOP+XeQSJq01+oTDuj4x2bwzQBKhWdr3aWPMreOzfYcNdsPN18MI48HDVC+3CjDuj4q7LtEVqEmm/SoFm2gR8yfDjOq7mvHiLvkD/UR/kfbfTbLnFbghjo+nuaQkqz4Pczgnbam5zFz0+DCJtD+aIlP0s9n2BiLIEWab2GSJlNKUutprpTNJ8vUSbK2Lkk9DgOzOELSVuRIxEIrK0pRhd0kcHcDG5hINvPw8scjWbMLtxmq6uq1FogxRiDE/6f9PMdraKVD7WIvtUuzBv15DJoR96j1S+wLeTQMu9FqbD50GW8atIndsjl58gaNqtwrXWZ8/weSJmcY7ef9b2qxA1mvim1jKvFtQG+riOZxNnbMUJcToAQjeYLovL+bAupR9DUC7i3m+1hjwI883wNm1QKU3gW0Ic3yVl3lh7XwsmkgXZHClaamg9rNiH5WJrrwVuCo1nU20F91XYsRReviX+/Q+iu74a3fG3wdC8oPeUqG+m6jsOj4bqnw4P/j3sXR+oAPeTtxsoTmqVGj5N1M+IReRjX0pj/rl8sTDnxAqXXiRhpbY3fvZmPO/qzrOiu74UL/0RbOqD4SfAexeSmopcasAYz4FF7LHWpreibAACyIGGvHHJQovrStFVOniJonftakoVOCEyp8itotdC+9BYevbjyOeQSikLFHktTXB47nu0uzQ/MVseq5MjnutBUoWyBPkKLL+fValiUsN94QIBSyGXHAuZ2IySIiYrgail18L0feGf1A8FblfcUCr+n0HkVE2zgss3udXh01ss2nEOkUWxRBFt5rjJ5XZzScckcncSvWzhR07ZyHKeBgCJgIQHWm6RRQAAIABJREFUSViPzsUjsxB5NwlkROxTegru0lncQS23bofrTo/I78YpDEjC1B10kDzhI2e2l2ECzTrZyFIXoSkJuaSj38zDWDJ6KED7HQuE8S1liJwRuP3mkIhpQxZlKDwUEmk8srCnywfejg27n128eclFzds+C4Onwq3H4wlSPUfgaVK9R+C52n1HwuAx/sBpybobwd+GZ4FEEZ3LomklyiAyZ5RyYj03M/ayFS9lm859IdWME6jUm/DGbTBwLB3yPR36Zrj9J1duvzBeeSVsWwqVF8HfAVDDM1E54C+l01omRlE9h/ow32IyUZgFwfIqahSyXJK0PFGq2fXeb0neuyo0JWERD4Mw8Kz1ukWZG71DFOETAiWnWFgeQZcCP8h4b0VR5UYhRfrMFpXmji+RfqZDCimfoBmb784ibRGsqenYsRbCEqGl23SxgewP07QrSFc7QGQah/LxnbprjY3IMXot5CPMFR5PMIfrBqQsahUJugSR6bmlNnKmz1tS1ohsP1fSkpBnF1ZRMzOtEDmO6BwBuZ0TE4LIWm9oerDYu5hzqSaJa3IhsqwxyamdyNwkWiNyHDsjwbtr3HXXwz2fhYGZ0HMMLDyaTvabBr2HQO9B0PvXMHCsu/jvox2vQlSNEl/hbvcEdtQWiYLUJcK91zw3VRjTfLw1jzb6WsgcN0ECP07cRHmgAqdWgeGVcN8XoWcW9B+Hu+/3zYDeGXArHQi75AJYdRlsvA/2bMCTVrK9IHV/WduJ6EknfPED9uHsLSnPWfZwsype0cu14+6Zk7ypJl7sbn/k/YbINELKAEv7+irwPR8PJ7U/uQa1OgXGWcm+tdz6KbCYcuZ/mnj3tCOC6ecos8zNoztCZIPjiUryOw0VIdRwov3IbP3lfDeoELzYquSw29QpXPTXxFGMIxdmSPuac+XN+1x7wdIxF3YJahhdZ0MEM0mgGpFNfo5n3aMM50VELinPpIi4h16LLDOkwfxmztnIeUTWD8U9t/Adw2TZrKa0jrXg/DKxyC285B+JsFqQQFpyTqTQYWooi0fFvsW+qr1dhkN8ChssyDkJmi+x/iWALhHWacq3yXI6x7kgSykncjvvWpdZIZKypHArjLAGzlYYfhpe/E3z9s9Dzwl0It/BCMc9B8GtB0PfXPXk5RBUwtgL8eQS82rnSijIeS3k0ZJgzrllKSjQ+BbKGoh23oiUChWeiRU36zXw3gmfvCrsPxl6j0ETvu9otNx7D4PeI6HveNV3cjR0tnffN3Y+doPz1nrwGnQyn4IkSig6ogSXyW/QOSJjRcq7J+1jJd48Fiz9jaNYD6J1a2ZKkmRads/SBrVVS3stzONEzpLAJjLP5Y0PtZJTvhTLJfAWG5ENfb5XCgtx5JMR2ZRkYOH3Lk9QcV008wpcp2NEpk0O7BGVbLFr933mip+SIrLhJ8+5yf9YeiH7rhZjgSqW2RnSDmcRlWI6/BePH/d8yUHOWhDX3isxqYzTSnbkSxvboEOKyIRWbYhzMDLHbGsGrEAcYUnzSU3uueTqNa9HnojL7/1mrmpfkvnJdDj6Td78zB5f0ohsygsDktAUTB9DXyXLjftVGxkWdqwXmpLQ1aSnY6bxt+rXDBksGLvD45WsRaDnxzrgnN8l8lBWyvRntgopIhvKwiRKns8cjABUCMHrsOE66JkBC6fhUda9h+Bp1rce7g59Dt5dppTvYRQ0HXdn3tzcE9BGppYlTUuPpBOWtMxJIIzI+lKZqvAldv2DAhRLVEvefNgZPA3d2QuPgf7D6bDtadB3jFp4HAye7g182r/vn+ClhVDdQGem4kmIkIRxFPGef/ZfaXEVqybv38jt1boHteyeWZ3RgqVun56zNxbxYvfEnGwjpm9fotb5yactOS/QxycS8dRGljbNFTZaXeRcEFmvhiUKVi9InKZjDzWK1WQeWJI6+o27ieXMTKPfjKCYkwwis9iznIvmd4PI8r41D7OZForcJycQkW3MVXHiOl6HxFNENpwj+mQFkepTt4hsvydJxCyBiUFkhUNFmfErxzVb+SYWkcm+YEERaCa1as1u31YyZP3Wr8BU5oX3sWmCtohMJ4rgcSIeNLfDK7+GO2ehy2LhkdBzFHqT8Tu9+ehl4G8LotgP/FDFGNlA3YOnheMoroyk2xi1aX2sEclcixqZL1GVXMVx2+g4gMZb0eJzof8Y6J0O/UfQdzr0zIb7/zla9RvY/iL4FQgcFQVBHAZAOxaTX4LnIRjfzV8zlIyTrhHZCFyDJv+0RI0tODkROce54Tkj7QOGyMZWtTRBN4oIECQeeb8gMnNAemwzYT++xbDIaA8JNDVm0Qea8Vro95WRO7+spDweJSBjfBwqkjFMRPTgwuItReRUcPkxl1DmIxSRiCBm2VBUl6dRue/6MqLRgxoczuOegXidONHUiEOMnTCva6ZDHdvyWtAT+ZIeFqWcZwSYE4t2ozPndIvdOvrdnpIie838ZM7z5a2rGa8F5+uZPX1klNybIrJ1u1yVhJYhiYIRWWTOQpOSdqIdIhMgQrAXKi/AuivixedA/9GqZwbcfibceRYsnI5+26E5sOURiPwoSlSIpwj7ABEJHCsYo/todKSCL13DvP10TtuX2EaW9i0WzuTQWzBGz1IFVv4E+mejywJt5MPpzXEcPPot2PUYBDu9KIyiOJaQTR7tWV4g4UESSeeIbEZUInDT+lpdM9Wkh5LXInUqlnRPg91Myu6ehnhGdYVtwFiL0PZYlhA3bcHdU0aTyH9Z90z5z3ktqGto1DbYYnOCG6hYwIL0yXvbIvrN2MjSOgIakuDhF8kQDe2Q+j5Xx0hME6dM4TzjRzZw0Yrzjmb2CJJoMRIzV3RLG/cdVycKI2wV+RgmbKVJL7IXLP1NKZnayipuQpF9mdC6NsQZNO1Jj2Jhm/N9m9kTmma8rCHJ/NSqANBFrAUa4HGqrNLqohysAZbQJnhmTx6EnYTOohZ1bN/6xLkNgthJhFohoWf2CvnoqQhHYO9ad9l3EXx7jkTIW/ot2PgrWP5tGDwJ+k6EB/8WapvxVYm7LWP30FIxT1SRqoxW8e3FH5Of4cfIkMMW9avOdLBMScMkv2NUpOrVeoDEfXh7ibvobIy46D8UBo5WA3Ng4Pjk9jPiFT+D5msQ4aG0KjA9CNlpEcJl0KpzrwW/1SJbyds30GSa2aO4UiMWlrkRcl7y1HYtvRZyl2lqlAFvD23aF/VQgykZTJxvyiNostdCygtNSZjC2H68G6cUNpfSvi/KRrZOK69FWk1DoQNEpjmffNCJcCkJYQ4gCqPOI2B4tJjezZzZiJxew7doF7EWFOaFyiofEZOwvc+IzE0uXleBSOJcQxK/TswjukBkkiFa6/Ipcm6aEIvsS/SbIc0ooG1kE/1mLuL/XUW/EedYffkUObeEnyIyF5PCcQXevT9e+jUfnbNHwdDpsPyn4G2BeGP8zJX+wBx/6Ex4bQCCPdjT4hhsWZlH6+UnwosQtxgwZVGGeq5GskrLm3sZkeNEgWqC+6r3wD9D36HQdxDce667aoE7eDLO7w0cB6t/AZVNEEOA/mN8CnVCfbCgPCqTIJ9+h14Ltiu76p5dxloAWgb2x0ggRRPranfRb5EefWoCbQROl7pG5LIgLnbWp0+kVAkiW5UqJqcQ2cjkj4TIOEKR7mQgDB0LxXU7Hw5ENnXEWneJyHiWpZilLDRj+iEekSWLx+rRwjYVw+joKEJqTAeLsH3nbYONd3n3/kMyNBt6jwpuPx+euREqL0PsQDwSvbXUGzoruPerMPIWxDQUY0S2eWZ9SQA94PIp7fDW1X1AZELYBNy98VPXQ+9RaMivvRxGNwerrmwOnAaDh8V9p8ATl8KeTRC5MaExCaHtLgeCyCI3y3FnPCcE7lRA78YpFWEZ5nDTuvoBQ2QRgr1jvcnUngGprLx9bYOJ6y638LS2+akvFm1kKSAJS4ZjI7JoPjVHxkYmPWzF+aS3kS0Ro0D+WIjMOwRx25iGyUe/6bZFm+IDbyPbNe0WkctOEjIywxbkxcUYQ4HQAyOVUfwPVyhTYzdG4ZlfR3fOU7ccC73T1W1nwut3gruV7owgjqLK+9WhL8NTN6pYzzrwqcaIdLnPAUBkdJig8xo2L4Ohk0cGvgDvr8bl07V3YN11MDQDLeWeGdHKKyjWAtWIvNpWtH6OZ1Jy7bWQGhXfJXKJBjcfZhtZ5GMjMme2FYsOiZHbjVdEh0zwvUaMJTayoLwkTOGOvBbyXGrQFJE5X2hKwhCfQmRLcq39yHr1s41T6BLZbytE/uheC7um40Rk6TZG55TsPoGBubCr4rsJRHEIEEDtNXjsRzDwKQwm65nu3ft12PYkJJVYhegoDhG6AdRbd18Ow89iyxFNDqqxGtIkDwAi02ZwiMi7no2WfLnyu/8E5y3yEnvgbIzWLogXnQn9xwaDc8JVl0N9Ix4nSJYyblwnvVFcXsy4bSObnEzhbPkPuY1sGhNnbnMrRHIyzIqlBJFtgetm0NQnEyJz3yvMcqIGmEs62MD8LJ0S1YWpk+iZPSlfGHMJZSyOM3vGJ0DzSHgVz1otXyHuez5u9dkJcZrZ00NRU94M+tLJYptzvYo6LYwNRnHsKYfyaJx8s+db6S4+rd2e5MUhPF3yOAQ9JZ7yoIcw5hL7NHUgh8nMcW43kI6NNSXbNRBBmD56nRHN3MVRIsKtVDNRSb1al59jECc0yRMR7adn4QYP3Jci3IdnpOLGKgS1B4ZXJyt/Dr2zoOfY4NZZ4aP/AdtWQjgaJoTWURKFSUj7sHpvvwjOdoRn2pFTN5CpiGaValet1Npynio50GmztlRbR4mgbc5+ZAr0iRCR/R3R6v+KXnkY6jvA84MwwJ2SRl8PVy1wbz8b+g8Lhk6Dlb+A2maImjiKyKFJlvnURjb5bVpfryk1Jds1EMkEQ6Fc8vaYW/LETT4Wx6DAjPLnCufammItyCfDRNr0/a66J1HDvm/vNNSGuO625AGne4ts47vR1JQR2caKYutLYd09C30fdzqNMnFW+haFG4HZgioyI8THjkdmcMQtia03TCZUkOIH9VWqYRiEnkvhNXQLPj4XYyixtNSBtSC4MK0WkRUiWA15Limx7/oYa2Ey2xGnPmZzjlLOcSKLU4j4ZFghwlWjI7fTaej21Uz3RxaxtKomaaFeCUJVZs0zU/a0QsQoOnOi4u7ikVHCVqtZype1CtlUDpQzOgz++/E7D6oH/wH6jofBGcngabDiUm/PLggjCHGbnjhRfhyHGHIEita9AaYccncgOKIKmbpjgm1nlVRHq5LfrvWpymEQorvJ0Cmqis6hWCs9swdRiJN2AJHvbn4RaqOAaBy6oQqiBHwf9rzur78BBqdDz8HQPzNZeRWMbMCb8Nht+5VshEM9qLtYi0jZSq7jkbMKoCtFxLtYIVLonu2Ik9w6XyGCwBLGnXJOxD3XQ2usTQOJ4hE4aoOJype2ppAigTcR7tsRN22kzP7IrGmkPHyjvUIkJaWSZr3ZXrWk8BQimx44hcgUdo3W/YQjMqOD9BYcNCQ++42TEEY3wuuL1F3zYNFJsOgk985zkhf6wRkGnv6LeB9L9BUncazCOAkp6jjCYRTv9PbHROQE2UEHuALEX4AwipRy0FJCh0YEYR2am+NnfhUOnQqD05JFJ8GqS9A5EzkZjBDhTCFy6bvkI4TIpAHZ17V+dYshrfglTCU5s1heCvOCFhwWmfLFwvZ4QQc7mxE02/YcHEqD63RkgR4E8iXZG7C2Jx6FMW5NYjgRrLHv0ldpSlTbyKY8MmPta8G3CzUM/Jewf+uWKCR/C70/tQVKVzvd14IKhwFttJuSzS+EYUExM+lunGl52/4io9VcQnuO96/gHDYK0BpKKJ925DCZOARmG1luLzi4hBNuVr38xFDAMH0V4QaWGnTIZ6EQb/FYEG8zPP+b+qLPQu/RMHCyf9ffwxuLwB+OQzSCCZTJ3GV3n4pVEOHMIC6wTjfejPFdEucPEKERt15FbWpqtzunpTUTlaCNbFxMpWN/+3a2kXk+EtWErXKAQClIPL33Jksk8cB7P1x9RbxoLgwcpW47HdZcDo03IWoqhftb0FtQv12Yn5zXgrXIfrrNp4rJRu6ggZh4YV+LvKrYxGkNaldeC9qN0zCT45l+pj06jshGNoVLZS4NxDuUok1tyheJ43vRXKXl6ekijmJhu5psI9tYUSxvE9c7KJhnCam0B5lLXCn0WnS2UmlqZk+79gXusXvIh7oZ7RloKaW5OjWzJ0MtIxL8X698Y7MR9TJQgNsA4YsxwcEkQirumplAbQOsuRT6T4Jbj4C+E3AByHuPAYUhoKOWz3MyfYx6SBSHIc6bIbgr/FIDxSqJYkFFi5cDM7Nn3j38YB5kaMkgIpMrFiu7xVt7E/TPgb7Dsb6rroDK68g51iOCuInuGFPZFJGZKAuTH5R9HNNHy8D+2CU5bV39gEW/CecTPrNnvesn08weV7htk8t2lCKctCtK26fXJnSFiCU1fMJU9JsI3JbMhK8Q4Tc8t2n3sRbaZND4grNg9FVo2zL/cROGV6lHvh8OnQw9x3g9p7qPzYfdz0NY4dBBXP4qPNB5dSpCUw79dNYbkxmcFIhs9B/nwXJtpBJcwBLUwX07XneNO3gaDB4RLTrFf/LnMLoBIh/3EOVZyilEFtFJwgh24mMtrB40hcgiZmsyl/O4v9mzlmnZfUDkeFxr9oiZfKyF4ScfJW7412cjcXvzq44u/ZHX7Fn6l8Za0EuOLc001sLKRMY7R2R6BK6JMluqImV0p5KTgfdywwDevfDOQ+GSL0ULZ0DvEfGizwSPXQ7Vd/GsDQqMizgYw8gZicS4gSXOcUf2EEaXIERGX65VRbqUmN04uWDR7LDBvbhmT0ChLKFjLfiS9eASRObnRglELnibwjW/CAbnQv/h4W2nJauuhMbbEHpYOa4A/e3ORkZ301g2ssVh9zYyDRA7kSHgkcedr9fVEwC6Gan9iqK2rnYd/WavNixStlrfxFpYNS2Wt2RImxyYwpbmZfq+xXk38cj0YBwSZh3q2KkMT9rdY362m28l5qZiLWRLChYsS7LD3Ti58Ac91sK4PmlxnvgfQtyXBF4dhMHZ0HscLjJecmpz7a3g7qW3AKk8Fo5BUTgN9wEOl0M3XBJHIXZctCop9I0cFxG6lyNUWMY1tjTZj7yfYy2kj2CC2c/ZyBphMbwCy8RNqL7urr0OBo+HvkOg/wS18koY2WA6NxGhCIdOV1FTHF6nEQvEzFSshWCdNB9t7fRBibXoKgJmUiEyGdp68k2/eCYu+o03A+KYxOy7ijZg1RvO7SMik72m45E15+1emZMn+k2/2vEFz5NWBEPkroCoDvU34md+q5ZcCAuPgL5jg7u/BG/cC7vfRc8yaQ7ESRJFkQojPAieluShgamNgySGKIgJjZE++0ASXF2CC0jGichpPLJpTem3+YQV/SZdWidoaU+ayZXCmMsQPeBK4bJvvw7198J117tDZ0LfId7AydGKS2HkNQzmM6MTbSMLJ20MJj0la01fU1A/vRFRgPzVLE0qRMbuSWGL1tglL2pxc5Eo9l/0m7GRu4x+M+0rLX5Aot/sJhcVyRnUIjhicbLYyLrJ0w0zUTvbcE7HTdqjTpwepbV5PCok5TZDB4J7GzS5Vca/PzLSIUTW+4KSzNsPYiYPIuOEHVq4SbpVBfKfoM07+ry7/EfRbWdC/yy4dUZ49xdhywN4PuCIozwAn5ZXIwr7YRIGidKIbFSOxRv6lM8mMu0TgUtyJgSRxWthnlhUFZ3TFSKj2yeB2FWRR5OVtH1HDFDdFqKlPAP6DvcG5iYrLgdnM569TWa+ipXbqKevoraI3NGaPa7UJENk7bWYBIisYrUvO9bvF0RmZ4clFI33PGCkq+hhtHdQI9+iLmbUN70Lt3NusULEGDu2w4/cl7ZHR1tViEFS3tInvULE8tHkObE4R0uLVxy1qqbwTxLoYoWIRuRsrBjZOBOyr4U+Hqazao5r7ze2y0gOeYFTZnGFCPmF+YwP85fFiD5eHyKHAiFiKgZhGEFcg61r44e+AX2HweBBaujU+NHLofYWRrclqjEygqFsrNzIDH842o+UQYRAgRy6JLcy3aVVpdA9kkjVRukMkTatL8QTXLBgayamRT0KiYwfWa4WbWTqLElM+yNTMCU6jJly7V1n9bVB/2zoOQS34V/1C6hsUCpGf3sc+4295Jkh/oqcWEpe0j1ZFPZfqWbrs6jTymaId7D3m1SfDibWka+tZG4RxxkaG1iK1bSAYbwze6XEmXNycLlNN4MVVqVScDNizM8hGeLpiMSqJiTQjR+5A8HxsSCGGfq/yC7nkBJMCCKn+iHPIuJ6FbVwY2SRlrdkkd/xoFjYJt6VjWxvLiV1n0BE5vmxzqo5UYicylDEglFo+TV7rREZWyiOAx1cwSOncAe8fW94/78k/bOg/3B152fg6RuhsRW3tCBx1XDvNx3HpqubayYRgiCy5DDoWNxmqtAVIjNxoWy9qDI0zbO6QmSGHnzh0SsHERlnOBsw8kq89gp/0RmwcFowdHq08lIYfQMiL4nBaZj136WcWEpOi3dt6LLrUJLWfmS5kpO2cYjzddoVIEvcSKBULHrNnrA3BvHssarFwvaTxxn9Vkqc64KI3M05e6X7I+fEIhKg5vswI3JX+yNPIXLabaQHEvRQpKzJaqOsXSJyAhCi1yJCN0Xs4f6ZrwyEd54PfcdB37He0BnwSj+42wNaeMIGaXW0MmGInAXo7mzkA4HIKHDEZQy3ppk+5YLzpnrqmqTvJOg9Ilp0crxyPo4ewqjRdDPxf207fH4LY9Owpf9PIXLaKT6giFwSj1za1CZzXDayIVL+/zjjkcuJmtwEj/no1I+8n21kPUVgWBvj//HEI7cnTbMIuXP2WtvIaF8lkYcxw8oHZxOsuzxZ9GlYeDQsPNK56+/hrQfA3Q2eAzjNhRtWhAD10RFcn5e1KTJ9xuIQoccuaV3KJ2lGGve1kPKlLx65TfzIktMmkZidhnJA2cJrYWxknCEgRKZ4EtpmC0Pi3HfcNTcGePLIYXDrscmKX4CzxWnU0sjrIudSKTLBDigitxFLt16L3I71bShTNbuOfisJlWzxjKQ7G5nOSLTboAVZzp5wr8UUIpfM7E0hMvo7zZeBKU4g8hFiogbseVo98TNcj9d3HPTOhmUX0Xq8YTIPyUgE3LACdxJGr0X2TI0cAFna/uFBZIVrE7H+uC68CRXc5N4ZOBV6D/YGTvUe/zns/AOK0XTpzCsq61g40F4LqznyySlEzkuEfk8hsohFH+Qlv9snpmzkonza2sjoFKIoN40XNCcF/kj83lPhA/+COwf1HKkWngBP/AiGN6rA8VSCPg3+kIchAdBH4dkGBzsf5K/F1YcFkRMcIvAbyY8w5i9JwNnhr70B+o+ERUf6A7OiJ38B1TfE204S1luCYDorrikbWWugJZb8/siWFpUkJ5GNrKMXacfDGCMTaItPin6lYEZs+86/ZCvlz6K2btdzkcUcVjIrv9VDtR+ZSnI0Gx86m3KOQRo0S94BtdxTcjsN5a6O/ZO8rhSPjCcbZSqrQE/mGs6J7YSjQejkad7wpRtpmwpS9Ftdd1STqbktClZiVHMlW/xUsapVaki8/IN7VWBH4ALeCLx5P9z1eViI+2pC/9xk/c14AkjkqsCPwlBRtHGCmzHp/a8roxWl7AVrhnHGH725NGZyxLG1FxAx1IJtPD4qSqqjZn6MNrRjmRtVUQo3DkWrfeyWLTwljlSNt40uF4uVS56KzDpJ62ImWX8vWnONM3Qq4nL/ibCGTh4JXZ4RhDiAKCCgSUMwyQ2SrQIN8NvUKApjz8Ewu+K3KA2d06GIyEbWO/EysOA7G1/bRuZGyTskaDGZqMRzvcDeG9262kldimXsHNdx5Rx62laFOKdgrfF3z0a9iRueFBgu6t7Hmo1ms9F0Go7TzH4bDl/q6q/QqVaqxRsb9UajRt96g6826s1cTvEuk+O4jus6bq1ab9T07ch5ju2m0+yec6eBxD3Xq45Wne5vNxwiM81Gs1apNWoNTjfrWrae642OVGziZZxjW3T7dZrI/J7hPZ7rF+9tkKj5L1+VVmjWx36W00SZ79417Lue13Dk6zYclyTfbDr1prO35gT1EdjxUrL+FnfRhbAQT5wLF38Bnvs17HrNQ6HUmtVqs1Zz6nW30XRJ31zHDbxg185djuPWG83ct1Zv8FfyizmN1uJym57T9Hft3OM6+Hz+TpTMXcd1ms7w7j2cKJK1c7hMs+F4rif5JD232fSdpou9ptF06l5cH012veivuiy6/QzoP9Lv/1T45CUw/HLSGPW8KMAqNeSJWs9ND7LrKOlcwm2ikjcbzcpoVeunkUyz0RTFSLXFEE9zrPI54k7D8RyvVq1T39foIYAgFd+H7snd3HWwe9Zr9dxzmXPMrDcbRqVL6tKCc+n7ldGK03SFuDAsCbnUVYK75949e10nJS4UGMpQvIbzj+mpBjIqOa5TglL1FAQ59dJ0AeZT4GfLlOxEXNteKCn07TcDj3zL7bscBTInQj/Uy/DI9MAbyfzRQanaANSWFb3hLSsrR9D+ScRzZ4gUq2DnFA0KpEFxyiiugqmCZ4jwe5IYJrY56lZHXtsE2cS2H9curaBRb+oCljQsgVtCwAYyJwHaEmiRThTkzhDJcZIk0AwBGpvU+itg8GRcj9d7DNz3VdiyFEIfIjz8g7aW57axBpYk82qlysukxQTmBC/6w80qjbGMO/bgxsNpTolpbdUiiaFWaTC3Wp6WcERzRPc6UnJDP4mTRs3y85r8nHDwJw0gdNPTr/wfjFBWEEUQ+RF4UNug1l4Ng3Og53DonQGrrobKZtx5GQBjVEwvk06EW0fb9ldB8TIsUUiJvVmuXOXOovuRqU4X3ZMIb7vKAAAgAElEQVRu0ftaUJraaYK6JxG0zxCxdVvS0pR0AgNvc1oyFJAq6wS1h+d6esNM0z3bAgsNxI2U8gQL+c2Go9vL0kBh21Y8sxtncTGbPUqlq3k1av07DCLPpWFRrozM2Fi9EvWARr25suU/C7EWWKvsMjyUjvlwnc2vsf4XP/JYBfl6nrhpBr1HqnQMLo0Bj5kQ9BzbWhvMo/Gq3QQmv+R/iiSr1xqojvIRUZsOLFeQL44UtrNapcWPbEkVy1JlcSMXDK11oP5c8NhF/qJZ0H889H0Klv4A3n8atz/mxXt650xajsbrI5ga/e3ca4GPMrsYGWG34Jsuqwiqo3QeFZciQeXEnt5vBeSlma1SEmvRqkA2n8/6GqNB8b2EwScoT2dL5fErG0OnwtDhwcKZ0WOXQHUTxSmz4z7bGMx59oltfuWj36So6IxNvqvuWZjZK+melpZ21/dpuQCeIWJ/RL05YXGe7572XcV0wY+c05N89+T1a0U6ZTmJnCEiV0XUwr/h3CAyleA66DebKYG9T87aEoptExT91jEi4zl7Viu1pdxqN85WnJMDqwvi2o/cngdzlSJgLOIGJDBwLWezkJWUQ+SijWy/S/SBXeZZ7f7PIbJpbFYptgQzYK3jka0GbkO9iMhcTdIk3HHM2QXvPBI99I1ocA4MHB0NnQWPXw7DL5spKTLqGJHTv5bBDlAdrXboR04AbWTbj2xEbkuOKtMCkW2rB/HRaj0e3BQItRBNKSIbyWuZW7eWI3KuvIogwdpBqCB2wx0vN1dc5i/6FPQdFg6eBmsXQGMThA1tT1nESxZw2VcL6a4QOb+ktkAtk1FAZJSnZRWiZCy9S3cez1Bp8cNGZCM6jZsFXMMOhycl2A3cgixnFxB5rO6psI939skgcpZzrSqWWDKInF62SlDdCtv92V2B0xZzOh5ZcuzCLDurVUqa3C6fI16wkbnJW3Gej7UoUrY4gTY2sn2jqRdPVphf6eCoc0TOsJ2VeT4e2WZA0vzsfUTklPF2qbaIHHkebHxALbkAd3HrPRpuOw2e7YHRrbggDc1wPpfJ7C5vIzKpAYNLtVLrEJFxr06zM73IIE1IypjwRRs5L3C7TxXjkYWgnTAy12v2RH+4jEBDtjV55VveRjadU3OFQ4qA9uPHaGW36UD1veaqm6D/GOj763Dg+HjdAoq+KDQXvR4yucJwJlf/6BKRC6uohbgk5CktEDkjdpGYfTqPUBCakpBL+4DINmgKQTshxMsQOcN2tkFLVlHbZDltiHeJyHSz2Jh2AsGOvsVTnfK8MrumfLpCxORweYt4il+5U51KEDZL3Pfo5FND2aLJ07g0DW2u5k91yvUBeT1weXIsiJNaqq8TucL2TkPmdi5pI7J4iNLNpQxvJZybS3QyVuZUpxKxWIXTnYYMJ0icnTk0vBI2kE7uVCe8RfwJJQkVx7UqrbNA0xYP7CQiMQQ74fn/8u78fNI/E/pnOnf/I7y1DJxtEDh0Sgit3ENLg9zAuFWb+aJjWJtOoKBaqaJvuPBkfBJ95RJzLj+LCSRrxMIgWBmpIg7aYjECYflb5fOnOrVX8gwiE/1cg2aY0WGCJH2LQ/sW7WpnbmPVrDcxTNvZrtZe7S06HfoPD3pnqycugZE3IfZ4oEDHR3klfmR5MZhnSTVxE6sgch3XzuF0Kz+y3mFcSAlxSZhLiUp8z7cDOewKmrRpDupB9ilNyIbQlIQhrk91klgLNr3FY8luBGlrJE572sjtbYnjKmre18KUN9xqVMEeZBGnU53SI6Pac54iMhO3OTfaKM2xjyeflgiOJUiPTBFZxEoJrKSBCU0BTbD8jnwtiROR8ZxF3Z5yohLXcRGRs2yX/7QRWcpT9VNEJtHz7UmcOA3HJq5FISol++f9/+y9B5xWxdU/zv/ze/Mz1LTXQjOmv8k/GhNLpBkVjRoFE2MXC2XpVgSkgyKgYCSoMTYUESJNDfYC0ssuHaTDLgu7ywJbn3rr/D7nnJlz55Z99lkWzPrK83k+u/PMnXvmzJkz33vuzJkzSC0QHzmaB1Wvh8hkHmJ+gL5HgQLLqTVGyAdsA14jv45tVVVWUHwcdJw1YUdDYndq5d+cGVeJV9uJGZ3jc+4R+z+AcPOWAfvxYJHKxvBvNgCxDFrP20k8RKZD/OAFULWFE8w/51BIPPl0CZX3ilHzMTxWRVmFHEvUOE3aRJ/vkufs+XuBr4YTPkRWNTLPcqZeMUmgCZnZdZBjO7HqGOwfsSxRtctaNl7M6ixe/HXqlc7usqdFskDYKaDlJoWbROJqZNFhbqreMNsCz1FOxpPhS/Ufnq7tppPpZCLFxD2aLHn1PI48i5pvjEzIaJw1y5D7muag9LOoIwlypneGiBKd3pUyrS6RDPWxzHQiEx4i18w533iciBz9AFHPkAAi689e1TY5JsHoCiFyjcRRIvVE5AzEMyAyN4EFJ7vc8kJ9wiVaM+d55BOKyCHOPYPCQ+TwQ1iNBJ1z/ZmBbNeIyORKWl1VKdAfBFZVnIQ4tER8MkDMuEC8/ls4OO7fA8XBXGHG4JhoOH0ZEdlGRHYIkT28AAVQY5JaVFlRCQsJSt29ZtbAuY7I3C98l07HNu36IDLT5AQTh6V8y/FcUJB5KKZ4pmbyjejfim1UHQSqohfWnwQwKOxYdRUI00gKOyaqt1UveUK80VlMv8B6raOzfDJYynBAnwtHyoK3L6x40pe8p2RaSVXn3DSs+iAyV8QJJl5/RGaanGDiUTZyUIasWpGIzDQ5wcTrj8hMUyW04ckre6r3oUwNvQ/eb/RVhFS/Knj1gWYNheUgQQuADJl0yjuLWp/ap1q4UnhmwMoe7uOqlTgWkLHfVOFMxNGMDcxCBJrpcY4EU4mUfK4yfUogtvoK4yyYnN3XCqs1HGUNqUvY5UmdeGZOaJuJJyjATNk1UoZaBwnwfpNuXpG9GeDc260g2QtNGfCMgOPYlomIDLEhRapM7H1fzL9LvNZRvPw7441r3RVPi2M7YOc0hjMD5wo4nNSWJ5PC3LF0XmP+9UYJV85acCYX4wRfoljV3k98D+VilNCvOpZTUV4Bo07rBX957xJFrPemOORDyi9zRQcHhQv+LVpO6PHgI+5b7MW7/Jz4VjvJRoZXFjgUFcOZVu+wlj2VmHGNePWXyVcuF188AaBsJuDtgmJaUjPxL1NmxNH5tEwLzFiNc05LGbLE9FV9VZ6Jc0K7XcCsBflZUXk1cMKFCTTrNDzTybSc5UBjMyTwoAyly0CNnGsdBPPI6ArlFQ6NOHWJIA5QS8vhBlJC1zrhCDiLWluSDhTWLx3vyl742aumsXGyz8r+rK3gyl7kdA8Tr//KXgbOM6/s0Y301EF+ordp4gQWiJjeULh8yPvNGy3MEhfGgDW+leKwWLTC9Y3G6fGqqRiqGwSOt8x4rBqCAZlJsfVta9Zd4sVzxauXWK9dL3KniUS+odbHoNGOcA0TpixoHQ8mkT1jQaaZc6wNvN94BSbcTEWcVADGGN+uvQN6tfBVfP2qV6ShMDNMHKEKnoL8yVgY0cfPeQaxoJ8AzCMD5OCZKfAOYYiqPakvxomZl4hXf21Mv9xZPkXE9wszKd8y0Z8H5MAJvQrmMxwfmS9xE3zNDK3s6WQpzRTqubLHDOhVMPETHo1Ta6ao/8qezjM90jTOT3A0zohIQ4Hq/cPGMk8hMvY24Rt1zNcAkQnhbM9yUBYjzCPH94uNU8QbN4gX2omXLkrNvVtsnytSxRgNR73i4KEeDoTOUbMQkWOMR4KHyCorsjxrNgXMVGUhO1yerzZARNYa4j1CeCgx5x4im8KFk6qF6QrTAofCyp2VS58Sb3YUr/7SmXGpWPk3Ub7TxcgHUhpEhGlyQqu6vr4WTJMTTPwUIrNMtN488RHrTyGyN/I1Qf/vsZFh65sjIwDBMXaIdJaFeS6EUzi0WKwcK2b+UbzSznmxU/K9B8Xej0XqqEgn0MWNJj0kkjtwaIh6f6wNNAVEGsLFNxrVYYT1P+y/3jYyI1ekGetXLbCRHRunJPAlgyaa7aSo3mstGxd//Qrx+vnp6VeLpRNF+XaKEgcE0KzGmSL/q4lW9SlEDr6roZYmEynfWyljKye0DorwfuNilNAKn0JkT/si/JEDgtMH/Dd21gJnjeVeKJhtoAOkLZjEFElR+qX5QW/x+kWwN/r1PzgfDhBlm0Q6AbYbwAQsMMEXYB1AGc6jokkb6ocwyLKyYuIUIocBAk4+BUQGVJWixQlZeGw6rqjcYSwb785sL167wH31cmfZJFG9S7gWitORWyUDeu6NCeggmOoNf7inuIMQ4eVsLJcPUNZH0CkbmYWjyfAUIrPuwBSY9KakPNY5FpyuT99cRAYkBUmAdQw+V5h24BCQQ0vEvNvcV9qJN9s7szumV0wURiHGm8eFPtd1wY4DtJCI7AjLdOjsU1jJwK9EHJY5K6uctQB/ZNlnmTvo6z5rwQ3P1kaGnoCpI/yC85zlCsMWTlJUb0sve9yZ2Vm89jvjtXbuyidFbA8Uw2VUfOeRd0nhe2PiFCIryejd0YDmkekVNbwkyuut5KBmBI4f961Be2uFOKot0/rKfC0yrbeeOF8LrkW+0WNfQow+2qZJMsS/tOPcE4gSo+deowpnWG8lN/7sF3Pd4/O1UJxwo8DsJTV1EiKxV+yca8zrLl76jf3yJak5t4j1z4rqHcJOu2kHpjVtEz0BKIoQHCIN9/oRGUA5rFpcLwqHdoh4PPhdSjxJSpmrSRUp7UwL4nbtvhZqdoU4Nyw1cw5yyNxBju2EfC0Cg4KecPgXPSK4jbUQRzceWDYkIFbOgvAT3kuwi+xqUbHVXDo2+eYfxfRfpt+4WiydIKr2CStpSZkr3CFAZ5mjN3rkDhHmipCduCV9BjxXFDKIRe4QqZOvRZbAgrV7vha19j7Oxdfma6H1foSvRaA3fYVrdYXSFamOvhaq1wP+cTASqC8dYVs2OJ2on/Dc9jvTef7wKKmQP3LQ+c4jTnAPqxaeAtVIHBmojz8yoENNnCNw1LRDBLSQbmQhRO4QQfrS2xdLckvruUPEY4D51zrI80dW7GVoJvnuSGcsWR4nH1wXIitYAkzgqp1i1WQXRvtvxSvnW/NuEbvniHgcgNi04DlkmXBciG1KXHYIkUGJ4b3EZp83NKCZZylDqVqEtpUVVTBysuac7qLy4WZ6Aq/3DpEo4p6WSn9kZps1RGus1yhUDP6ZaQThU8q27OoqDGGBaqnfCBsrwJdZwGac8q3pFRPE678Tr/3GnX6pWDNVVO1y4eRZb/AG7q3/DpGwWLiKE+CPrEmPKmLinj8yyzxUmHs/7I9c69hPxBPgnJqJuNf7pmHpO0QihqfmYO7tEKmZONd73DtE0IJQA4xfrOhB2lAQWdrIaFSgLGrtlZoQmeXlJfAhLF+3laBppOmIzOVdB04I9/ViSJ+4MA4bE+ZbFOWILtdGXb0RGY0vMuchGMR28dlj4sXLxaudxPTOzof9xYElwoxJDwqb4AA26NmOazrwJg2HhxANW9iWmz0iu46oqqwOnG0YGPMsBHqWfGWIjDMGaCjh6PJGO3ZK3RBZ9TW3JdBGz6bB+Rt9HtlXr2sJF+eXwQHDBJe46n2Vi6cYM64UM35jzbxMrJwk4rshX2lOOFHTDpFwSbSalfebIhjkXOVD4Xrv2QsSZ1xjGzntmYbhwp6syGAy6zD264PIpCryQYvPZl2YdUTkGux/qfdoupILus8Ox7vgCAZeVcccersxDd+sBaBJ8Ou9BEn/9uxeiwT6JBppL/hyiDJaB8QM9ArOI6uf/F6m38Wygz178dp2UTMpHZE5Ey0aOoRFkqVLOG+YiHuHFGTmBONaWL5Zi9C7v6d8aH/JaJxqeISVlZsZYSOzw5txTBxeZXw00n6tq3ipnXjlT+77Q8Xh5c6xYrgd5w0ciEyG6GuB/Qs7FFT8YopWbGM+bzEJz1p4igSNgthvuhbpXUNpfl+GHSL0lFICjyhMfOKbu23ZctmQykfKULtkm3Dyi1cdkoIqAkqOt+CsBYb61CgE+GGZyz17VBL/BkrqvQnKoq3s+S4BIvMGaDKETVG+P71onPXGVWLGhdYb14qVE0X1dmFXuXI637PsiJ/aEdnHp0JklRngXCqGumqkDX3GMlCYfkqxIGiadZq1SBnejhLqTfWokwrPZgqOfRhBDCwZeh9Rrg5xLXDaQJoRquGgNhR5XFchvAqIfCJ3iGBLME64tjpAg5N2xGrZlGw4/sgA99QrxJk2N8KjhROZEFmXu2ovKEGUUwGqHQ4DuktVDZN3agUL8hR6RiQo9IQeSzAz5zbuH9MI1gmRTRswVlgJseNtB/bjXSpeaS9eu1qsfkYc3QrO89W4NM9CYP8KTgAAS8i2aWWQC4c5p6lqGiqOKDtWDvcqKUVIQ13EPXv+fRYZiTu2k+0OEURwGQyfq0OuKGqEx6G66jpuLTtEtO6QO0TUvfBfvxpI4/aTeEwdQaBLMpjGlVPbFUd3mEumwI726eeLly9MLx8nKjfBwix0EK65alXUiMg6cWYV5xX5VwTn3HdYyDIsOHiJP+EOYk4wZB0gLH8iC/NVIUzD9EAW6QT1nBFZN5iIQpi4znn2K3tIR3q+MgVKkKz0Ma6qPqE7RNSzKFIpfZCkZNegENnnYxjuFdYPeL5BpCH56NPyYfCw6FUbAU/Q8PcywsS9a0BBbl3lzEAV+k80HzwPBAVeNQ3jus5a0C5qzfiyRbxIbJ1uzL7dfaWTeL1Tau497o5/i/g+iGIhRDLuvZSAKDJ8YSQocXExvWm6MFFisNGZxRuWoV+/T5Y/MtaLj1juHpWgKWD1i//XAZFRDkHOAzLRf6LPWSIOG9MzfRQKwGxSOiaqdznLJjoQ5P5C+82rraXjwUnRgTP6THSZI+VxHdd3zp5eL/dCoFZ/FwSV0H+XZVpg9vInskOp0uwRWVVhGhh5XBsO/ylERlVBK4Rbign5OuXPPMHebzT36lh4DhD3HyqZDNmu5MVsNBRExkcWIDJDAw88nhnkS4jIvpNPubFKgXx0dETWiABMqzcprzzqkDxKh8WUMSEFnrGMvIheAeC+qllezAMnvIGEI4HzYQ4httfJe8GZeb2YcZl4tVPyrTvE7gUYVwyNHVfEY4jIzAy3lxPaJfSZDaE2C5NuofLYHRXlGOpTy/FYpbuY+MnzfsM5UGn4MKv48MCo6n7DHPmpGyKjyeY9eAhTAmilCxOX/rV2Z0wSw3ZCxLY7X4xxZ14tZrRLvvEnd+UEkdwpnJhBiIz0weS3nGh/5JoqCQ1wKKhzyzeiJVG72UsM4/DUI73QtDVOc5GLDvz1KsIXRzAjZEPgqjw+WI04MjIIFqE3M79l6u2qi41MYxxGKJvkxCfMZqjz0lgmKKsTaSNTnFk6qYisQuZDhmzXrR7ko0EgMuIUcSiNWTR2aNThXzyGiwUH+uEaadOzTFnnKMElORHIDwwwv2XhOiKdMvjW2hMB4hlvcGwnEU/oupspTcBNYc4x0E/1ovFixu/BrWJGe/H+3c7hFbYLJ+eBxsKxTCIR06yemjkBljE2Duz708eSnPhCgSP2SRoosarKKtAo+oRl6Bdj0NIMl1eUKEJW9rMWtJ5Bw8zTc0INy/aao5pfN0RGOihQCTFchUp401wEKNmCJksAXk3SomK7sfxp983LxKvnipkd0iseE5UbcdlVCRhHAazE6B8SGotOvxROk2byc0u7i4KOAsjSB0uqBuIUH92b4W9otpc0GYmA05ej5vR1sqA/Ok2J1OqYD77EPKtHgte4OiEyBkeDVQectyROaGVIHv1DNTJ1F1b1wc7gT4ATDUJrjzQEiGyC95tUVnoc4Qs7bCWkxRC9MoyS85+PNIQj3zZtSwmOVkJxZpkCGALz9EyjA8wtE44HBA8HFCg9q3EjK+BLQAMifmJUcg3xZYBE6AkKEw7LhrB2VMuX6KCzM7yFWMBthlsc2zFSRjwWJx8PnYFa07ZpV1VWl3z2TNlrfy6f1S21dLI4kifMCttKm45jucK0hWGIVMxyTeFaTi1f07Xxa+FfEh3J1qHw4WAqaod4SUSubhCIbDk0TUkvhfIdAtdwLNMClNSGDdg9dZlHxoe9wXAP/SKPnbfJaMDz5xFBbNcxbTNtpJOwqRfDrtf4FwhaNrghWuCVKIw0RO8s32eu/HvJrHsPz7rr2KqXRcU+23RgER4PSLUt20gbRtqgBhJ9CwYCfWusizmxTHD84i/eKLUUR1DaSBlEjcqYhslfrAiZYavWn6DhyXWp4Qn0LTy90zRMOoxVL0PF+LXPJ15AAOAWLK0ADmrPkjpEGkJTD8KXwxSK90JMagMVkSunn/iJRmT0R5ZKSdNq2DYPkfXqGwwi09InDgNpsklcs92S4pLzzj3vOy2+27RJ0yby2+w7Lb7bpHHTFs2/06wZfJs2bdG0aYsmTZo3adK8adPmzZo2q+XbpFnTJk31L5Vv3rR582bNmzZp1vjbjZs3ba4XiEw3ady0ybeb0LfxtxvLdOMmkYUps1nTZo1Pa4y1+BjIcEvTJk1bNG/RrGmz5s2a//TbjS74P43O/a9GbU9r1PS0xt9r1qJZ48bAcvPvNG72vW+d1uLb32rSvHGzZo2bNG/cuOZvk+aNmzZr3KxZ0xbNmrZo3vQ7LZp/F7/fadG8RYvmLc4797yyY2XSliFjAREZzqJuGDYymB1q3AJLqOQUWc2zwpSZUwdExtEx5akpZ5x+RvNmoAzNmjZr2pS0Rekf/G7WvGmz7zRt3rxJs9P+61tNTmvcrHHNvdm4aRO82rxpkxbN/m+LZo2/27TZGY2bfb/J985o8f2zT2v0P6c1+tW3GrX5v41Ob/JfzU5r0eTbTZs0btKkcZMWzVo0/nbjZk2bU6cwP1g78FbrNzAKqHyLZtDFzZo2O+3/ntYUBhH81KsIkw3QoZ9NaxhEzZo2Q86bkPSa1VyMB12Txk1vveVWepqSMQu6p4Oyjlp1spEdl/yRWUk48VUgMuEaNIxeDahJaEV+neaRGQKQ8wMFB/r17acGV/A/vXPof4Ml/pf9huc72MByJ/TJaV3vnN5Fh4p8tHGENIiVPbR5pSXF0/GoARi/u97zyK7o1aNX6eFSbj6+VfI2c+gAuKTrHKX5hmwS3u3whogdqhZRsrn9f00ZJbo2rdsE26SD8vEiMp1+4jliahN0X8U8Ms3Hya0NpDRqjoJeikmX9JY3iHlkZIjeX3TeKF14oBAQWfVcuEBNHRcueSonSwn0zuldXFTsK4xSbhDeb4jCcnaCkRF5lfG79dGr8rP1fkM1CyAyzu1a+CCEZyEY5ADL/vnQmvXTJ8ZTPwISUHI7WYiM4bTAKYsqUtWRdyYtA/g4OrHzyIjIeBY1K+XXCZFhZdknHfyBiNw/AyLX9HITJnUqJ0sJ1IzIZR4F/UnIfeBdxt0KrIdsH3BJfaoXF9OyXdlDUvJFkKpTtZwkRJYR9uC9xIK9bqCLpxBZ6+n6JBVEnnREZiaVtnxlNvLXFZGDsd+UBAsPFPbv259G9MEj1f9655M35388Y+6HM+d+MHPOwtnz38/d+CVsDla7i9V9tf3Xn5mn0n4J9O5Vk438DUJkWF5zxJLlq9+Yt+CNuW/PfeeDGbPmT39z7tyFH1XHo09aqk3nTl0PSeAUIgdE0nBmLTIhcj+JyLsLj6zeuDtui8q0iJki5YjSivTHn6/QZocC7Tv183gkcMpGLj1cCt6Brpj39sKjsWRlykoYIm2LmOF++MXSYxXanmz9YXY8wv5m33MKkQP9/zVB5AFkI+8uKFq2ZmN1SiRMUZV0KuJWYUnFJ4tWkoFMf6GB6sUk0FjvZ+Qbt/5C7aVt4Ri0A1kt/rpuxJF0crlfubDST4jTBu6x4AyQdjHKj7foCjwAJSALekkf/Mn+W3Xg07827fF/PPk5vXJqmEf+BtnIoEeumDf/nbLqWMpyDMNKJNJllVXvffpJWXmVnEbT4bhWrfP0L3NK+QhnLpXFVX1mKLo4aKdUQFnghLUiusJg7tcbkXF8gluYDVOu9JXOIjgCYb3B/43cWuMrA1stDF9OiAIrHxVTCIJ1oZefZMbW9griJo5kIuWFMpGbPurAOdULsxb9AJGFEPsOHFy/eesFv2/3gzNb/uDMVj84o82WL/e//9GSICIHu/24fpOuWEdFYmfRURfc9F0hEomykkMmxpYQJiz2QCZ9XAF7ZEVaiHQ6FXcgAoUhzKqSwzE4XTT+ZfGxikooAjs4YCBYtgs+1jY4DqO7oiVEyjSrjlaINExdqsUIRf8r/N+/b/8P3vuA26U2XDmVFZVy4xYpie6Orfc+9rX0OVWaSYJCH2fcxEHyxCAVtKcjRjEtFcaFdZL0gZavjbQhdzfQoEA99JzxKYyJ0mQhRCKeCBMM54BuC/C1OFxyGFKumD9nXklxccuzzjrr9DN+8N3vXt+ly78/+KCcdpMrViVjJ6SDQBbFRllxaTVojTCs5JHSWMqU27RdwZuThRBmMg2h/KCUUkMnZlYfK6pyhZVMHztcWC3i0CJXuCn8iyePo2UAW0OspHts38GSsgMVZhwm/SwIEqgg8oS0Jlsirmh5VktprKATMa3z1wAsTjwW98IeSWCReAgetP7e13uZsEvPCaQpPhpSCGIpl2Q9bJRMJJOJZCqZCn/pUiKeCHyTiWQgJ/AzHotXlFcGMv0/oVL4xj1SMkcyA2eM85cupZKpdDJdVVkVq4r5C3sl4ZZEiq76a4RW8F27d+72ELng0IrV6w6VHMsvLNl/4PD+A6Vr123/8ONlHGHyhFkXhBeOEOb+j6ff1/KnV5ZUgUq/NHFi16s6H4Vz7dDVHw5XQ3i1k3iKHUC1BRaxCYdHOFVF+zZ/q8WPN6zJW/fGI52uuwUcylyIbm4kCdRh75YjRNIVgPhVR558fMIFf7z9WOKHL64AACAASURBVHUSY7Th6aTZKvWJLNc7p8+BgkIjbRppgzsilUgdKT2qdw13Oie8wkolVP9K1Y3H4rGqWCKeSCVTiThkQtfHEsl4svRwKSRI2aL0li+lk+l4LJ5KgC5RJuhbykglUkQZ8+ES6VUqmTp25FhYxyJzkonUPXffU1IsEXnuW3OPHjl26FBJwYGDBw8Vf7l957wFb8vd5CcFkS1hbRzU945hT68xhIgfLe97w58WvLewwrGEVS0MO2WJBLx62cJOCogUJWICghRBZD87LozD770//7I7HzKO7nz47mt7PDG7EvSiWtiptAUPeghphCeAGa7YsnFH97906XvHtdd3+eOCDSW4tf8/ZgacecaZmrL5UQJ1iTs6lUxVlFfUpoeoGBpkcV/rOMaZnEjGk+VlFfFYnHPCCdbDRozNGRK0sUIvwNAemXAsRw+Yqd8YkUajA/IJsPRElHYaacN7lAUKhH4i54B6ga9uI+/ZV/zRJyvW5G5ftGTdoiXrFi9Z98XS9R9+suKkILKEuF3L3+z93bOvPlQhhClmTHzquiuuPGC5O7cuzbnpmm5/HfjRp2tNIRZ9OPvlaZMH3f/Ivb2HfbnroGun13zx73v+etlTYx5o1PwXa9ds2D5z4MVd7t1tCVG8aeKgITd27fn8rM+EaX7w+rTB48b1GjLm0yW5T95xw1mntfj2RXfsSaRSwkA31QjnE8nXyfzXt3ffxYsWBzpCuBAfmQ2Z8FVfDnoN+3JQW8I2MpcBBzXSKGpaSBO8FqNLE75wK23Ba2jLK39kVk58dc9+57rruD3u7VFSXELVzXlr/sYt25euzFu8PHfx8tzPFq948823KsqiZi08/uqTMoS15KEBNz84ZXu1K+KllQ9cd/U7H7xd5sY+fPVvd99w0x13PbT1cPxY+bHHH+y57L13u93bd9L0BbZhWeVFzz356N23Xjb8iVHn3znMKl07okf7GyfNqxAif8PHN3bt2n3A0J1FVaJiz6vPjH386eduufuRvA3F61dvF7FVbz7z4JXD3ytKgzD1HqhPM+p671lntoQXRfpEdj1lIvKkkinYHxQuFpUDeqIvNKnXskg8FHhcXJZK7ttFLV8JecJRCUA6AKmftf6XiFxrOSqgBzpQViRwT2+ptHWKSTlCniHCOdoLJr6m43BSVyP8kbF8QX4B28iHj8TemvvBtOdenzpt+tRnX5v67GsvvDR787b8k4LIWLuw9y967cHvn90JbGRbvDzp9Ws7/3lvRdEt199oHzzy7j+nnn/lLftMMefvD7W/7IqNJeLx/gMnD+t38PCOH/y0/SsvPL9h/rhGzdusXJO7683+v7uh58aYePnRvk+MH7enPHVJpz9tXTRnysM3tbn4lg0HKqzUweEP3/XW9JmXtbvrcFVVCmY/fPJRcvoq/vfJ6TN/7nxfTfguWV5WLnFQ9T7oemTvk6qoIeaRCqiQd0H4XIa1/HDShY1Y/qgmyIbcs0eDwj+HCltjs/u4jujRHRCZovBs2fzl8y+88uwLr057Yfqkp5+b+uyLb8ycHY8lI+AgO/q1lHINYS8bNqDriKnLE0JUHjF6dbln3gfvbC/ZObRHT3Go4IoLL+gyaGrh4cNX/ur7OeNe/XxlYddzf5su2bpw4dsXds4p2bFk+P13trvpMaNk8+BeV3Z98uMv95X/9sym7y1fPeaZf97d7U5R8n6XK3436LllMdxmBN2X3Nrx59+/bMjbhzEQYLjHamG4/pexyjPPOMt7Giilom39oHIaW96ha1y1mkOT8xVaYZglx9gGXLbWRLZRSoTwITKNBPlX48BzyeRHCj0iwn+xAJ6zFwplQvfSLRpxGntekwizApT5siuMlAFHTPEnXJ6Jo0dqIPYbzZjriGxY0GIO2k4ztxI5Mf9EzloQ6Fi7v3htYKNv/c/Flw/sevlf2p9z8Y2Xdy5LbF2ybMezE17u+qv/+tmlXbdZ4t1nBtx8b4/thlgw5cmxOdd/uuiNRi3b7Ssodne/1ej7Z69Yu3bvzN7n35Cz8qgYfN2lj40dOW/x6ttvHbho5qQJ93e+euALRfD2WWKLowvnvfun828qK69I/0cRuXdO7zAiC0eUl2UdHxnDkENv0Udpo9xWR/nc+7i6VF1ZrUrjf7pF/8uXObQYE6c78JwqOXpJLfB21xEy3p5GwQepnI9T/ITIYEOhqsG6Lp29wmeVkm7ovOlt0ajVOekawvj8kZxrm//s3ouuuOuKS6/73Zm/+PC9GWXJQ/Pm5Q2967YLWn/ryoee3XOo+KpfNZs0b92uAtH7gov2rl7w2KQJPUYuFMnipfNfanfTeKN465BeV/954uf/mrP4t9/79uwPPn78mVeuufyPovBf3W677p/LRLUlhJ1MHdk56Pa/tD297T+X5Ffpjaoz3/W4AcXY8syWHuxmAApkMpmAQCJelQEI0vsCo3QFDepAef6JepiM+2Ojs1i4mKKfBSKjAaKfhAZMM6FAAgUhzxDxGhcqr6oHxjAAilc2LDhNSuL4EFljMozIEIZFwNFE/AVQVm4Onq+Fx2K9UjCpZm9c+Vq35md3PVQNi3YLHpvQ/Q8/35A3pfnPrpgxPy9/4cMdbuy2xRQLn7lvwKAHdjti9tPPjO9747LPpzc6/bxNu/Ord73b6Hs/Wpmbmz+z+/k39F55VAy66qL77rrzyaen/+3Jd/evefuJwX+4dOCzhSDkpOkAIl9zwW1l5ZUmzFr4TIN6taSON0cisuu4Jw+RXcetqgRMkJ/aVKv2HSIaXLq2P2I9jTFN01St8B9mLdBGlq+u/CpNheBI76jdetow0anVPZ0WzmeP9Ptr/ykHjwlRdbRi0HXX5L7z1JxZU9t2eLxg69bJD3S++uFpu4tKr/pV8/lLvszfl+xxccd96z4c/cSE2wf9SyQqlrw9+3e3jDOLN43qcdVN4z6eNeuj87/7/02c8MSTU2ZMe2a2VfT+Tbf/5YVlAmQdz39tzOVNm/x83NTFZXbSgJU9HEsnrC3ZtV4hcuTrV9jorD3SkM4/IzJ1N2mF3vV6Gns/GGkoDKGKvpxHJpziWQvPUMf3Ss8GURz4SvoDINHRiuAOQR+NXa8WTf8QkX3qGCaumx5y1kKNDY8ms0HvI/DSAeEfZSgm5JzmBB3Lyd/vzVqArxj6JPFBRPQzu56vcyk4XlR8uWJGzyY/vGF/NRjhs8Y/ecfl56/M++ePfnHunm0Fb4y96ycX37jXEAsm33//w48U2uKdKc+M6Ntz496dZ579P/Pe+Oe6D6c2+l7bVWtXbZ/Z6zc39N6aEq8+dOXzkx4tqRZd73h6z/KFzzzUsdOAvxVBuxJCHJk/Z8GlF951tKzadFJgmFGD68x4fW/ondN73959eleSh4NEZKUnmXsfY5jhQwU1E4YWDg8KqkcREbmKOiGyb9aCiCNLOGshT3sCZaNjCtBM8aZElDb6LBXOxCdBzx49i4uKPeQNiFMvrKcDxY7vJ9jISwb3va3v3wqPuaKq9OjDXa5cvnDKvNlP/fm6hw9t2/K7n3//+gdfzT9YecXPvvvOkoL9+1J3t7tw7Yalr8x766prbnOKNk8Y+cC5d4xLHdn6KCDyp1/uLDzv+43WbVjz/Juf9X34GXF48S03d316hW25Ru5HL/3PGY0mPP5SRUKkXcBj3aA6PvaP5y6UYcszWwYQ2QcXPhQSiXhS+vzgvb6SytECVAtnM+SshUJefPXR4sAxFuFmTJgS4Wic1LkKkVnbSZOFK2o/+ZQ4IxuZ7pdzfFqtTJfmfz0bWVklXgG6i2aHJUqSm5ZnRwcL8xQels/+LGpGZF24FO4vf38+zyNH9zcLLvry8ebSk9AuXPHOpAuv6HEIl6Lfn/HmwG5/rUrs7Nen+69//OOb//DbSy67s7BSfDxj2hMTnzpmivdfenXCqLHFSTsvd/35P2s5tN+ff/Kb32/eumnzwkk39320VAiz4INbu156zs8vHDv5PZGqmDmlf5/x08tAXEnHOvrJR5/efsvD5ZVxB8IJ0ULq8fJfj/tohwh0rtb7ju2UHSvTczL3vn67vEsiMgbMZJhGVZGnOmGaBlIG4j5Exsc5was+jywVSS1yeIiMVehqJpc0vKpdHyJrYlS2Eeo/aZ3+Vyt5/EnXEtbOSaMeGf/atipTJMrKHuvbc/Vns9PVB6665JqL//9f9uh+x5V3jj5woLzb1Z2WrTtUfDBx3003bNy59VgqOeKRoRee852nHhvWZeDEypKdE4f0fHTax7YjNnw+++e/+HG7P968YUeZKN4w6L6+s9eXCZGYOXXEr37S5hc/+93Pft5xyKOTq2J4MO5X/2KGMkRElm+7kaDJT1BvHpm7LIxvWi9D9FRyiVOAFlYtykHF8yMy0fHTZ07qiMhkINCqi5+iZAiVteEhMtjL9AWr2XYKNBv5+BX9OO6kR5QFbqG2YcC8KMxgQ4RtYTuOa7muCW5HMB8nJxxdCFMsZ1FMCFhsCzgAGp7WAK/gKGeZIi0sU5iw79t2hYHz4qYlUtBu4NJ1TdvKKur8cbQpy1skIkNHeE/frwKRNYBjNeCEblB7K3snHpFF7Yis8clcZSnb2otB1G86NTUFPm0GegmnhekIiGXtmKCYqImubYBWUh9Z4AuEXxv+gi9zGvzc6DECCQe8keFg7DS4ZpqgqZaTMB07ZdqGLeGYFmnkXbXzeiJKnFRExnNYMMyvRBVQp0g8RGsyaCPXgshKD8h44r+eToTnkcESif7SXTUiMo5GucrJ9eLOFF91IeL61TSt7Knbpe2j3aIXDsxa8N6WAwUHarGRT4RWRNBAth0CTXh6AcYitgJIgfcnwKeyKMAj1G860XsW0aVRQRDPf3GgmfAmD2FrqIhkw/cjgrWTnZXTK+fzzxbpvQPdYbte0GRseFi19FvkHBT3PjaqJu+3Opx8inIOxn4jfvDACEAoFDJrr28emcaYf1hKUFOs9uzRs6S4BJ6Q/o7wfqmSentPWKdI4qaAtQQwA1wXYtzDRlF0axKArC5YAo4JT3XY2IHPe7QV0OSnhUglB1RMYI8c3EECCM2gs2ApmK5pwYEHcL0hIHIYKLgrSeB4xqbn/VarHnIobbo9XJ5yaCbNN2uhI7ICLu70rFb26MWN7WroBiQa8Rc7PgMie2qqdE1OUqufwFmYuHa1Dr4WeCybPBOEaCri/1lERoXHlykbrA5githTUExj34VVecyi4cQeITKT0EiJC3/BEiUMLTRsIEIuFWXx/ScTOb1y5kV5v0lEJtZUB/l0gLmuwdfC00+9uScj9huxh91RB0RGrsAfuSgjIstu1XrcQ2sWQX0TtLdOwNEj8l2KFt5QB2GJw4aN+YSztE0/ZjsWnFUiaO++ZA/e24hhG/oKh623GoQeJZbdwBDZp1TyNVPJM/uI9dhYPH4IW050IvWWB3VgHhnzeU5DcqX6OgtExpN4fKcZnlhEJu8iJZmTgshMHJ5I8H6he7/xxa8oAf3hQkhcfDyC7oOVAuaJ13bsYOl1By+bdAlnOHC8wC3SbZyu0ThxDJi8sHDWA14g2Tr5ipqWsZpIRBaOAETmT6Rm89XAyafcdHyLRGBAOVD5MCJrdCKSdfV+030taIzVZCNjz/a4t8fhksOZbGRSAGoU/41g9LiyUG1gax3cjcArcGrCBFXCbRxS/WRQFAlYtimS+EIO94BRCeauh7yomTAxhllpMMDBFoVa2DpuODayxD4CyvogsoCD7iA+Mn8i9ZYqCvhaqJInH5FZh1zh2chKyWjazpOIeiDA9ZOJyLiO5xMc4qB7oODAfQPvB3366j8kKK9uyUSNvHhzD8EXXh/veH+NRHxFT9oPTQfkU0TL6dm959w5c311o3bWF5FxNc/bHMQiiERkjR/JITOUJSIrCj4bGTNJtXhKUWo78eOKXj17HS4p9bqd6w0kFH1fST2T03wj52RIIN6iJxqMOQgJitAJf3CKgoEYEvwFYLVg9otUT+bjDy6DMbKwjFr6YMYwQQX9eV/FL8d2zjzjTGgLQ3AgwaqCMFWLP7IfwWtHZJYPEvfNWiBLNUHiibORNSH7EBkZCgpFk8VJRWQKn+Sxprrn0MFDZ7c5+0fn/Khtm7Zt27Rt06pNm9ZtWrdq0/Kslq1atmrTGn5Gftu2hvJwi1dA5rRtrWeGbm/VpnWr1vht27pVG1Vj6zatWwMpvEqZGmW8pWXr1i3hRpXftk3rs+nLbLRq2eqsM89q3bJ1mwj2JCfENt/SpnUbzsnAeetWrVudhcSRAdmElpAZ/LZsBXzW/D3j9DMOHSwC6ORP/RGZxgmPNOpfoh9GZNX7Pm3UmKndH5kLoyXh+VpoSg64jIs8OiK7jjvo4Ud+dM6Pz257duZv2zZnt23TlsTIHUQaAurBX+6+1qi9nF9DAkiRfrZqAx0HSq5pcuCuMHHOocESKK//9MYFDChQ7JpVopZLOCpBUTXOW7dq7ROLVp0aIKDwP2z7w7Zt2p537nnSIYc1RE9omli7P/JxIDJrywk+QyTLWQuuXvhtZE1ZvZGgyeI/gsgHCg70zukNJ43jh+b4bctJJXx72+k5pv9l84ENImgUPQ9pSkQ5deh3kakuwyDIKvFNTyvMlKMTEcQ1Cja615CokRm9dkozWb6k5Xi+KHyVE47twBNeY5sWK7gAJTw5sHXgT/Tt03fB/AWSjqLmOmplT+V4SsKDR7sHvDBZeSIRFl/L4Y6GhMgQ+61nr6NHjrLMMydcxzXS2sZUTQL1TLoOnD7h2/VaT4p8O3YHHgmqvZVmmOHk/q0pwR2NVbi2m04ZPGa52ogErhhbpiX9kbOhX6d55GxmLXTm64bINaCJPsBg5YRi86kxFhiNcnZMXTUNM51MezoXQhOdOK7sYReq2zMTT6fSZhq8CejLyMh38SVQBtuR0z1eeXBYKcg/0LdPX4UsOEEGC8uAyFpkSJhAI2859VdzdqHtJ7Yj8Yj8T2rwgJGIHEvA+qyOmxr9gAy5Ob6ETh9X7emqY0MsQa/hqJEBdxy+CrewEYdi4ZzALfTTsR3PGFRiZGp6ItwXOvMQ12LefL08yN9We/YUZf0WSnu3wDyyCiSG4z+isPaAtC0HjlXlHJrf0J6CusxdR9B577KD1F3KkSPwqg7aUl3lizHvMcPiJSJoUFM0TqVI4IKZ4WubNuy75d5Rysa3SMkg1kT2WiATSOEwhJgzKYi9x54GQErXK3IYp+5Q9r5PUIHC6icquZNOpX3BcpmCKhasK0O+7Ck57eDYTjKR9I/9EOeKmmNDsLPWrVpDM9XX6yClA55qASInde3KXNgyLX07iUISHR8kQJHk47G4T4aKAa6FOandHxm8siwbHqqqYdC1quWc0K8aaQMia6jy0V1OV9GQgWVDzd5hmpxgUoIjDWVHXJ4hoojzG2X+/oKzzjirY/uOl3a6tEP7Dh3ad+zUsVOnjp3a/b5d+3btIaddB8rv0L5jxw7yK3O8S1wGEu3bdWh/SfuILxDs2KF9x4svurjdJe0k8XZcBREBHqBSJN6+XRSdAHHis32HjkC8w0UXXCQ5h+ZEcILME5+SuGpjh5qqwwLA+YUXXKgTZ1J1Spx15lnz5s7Tu5KOOcdIQ9KNvxbV4qlehS+sIV4CnbkIfWzTriirgJGA2sK97xXWNh9ls0NEZ96xHAiaUbMeyksIbelUuvs93dtd0l52MXV01F9Utk4d2ne4+KKLQfdQc1gD9QRdhQJRdAKZHZEUEW/frj0TJ+UJFO6ASkVV8yVJoabq2neQxC9p//uLL+HCJyzRoVPHDh0v+f0ll/zeI868BRM4Zjt17HTm6Wdm3/uJeAJAljs0BHE6uOOrgPLaJoszVN4j5bjx6ri+aUjXQEpz4W8oIqOvRX/XEd5ubzRkwAAPhDHSDCv5HKPXJIXykJnFh+qCLlcfaYDTKQFoa2dJShHw/ruOm0qkwM8vy092PAMxbH4ykZTWfZb0o4r16d1n3pxvJCLjvF/PHj2PlB6JEkxUnl8zoYT23gOjtx4f27J1ta8HpYhbKcB/xIUTkWUapm94ZqCJdmTrlq2hSHbP4waDyPLNKDyT6FndjuUEQhKzsc0JiVZIzUybYCPTi4+GaF5h9UpIk30SpzKUV5coGj9MsakcpskJ6AB11bFqnLXQ55Flz2IYIx00M/Q4XKJauBBjtHrMyueegj88V0X94NsVq0BN+3jvOAFq/FMvDwFYcZqIKXAxTvAlAa84vlGdmXOcYvOxp/Ocdbp3Tm8PkdVdTl1nLciKodtDs2HSIFJXbcuuKK/g1/OoV0tvLgJtZIunlfgueBk3ZVwL1ivSW9+shc4MmkuB3s/plQPxkbk7IhPEOeqGDzSVuHQGvP7EIQY/I2lSpldaOHjEj5cR7n2/aoFU9U9kLYpz27KDnrKRzBNJ5pzphwvzJQHTSln6nAEa2O5ZFI1TMcwQwQlPno5Ixusxa6H3vpqRYOIQJrAOsxbU4Iy9AocEmf49uKqRnhJogmv4vhYHCtQ8slrcA/YRkX0R+Ug/qLGsK6qlcvyrn9ABYbFQDhJPJvApxeUJlPVbNM136ECjDDS1wsKFLtcJR3CiXQbi+jDLUAsy6c0jE5EM5fXm+NNBREbKJ35lj8XSQFb2lD2b0zOn9HBpRL/4pQRahJJJJVJej5HAWQPV9LTsDbAHsZoAKf2nRwtmwGGZhz/h3mQZhp1TM+A+3hVhI+ts6Gms1+d7Ex4RSnrErJk2fUAU5lzRj0TkoPC1Zp7ytWB1OLn+yDV5v9UBkVUfy+7UepGetFpLakZkHEvJRErHQX1eKUwcQplg4KigGjE/Gid1RWTbyhqRUek9RNZBgTnREhGNUle/0YjsqnP2lDQydyv4t8QTEp0jcUrrfYgtUSdEthx4o+JPGNd8xF1JnMvX1ATUDZ8jB2lLzeUJNyXhmgpzvRBUw/gGILIaY7hQ7kWrYJObXtBAEKokvv15JelG/Sr4WqQ0Xwt4N/F9vcLyIRzwtfAV5vdHuqsOcS2krwU+ZxXzxMkB9LWQU/XqEtjIaUP6V1Gmn+0AJ7Tw7bUl1Eyiz7WkCJFVdQGZBIljZKlIUUuBa5MzEpEV5ci7dD4pSIqeE2ZGryVWrTlyhGSi3Ytr3/DWpj2cFFe9c7R5ZJXpxUf2cmru/YCvRaTAFR3QW/C1qMzcTO+qI2qPa6ERhx0iVXhklMpUcpAOAB7mYgF58qkumcg0FkbnGUTkIHEpHCDuXYKTfyM7XbHkFabhrE8qhm9kynhJEudMphlIUHvhHPq0CsONDQwU459APBDTRpYH/eEv10vD0+f0pRXj8ioROWvhkeVRyfTrFNcCfC10t5+QKuodhMMTDsnluhSTHj986Zu7ste3T18JvjwwAJHN7NdbYZFUrePT4n54CZWsACjmwnlUXnSS2vxViLi8PbSMG6hauHAusgcB2RHn8hlqIcWCKRGWUhRxajjNtEghqNk0II5fn42sqDm2A/GR1c//hb4WqmkYaeiw3tIMaccCd0Z+sEV0UEjxIkUn+0JzKaFi2bpCAeQBtOmsMs1gAltqWzYgMqKP7PpI7cWxoxOXhdHPT6fsVQ2bgXFlT4lULxaZ1ueRAQRDnDDx7KNx0i3/UV+LujuoNXzvt4L8AkBkck5QHYwP4RAio0ZKrAkNA+hjlUnqFe51yoHTD1Npm45WxBplSc0blPVDji7CMr8aQTgLylH1wl3/aUQmzvW2yzPYyZME/0JciyhfC1x888a8TkSKTusgua2OpiA10Xl3aWKRNrK6vdYxaRqmnNZUt5B/nrSdtUzIz9L7De/CM0Qg9pvexdFptHxty45VxzKpFjGDhywwrnlCUBrCOXpdru1Kf2TFG5ps0rSHW5QMPYmpHKADTvSuA9AZehtADwe5go0O/sxARIK7T9Nznc9g+muKyGA+u/rzNfLZyY2t/QwRfM1RK3v8oqQ6gwXNVjfhmv5aFAFVFJMQqWHgLr/bf5i4NhiyPUNEajYslHu8qedkQX5Bv779yHQFAdHBGuByZJimgyEKXVvgyjve4lguBCLGEJdQnlQZ9vHjnRB9EPTYdjCeJkTVNCCeGxgXiDWQcJLJhO14Do8QEQhW2NSjW3+pwSBnrm0LB4mC9mP4WoRjQmQYEmh9UkRF6HJtQhCPd0TrBoMNyNhywDYENpKT1EqqER2kugBE5+D5oapwBn2ikey1SBEhJendK8LXQs5acNtZGtq9XveBP7LNb3/RbCvsgPMKLKdSn7XISJz8kaEJNG+rhOn5WjCTpLeWb4dIuNU8xlBh3B7d64DIjmnHqitR5+SzCgL50WIvRO7RwrO5ru0IE4JrY6xAR7iW44CiQseh5DHMK4gFvjDp7LjViQRqF9zs4glmEJwbguc4tm3DdJwDmIsdSjYy6DbUDyGu4CpoLhSAeQep5BQiwzTNVAqkgbVjLE9UOhwsyA8G/qYRhLCu968uNJlWmEOzFuD9pnKiFUDTnNptZI9U6AwRjQ4pMPCjyluGpU/khntfYgtpE/pa6LcTQf0vX80qrgVgTcDXVRufUnDaBPyJ97XQqos8i1ryQMX0dQmaqGLe1DA7UHCgX9/+Ur7qDErhwDbNtAVhttPCSog4ACj2AWgdQBmG6EbNg3yIIUuRrTAfQnnbmOkIq1yG/YZ4mxgIy7FSyWqgQMPJERAt3MK4WbiRz+MaQR5mVCwTPJVoXDgqYqcShYPB7THSrSVsJ1GdAFoq6JYN5XHcYgw4mEqHG13hpITr2pY3KugBoyuH7y0Vmw8re0oXaW5RPg3omaA9X4Mdod3lm7Wg1uLVOpyzF4j9FrnkxTpAvhYVOI9MCqB638ekphtyjIUK05MG7vI6CQwfb8FT44QHp15LJhuZg6TJnkWVM63qeKnrJgGGKYQfIjJEVAOto/jFCM2OSDkiCeH+5EEHcKgBPLVYGTCoPJy0Cl/H5kTmdwAAIABJREFUEWnXPZKsdiHGvOPAQQcYT0g4abAjIOamVDnqO9sFRYVq4Sp4XAESgxZjTCJTAJP4AACm3GQqYcVjUAqlbTkQ8xNMC7QMIL6s1kHBSLz8LNTUhvtH0MqeoTl9qQ6V0KwexlSF6wS93/QegbTWmyfd10Jfp5WDUYmCBYJNzQqRcdse9jGLR2qPRpQvnYy4Flp1JwqR+/frDyxjp5JGASIn0zaGswSnODidbNfcWf+YsyVZ6cIRpZveXrwtd13alQsXlm0C7BIRRUpFIbRFonDaoLt37N85beo8KwaCiiXSMFTggAYIQgsljdIDK17ucvMtl99497U33Njl5pz8ItjeagqRBMvH0XTIhiFDJrYaw2SFg145TqKKpnrhFjiEBIeBMEVy17FZ/3yzEhAY7HRcNBG2CeYXtb0WRMZ2geOt/tG6Q3LIV9UggXz/J7iyp+QGiMwf/Xauha/WEZHrdM6ewA2BgVGqyR9VXRvD9UVk1YmgBviMR5wrN76cM236rHwhymMJUR6f+PCoooSTREREG9l2AW8NgFaQD6yOCVskIaqbHV/53nuzX957uHzSY7OsFD7C4fFv45f4N4VZMPeVSZf++d5ru/zlL3++cejjfz9SiYvwjkg7AhzuUOwOYj5Iw8JjFbALCE4Bx108LQRe1kDfqClSnaqsD/7+ZlHBQROi4oMKw2l7YHWDCe9D5EjXOq2vg0kX9nPBxgj+KG1p6IgswAD3qRbrNieUan1zEblf337QsygR+SJsCStupGG2AvPhfKTlE8f2GrHMKoEHtFgx6V+LFn5QKXAR3DFtJ57AHQZwujSaDzibkRZW2jKFiO+84/enL16/8u67noyXwOVE3EijcYHmSDUYz1bh9gX33fHg0HwhKtP2ws+23Hz3oLiJIWYMS6RhigOOGLHQQHFNtDtSwsalMBgHFWQtwT73ikpBh/WQ8QLvnnAeT3rdobEDhx9yHRPCKgJfQK9OiOyIOiAyj5ZQ4hQi++aRSWMwnjCeL4AvGvYha+XIO4aMWitEabUtiuN3XvTHPbFEhYtHK1kpx7FjQphu0nLhaGGIdwzxOCpMEyYjSudPnTL2/rzCY7deP9mtFsJMgIWNj2cwbm0ByG5sfG7svRP/tbZKiETamTB11oJPloKJAaY3nnRAtoLlULRj0Ox0pRAWuss5QiSxUjhrRLhpeJtE5YfeJnwsE6/mjNuxaWcCf1qgwKbtxh3HPAGInPx6IjIt8yjMZdjxPe/V1awQOWKHSGi86Rn1mrXQCYXTHNeCL6nnpNc81TaYLbCcyL3FhQcK+/OsBZ5wA5qXt/8fj0856Fppmil2hTCWTRrbfciS+CFXiJjIe3L+R++9vz9V8rfHHr/9yvYdfveLJxeu3nksfvdfr7p/cO9zL7/s/on/EGbJqk/e6vLXu0Y+0uuC81ou3rT+rm5P2YeE2Lx54F13XfKnm7v0e7zi4K45o2+6vttdQ0bft/CV/p37jduDb6IHdxZ3veYvh9IVOxcveqDjH+7s0HHY+Gf3p4TYu3lYjz6Xd+kzZPKLkycMXD+3/7jn36p0xZpZfd9YsKC4UswYNuzODhdf8pvffry9ojSVHDn43luuvLRHtwe2bU2Pvb77xW3PfX3xhjS8Z8Mpac7JQ+RwX7AJ4IjoWQsh6mUjsxpEJepmI5MBHkUnMq8+NjKgqAMHhU/vO2J/aWmpME0X48BYpe6qkbc8MmSVEIeTjigpv+f8iw9WH1q9Me/erjf3uPKi226987N8sWX7xs5X/Pqvd11/1vkd3lu2xjqyZtyjg67v/Kchd/9l+KhHNh0ov7nLs+KIWD/npUs7dbzshm7/nP2JSGwZ1P2a3932wJIPnh83ts998/ceEsJKiX+/8q+Zc+ZVivS///HUvZ07drzgotm5hXFTrJvxXLvLunTtNbhb34Hx3fP+MSHnjXWmcMqH9L5i7vaCdWs2Pnzt1Xdc0f7hEVN2pUTBni197vxT12s6P/TIU9uX773jnPOuvqJbMZ6zjislCcdJICLLmW4YqjhIg3EfIwXNmeit9LW0kU8hMndiNojs2qLqaPnfRowd9+ceV1/Y6bb7Br63fHMKwMUV9trRD/3lR7eOvvOBkUP6D8lp3/1fCz7bl6xYtnCmqMrPXbnoDwOmbClyr7q4/ebdO5fv3td9+DhxdP3kh+5ZuCI/ffTL26795ZKNm2/rNjlWIj589pnXn/17RVpMfO6jd6b/febIq4Y8Nc0Q8Y3vDD7nwsu7PTxh+IPdbrp94IJ/r7AqdvS84a/Fm/YnCnf1HPj4qn3i3/NmTXnqqUpTPPn6nCfH99o8p/tjz8+pcsXG2X3mLHj187zdD+aMqTpY8vnHi267/+VV6zcPe+AmYRobvyzecsBJrS8a1WdwIZrPLqzC4DmqJ8lGPoXIakXLNxcPmcGVvX07d43rPfD2X1505729Hnryqe0lRw2wICrMlU+0u+aaawc/3/u+R0b0GnpJmwv2Vles3rCkYtcqEc+f/PcXX1hevm5bQcc/dNhTXjJ+1oIHhg8t/nDKk2NHpi2xfsGkyZMe2XSwsst1k4s3l/Xv0v5w8f7Nu4t7D3xcHFk2ZMCfX9tYJZy9E4becU6XYX0eHn5/395975+2a/e+I0Vbr7riTxXFRZvXrrioyyM7DqQf7n7znn2H95Qkcx4cHNs164WJvV7LFcI8NrrHJQvz1t3T8+F1n68xygoGjZj68Tpz4Zzp86b/TThixttLkkfEzJzxG9YXwFQUHoQqbMN10nCAL6yVybfSU4jsWZBktSg78htvI+PqiEha8T0Hdry7ZMyDj67ZvqMgIWBLsmkJZ/1Tw7sNeW1Z3t6D+TsLXho1c/6/VxxzxfAH+19wznd+2vYHl/b/+5YSkXP7wKMpsaH42P3jx4tjq/v9qd3n+4VI7x/Xq9OyjVtv6TalrFRMHTXix63O+tFPzm3Tpv3U4X1mjO381qL1aSu2bcGAP99+14bdBbOfu//hx16Iu0IULb3q0qva/rzDL3/U7Hv//ev5n5X9febr0+f/KyHEx7kbJo/vuWlur3HPz6t2xMY3H5w3b+q8Jav/z3//se05v/7xj35+eZfHiw9Xvvj3wf/zs3N6PThqX5moXFc6asCQEpGAqRBYw4RpuJM1a3EKkbNFZMdJlJfv2Db+npwVK/K2FVUUWzil4FSnVk65N6f3ykKxffv+PWsPdfp11wPJ5MoNX1zT/mcXtP2vn5x70d+XxVZtq+jRf+ghW7y6bMXQ0Q/smNbr+WnTqoSoXv306y8O33io8trrJ36Zd6jjr1v9/Oetz/nJr37Y8tei8LNRQ+59v0SI9I7nR9wx5LnP9u3f3e3WrlPfLhCuW7zlg0ZNf3rGD3/6s7O/e8Y5XRevKRk2alAi6VbHxKhxE6p3zZ46vufLq4QwKyf1ar942aKr/9r39HMu+elPv3d663Nnv1MYO1qY063rOT/86QdLt5nHxMycaRs27joK56LjXB7sdbJg+vsUIrOpqL07SmhmRKbQvbZl26YNLh34pTNL0BcmUxRXjtaqJcDlKJVMJ+IQCzj4hZ3B+OUExi+G2rWc4F0eHSCejCdTSYgrLzk3bStrzmEFD79qzx6sTFiwEAxrEOaOotf/8WqxnU7QUaSWIeLLJj7a/bHP4sW2EDH78wlvrH5n1toNK39/wzNGWWLn0jc6DJy8rER07/1AcczYUHykzxPjRcXqcYO7z9ojRGXh2HsuX7Fhw523TqzIF2+99MY7C95JuKKoosgq+WLuY13e+2KHYRsr5g24pv+QAiFSlQeuv+7WD979wCha2v++hwqOGCKxq3B/UWmFmP3KtGeefaYwJd795LNpT/TOXfBQv6fnHBZi1rDbX5j+9Nt52wdN+rSsLB4vP7zjoDhSbZQe3WKKghkvvrl09m5rddGIfg/tdqpgHhC86eBrpG0CZXKqQ1c51TWetGEbN+2qqqyoBGcy26HITaAqplQVChQLqlJbD+b06v3+wvfJSYO6j5baK8orInsctYIcsiRv4ZzIG3mjiow0hEGobYw5pSu5x7mvyZFyiMi0DKuyojLMAOCOUjMvYbs9e/QsPlSsclwTnB6sGROfKS2vSsL8GCwWCKM4sWzc3QOHbLNFZTwpiuK3ndeppHBZz8FjZ39eLsq2Pzn5qWeWpT/ZVtrjoWFlppixdNFDI3NKFj7+zD/fLBZi72dPTZs6ZH1R1Z+6TtycV/pg3+7lRroykSovzBdVq8YP7vHRQSGSOyePvGvYnM0ljtiVv+/aWx/atyfvwK4Pb84ZWllRISr3bsq39hZUPnzvXw4cqT5UZj726MiqLdOnTsx5aoVtVZZ1/mGjT1YsHTB82qZdMSu5v+DgkZIqcbi4NFGZL9KHOp97a8Vq8Uqvp3LXbyqxYy7MIoOlDMemkhczOl1IrbNc6lCWodSxmrrDwuDLuM2Kb6kpgSvodquWEB9ZfkmZUYdRV9GZGq/SPsZ4LMEbAmmpEF37QOd5O4Kihm6nytGIVqFIsbW/cmIdb3ET8STtq4SXA/RQ1kqiN5VyL2mUTCSTiWQqkUol/d9Eii7V6W8qkUqn0vFYvLqyOhWikIgngFo8KROUjiUSsYSXg/xEVppKpoyUUV1VHa+Oc4Eg28lUMlRvuPDunbt79ehlpk3TsJMJM5FIG4m0qDSTlYnDyXgsGU8n4k6sSlTljn20z6QPD5ekhV1lvztpxufzZ+3J39L5+j5PPj7hb0+MuPyOkWv2Je/td//h6nTunvx+Y0cly7a+//Yrd94/7Lknx91ydYdFq1bdcdOw8v1i/bLlDzxw/6Pjxt/crce6T2e/Oabbux+vjSWqFs8dft3AoTsNkY5V7tuw7sYr/7B9Z+6M6a891P+hMUMHd8+5b+ue4j1bVvfr02PwqAm97xszZvTQbXn/andZ1/ETpj1w15XPvf7iriNVQwc/MXro6J739h/39NvrczcN6n3juMfvf3TomF1ry5K5O2668rp3N+ysTlpGIp2EtRE7GU+nk2YqaSbjafjWILFUMgXugCmj7GiZaZhhMbLw+VKGxL333LtyxUojDTvsqVg6lTbSxtEjxyiGeuBe0Ar8cn44hy8FEqQq6ZRx7MgxIw0B2unLDHOCL9UpkU6lU8nUsaNl6aRsi347E+eEkTbu7nb3gfwDmJNOJdPxpGHGDVGRLK+KpwxbxE0jmXSr84sWTezWb9CXaXGsKmbml9587iUlBzdOfPrpAfePf3rsiL59h73876JFuft7DnykpCo1/eP3BgwfEN+/atCDg0aOfWLEwBsenzh41c78a/88orTInDJ+WP9B9w14cMioR8aJktwnBvdZki/cqt1PjOo18l+riw0Rr47NfPHFZ5558mjlkdGPjhj9yCMDevXoO2xicenROdMe69EjZ+i4p7ve0mPftg/nvvHUDXcO/eeUSR3P++FnedvfeOuj+/oNGjVi6L19Hlq9pfijuW8NHXDXY2MeHNZvipMvXn5o6KChowuqjFTStWIpOxZPJhIJ6gLSN/ybiKcC/ZuCwSt7KpxIp9KB8uEynAMdlEid/t+np1MQqz2dhDj6Rsow0to3ZUB+EvNTRmVFFcAX5shMvXDagGD8Seh3HC/eXwLPcCaTMtNmdWU13U6ZgcJJgF8gnk6mYYcIegjAKy3DNhnS0gNBgjpCvgJyQvqa/pqGKUOZqHu1Z4uqTpGiB2NNpML5+hkitXIOLaJ4PVSdemsoPHCwb5++xJWsAl/qjaRpQogA8G4H92KneP/eLZtKwd9T2OLY3qqi4iOOiOdvWrhkyUc7DyU25FYk4mLLzj0pW5QlU1vyd6XcVKLiwJ4V87duyN2df6gsnty2sVgkhDCr1q1b/cFny9euKxVpYe5bf7g87rjp2MHVK3YVwGnMrhCpYztWL95bZQojtWPJko8/3ba9sDyGq935O7au+nzFOx9+OfixZ6utyv3Ll+1a/vmG3Sv3HjniCpHct/aL9z5dsnTPUVyJP7Tmsy8Wfbpm804wjCtLNy3L3VGK/qHgcwcf28QZPdUFYSF7OcgYBHBQi+kkc1YV8tWVHZGRYO+c3nPnzPPJHMtLR47QvVyFxwy6GOtqqV8KprFDqyrRby9KyVVDPMXOljKyGjhDRGk4zpOG2uLYTo/uPYoOFZH8vb+Gm0rABDKMOPAjOyYq1m7YvueIEBXxtIhZ+1dsTFtO/Oiu7UtmLVm6Yfdu9+hBUVUmvtyxP+aIveVHthTuS9lO+b4tmz+fv2VbXuGRwmrLXrv5KHjpVB/68JMFny5ec/iQEEb54d1bD4NrR3lh/oaVB1MJUGlHFG3ZuetgpRDi8L4NixZ/+sWm4qRpu0mRLF6z+POPFq/uPmbqpv170pUlhYs/27VhzaZdu4oSwjGcbSsWf7Z40/rdhystW8TLvlz66eIvvigqSgpDlG9btHjZ+gobyEO7XAOd5aTPsq+byET1xOH1ha8YyROjcer7MiLKaJK3DKvlWS1RsFoFXEDLgyTEs8UT3UL5shZ/PimnxwCNjpqIC4zDruYlqDrvXtU6qkHNI4e3M+n+pHjVz1LNvzBej9yzx6UC8yYac4h+2m++JTIR8rUgzNU3OEBT1QdeaigslsqB/67AHSL9fEJB5UmnTNeA7Z/oMmwLNwnHksnNIKReOHJcwxJOlQDQVkTAF94SBtxppYRZjd6W6EUPzg1C2Il4vApuo+EHLkHCdQ3hlJtCGDQDC/s6XHBRglnsNDwUsE74id2xIm/HY1OejRkpOIXdEga4fFrCNYWTiiNoghs13APbqMhjSiTjwoZ3R+/jwtnm0h/Zrw1eGT0V8n7TpU1pWVyTvE6A0hHeb3gBDl6KvJF1hmlhbJrowlxGS4R9LWrkHLVCPrw1CjUmMYwRnCGic07C13PU/a7t9qQ9eypHqY2wU9KlHd3FE0JUwOYhIWLVGKiE3MbBBR6OOoROxY0gBvjHgxYAzoHzcFzARLQJO+qAEHwtBzY6AXUAX/RHh9ot204dS5NKOMJOuy5s4hB2UtgGbbHDg6VTriuOVSdGTZ68adde2B8G+1axbdQvrpt2RcpVqstwkXZFEgyYNFaLzbWRNy7BIkDu9XC42pWIJI59ONUpmw96l7c6q5Wvgwg3Wa/0nqrjOXsSkbPhBCtNxBOgXVl8FCJjT3tWiXJPIQropIJ7z7KgSJsdAZG19suRwJtqNN7q5gETQmSQuG7d6xCDJpU+fSNncGy3IL9gQL8BsjV8C7igmzbsywBQthDYwN8TdmLAKemg2VQYk0nXgrVjyLGFmxZuSrimK1zLstDxFwcQlUclSMRTFng64C0Sly24ES0FuILFUO1t10qijYE8kosobhlJ2q4BG//AZkf8NaFS16mOKTNWcggVWUI4Ke94Lamd9UZkKQQ5MlVzuF1SrMF/fXL6wKlOSoAsB0DkyA+PHO2qDA6l5WRIhhHZpyp+JQencormlYEiXwogMrIqjQNWci6MD2eMNAR+7fKj5GDC7g6QoQ2PVhsdg8HLPVVdpfQNNAM0Djb7g/xowUzu18DlAdtOQ2/DMxwLosLCnlBUVKKvKha2bSZTSbnBH4Tgwt5px3QdQ8CmJxxQWJEFwAo6ixPCCMhKSzFAAIQVoMgCslvB39lx0qCYxB62EjCfvOS93qdxgLEvmLFaEtL7LXtEtlu1bBWkqfiXsuXLdURkWmPju6FdrK48LvjyV+H9pvTJE7FWvYw0RGVIWXFand5wA7KIQOQMxGtAZE8cdC8xw4isCYuGDSByfz8ioxIZSTMtTzsGswRHAOoSrE2gK7wEZURiiF+BAwJmJQw0V/E37M6Qw0xKBYknYhZky6FAXQiPKlLeJC0ngiKDU75rx0HfVUOgjIXjxXUtNw0/pcpjyhExGbEenavhPngFhz0iJgbiAmxW0OkKx3TUs0Rlypqi/oVsZCjEKqg9XKNu9vL69MaTT3XgxnsraaNzuNO51zwaGAhYrzF8l3Y1EpE9VWGBEP3IPXth+qqwjDRE1ZGSU+icmhG5tKTUa4oSoAUGKnzgVUn2BjzWzepynD2jroQ3SexB28V9IXLc0Z22MMHu0OAYzWQoj+qAy2lUFP86lpUkb2E5k4BrVBbsIqIgFWoQOTDjYLumIXCPJ+kUbAEk5m0ZEgA2t/Athp024JUPB48HD7JbdHkex569wA4RrU3BJD5fW7fCU53oGnGgxO4NB3U1mUj53qdZ/TihqRb5PniV6mSpvFZYBgLTc5gmJ9TVrCIN2XCqkxfgwxuNTE7ilByoAUSWtgOBMkOz6huMNOQLvuwbM9w8LI9hq2DxUAqUVi11yrjSTRyyewATpKPtbMsp2F9w/333S4HSuzBEB7KMlGmpWQ4lIiV2Ylj9gv9eTrCsXopKWoZIJgyASf5g0+g9FKYQlUBQlyHgAISQoQ9dQgiG8Y5bVz2VAjdjJ5GQsx3MFcZLEo4KzQH5/AmAEeeHEnRSuC+AQ6hMMIMb4r/QO6f3gYIDMo/KIBvyuGhdl0gyqltli/AWjP2mJB8eBroe6nEtVHURsxaKWy/SkMphtfES2iUPkZENT8kZkbkwctKje4+Ic/aoCSgUKg5PeMsSjpNOwDSF7yNLKK3gawCI2LtMgi6pn3rP2xbEbbPSWsR6Qk+KtkW3aDdAUvvJdeqdIjNdAR4kpm3rG529G+qbch0XTnUKBNipmapjOx4ik5xDcMGtwGicST0qWYSqaNp1MiMNkfZzZDw1DDx7FiPsASKHxkxNOQFEhvctJksJTWs9RM6CvgOBBBUi18Y5DRLwbFOUGZHz9+OsBTYNWoqK6OL5YxDCmPWy/gnSGAT9dArNVdYhxRWzB/XSAAhcIjaovWSyM6QqOADi+ocpADBrBrJOn0ca6SvfohEnRE4m5En1UlCe3490A5ISU9NHOOw1DyHs9D69+xwqPAQlNfrCEeRa5wlBscE6411CM1b2lyrmXQ3lODbGflP5tGLBZCnBt0tE1rSFL0UmPESmCShquxbKku8iT6we3XscLjnsdRGpHE5Y8aog2hDoZYiH2/sKq1ZIstx3gXySbTiTaCEkwYjTQbOm3o9UFdVYbh0kqCQquW1YgMhKE2AM1vANO65Fer/RTCNFiDRScIYIEwxT8HLglBxx1plnydVaJZAMvX+yTj7FV4FaI4yzPI83Yn1IykwRoiukwePEN0rrgsgscU4w8boiMvSQ5cXrof5wbOdg4cGr/3j1uLHjRgwbMWbUGPqOGjlq2KPDRo0cNXrU6BP1HTN6DH1Hjxo9fNhwqEjLCdQiL40aE8gfPWr0mIhMj9TIESOHPTocitVKfLRHnAtnIj5qzPBhIx4d+uiokaO4fAR7WO/oUWNGjxw9auSoEcNHjh6pZAg58O18RefiomI4E4APX0D4IETmvvYSSme49ykYkI7IXmGlkF5hnKOEaJw8GsOWgYa/YUSuhTjFR9YflgFrg+u1wfH20aGPDhk8ZOyYsWPHjAVJYoeSZAJ/x4weM2LYiFEjR40dM05+R49lLZWJ0WMkKaW9XGBsuPAoWZiqHj5s+MgRI8eOBk6oMHUoU6CO5quQr6oDCuEasVFjx4wdPXL0sEeHQe+HyoTvCrR6FCjMmHCmd+PosSOGj6CxQJmobFK71I2jYPyOhLE2auSoiy68SB/+YdNQ0w23wSCyMgO1BzXOF6l8cp8OOJ0ECgfchrxTnfjh6bcFJFjjc95bNlQ1ZiDuOuCkYqTUsTHSQsQJN1WFRzw8j6zKm4a5dcvWdXnr8nLzvO/avOXLlq9ZvcbL0a+G0mtWrwkUzl2bp3/z1uaty11H37zcvGVLl+euzeUcvSSl87BwXi5wtWbVmrWr1ypOICdQ3iOetz53bd6yJcvW5cm61uWuCxTO1ThZl7du7eq1wIkqH0E8V3Kel7tu7ZrcLxZ/oTgBceWuzQ186Spkrsldu2bt2jVr89ZqgkXRbdm0BbSIjDjV18IVlRWwhBXudM7xOhTe6DFYJd8eutErjPZgVUWVP8dXkY8ZPNUpkMM8UMJHik918is5D3JKAKzjFpWDhQc3rN+wPm/9+rz1JPmw2HNRaNBBa3KXL1sBxfAL4l3r/+bmyavQ17lrVq9hvQKtDhReqwpjj69ZvWblipV8O7Ph3UW9j1Xnrs1bu2btOuKZmKmZeF7uupUrVq1csUrXlgzpNavXrl61Wi8Q0Kvctbl0FYfqupUrVuojLlyYNBDuQrZ379wNXaYejapHpA7AT1YkWNlLZn+im2XC3iX99qCqMHFUD3lqoqouUFjHT5+vhY91fi2CpSYVsZ7fo/yNhBu1T70iDYUk6CNe68oeCYKYwdl9iDTE3GpMRiTRJxEEnd2Hdhx5ZcOcazKk2X2w7/jDXHFCu2iZlm+dIQviTBgSTJMT2mU8+VT7nZl4eGWPaXKCiCEdwiBQ1lo/WKameWSvCRqdoK9FRs5rX9nT9TZyZY8bSAmtUTVFGvLYVrfgqYb4LNEaAskw80p7XQcAwiseLunnBB51+ifAtt5McGODzW9e8VqIq2NV+YaMxE3DBIMpu48DgcA0zsOc+DnHYzC14RlZntjDMzZhBjJyLKiu8disq68FITLfH+ZE66A6ruwR0YwUv/aIrB5NLMDoxClE5sGm69NXgMhh9WNO/GPy64jINM0CnAc+ka1GyZ9CZO/BpgntFCJLYXxdEbnmaJxaL2vJU4jMOHjciIwzRVk6w5MdLXeIcNXhhNZFXz9EVmav742HWnQKkU/ZyKztasT9r561OIXI3N9+++xkzVog0ICjBbjyZfHBUt8IRMaDE30S0btGT6NMTtnIp2zk0MyjNqa+rjYyziODjyFrvFqE0afkvXESaSPzvcrY4fLZziOTKYT7drKdR8ZtdWAPUu0066JzEmCGNgUxZ5FzZ9pVRGStg8PGGl1U9ULoCa1MwIUI8FfjDbdoK86+Y4JSAAAgAElEQVS1fK8M14wJ3R3CK6Pf6OecLGuZp3HlyUqVbxDzyNgQCDFootO94i26papbHduBtSD+ZGgmvpQElVyXHqWZFM4jy7AzlJmBeOQmjpqIo7bUYR4Z9z36OA9z4rckjDR4v3lNiSxP7PGqfsYyOqmGtUMkyn/QW4iUDow8G0uO1srfiJyEdIwz0xhpSJXHhUWfWyKoo7rq2OpYVZUT4XWkXcKAZHgyGGZGFGbi6P8UdH+B1Xk/M0QcwTqVTMmVPc7U9U+xQR0ZicjRxJFIMpFtRD462BDWJZR6Ze4gXDrIzmUYmwDRBZUXNkFtkG2SIdbuOiJW5Z1UH3YhCiAyhS4MIw4sKPOXJQm+FuCgFmBA/8mqgjGSAgvcvq70NQrGpBvYEKiTpTQTB9A0MHSD4i1DYXJAkg+qUHmvmaq9dUNkRBPf6nyEfNQIQpc+7+GNHVcb53CeJDc8LHzgX2tUwEO/RuLYWLmqr25nOhEJHJ514tw0TPlgQ/phTvQcGp661ulXKe1xhUupuvtEpsK4CKxvJ5HhGWoGlkQMj4JTYslA/Hj9kZWvKJtLuhZKf2RPHTEUqX5Lxh0iTJMTTLxu/sgyJCsMWqJABCHgKUXLxfdreRWF5UNkUu4A2/TIRUgOIjK2l3mmBHMuoMsR7lksOmVMSyalvxScvO5xnnELD56km9TrCrARAE24qmQiB2SAGe0qnNlaHQsTpNDJMtSsKk97HLjtWBEAMTyVlSnNmcQw+iOH9hBp/HjtCu0QieBKcQLh+eu3QySKuPdQkTtEuDe5gzQGmHMPkdWY5EsRCXy3gz0Fyr6DAawJBAXoV+lAhwYKK8lTXS6e8Mv1ZiDOusGFIScjccu05JZaJRn9Xj2NToE+Ja+FuCtMjN7ORMKccA4ET8fI6SgrTwO5ACU8Uk7D8UcmHKm5y8leC+/Z8zoypIINBZG5UYpD6gaEYwdi5MPpBgqbIhE5oH+KTrSNTJL06yt3ebaIjGxEypYwlBiGtBquUAV6U+p1UUv1v/pVHet51OmFdbzOApHR4g41Xw4wqWDRiIwTC9WE1z4GNDF6nH+1iOwZPohoAZkfJyKjNLwW1fDTtux4NR0uTmhSIyLrKKaTBRUi/cfHoe+S7cKsharaUzaWOes52ub6rle9Ou4vJgVx6bJB5IxKLpUB+dcpw8nWhgm7DZlzZtifIJU+qYgsd1ErTkhVlMIjpPDwrPOePXpoZ3wtogeOZ+HTLfhuBYaP+smJBjJroc+WUC9KUKPjMHTDQU2b+mxklKnUbPU+ItuobGTfAnqG8thzctaCe1ElpGYTyOLkica5Z5RB1Wj3SWjwix1echXBWocNntjiTf4G2og/8b0VCUbMWvBox+eZzg+RYk2QCQQFnoTRywtXVFXSDhFEECVnnSWPGkR2rm3WQnvjruOsBcyeBXhTW3gjlDwQH9mDb4YzrYOyspG18o7lSBuZMjMOT5aVpwB4Fx0N40lP0cdTfryIgHC7H9FACEqXYFKR1zOkPgR7insZENnIwkbG4aYpuVcdkSJ+wpwbaUM3DYNsszaiuBiRuS0sKE54VTgiGU9mO2uB0RdALEqkMqEPT16ywkS8DrMWZO8xoquegDrog82Tc0kqj/6DRBhHtEsNZ4eI7AxdcAR5wLnGsWwPbAj07RDJIBbdBV3dzn3v1csdQyt7+gNMiRpVE5GXZc71hjgHg4WLcb20ssd3BUx7HG8eb7juLx+ligfvKuVQFVi7S/7IGnEqLHufynMzA7drHEpTi1rE+QL37IWI+/ihwvhXDgPOCd+oCacOK3uwNAKzHD6tQFIEWEGZo+HjC8CUkRMZ6pPZjlx61Tiv08qeJyvWFqyIpgX0OqkVEpEVw5kQGVeMpMxrUhUeR1i7XNljTvSErhukMJyjF8P4GAAs+gd/yZU9xUkQkflBgtToVRiarMoHE3oN2e8QQYJ04JmnFUQKjVSoJfDh4cn5YZYUM1l4v9HzOQwEqJRBwWGVDRGRWRaYkHOa/kw6R+DEIzLVgr0CD7bwh5RGdQlcZ6XUM1W+R0AptOu4+ktuLTYyvvvLR2xYMxRNvRa5hOVlYYpGUSCTsIYylZrCL2xRUFmxAOyizjBs/AI7qYiMz5hQe2gGPJRd+549ve+y8X7Tyh8nIvuZlM8SymQdQzce2BCouj4zImcVCEyr1xdBQcuXXay1Ub5VRAILmXp0OyukAydxZLKRGZHxRljmoTcq1VJuskz4mcnW1wIlWZMxKg0dveGo/HKdlvPDLClmakdksOBwY75EMRYQOq9E2s4NApHJIYRex7ir1CutfG1XUpCCCnu/hZFCu4UCTbGQI2CFCqvnP3R5VGA5aSNrAAfrY3TeYoBzeF3CSVvsZlYsicia5RU0H/xTNLBFmzgJawb3L1WBXIExqFrBCbmKrbGN83dgbEIZYoau0msWhuOSt5PUsJg8iaMmTr4yRFbrwL5xiw4bwccAMt9QEFl7H/I4R7HLMFvcF6z8pi0DgaHMTwwiKzWwTMsXdoby8a+nMKr3iUN9koTUA4cnzgmwSuNITKfSmeaRebAg/ZOHyCQx6bDEeoscwvAMP2NOrI1MkYBoDAMr8gvvAtLZgEcgCVrAkmhdNs7jRJW6F7qEG8kJvpp9XAtEZAJNkh1xjqgBM4YwBazUSJI/eYiMIqKHsBIgS1JGX5Srbdh8j201NUazQ9AXcCCT5Fy2CFsKNjKrrzZKGZo9qWZvI6vhBL4WXtdLzolJ5kHa9fwIJKNYGfu0FCHBmjBC9SkchccdHZlQJTF2sBqolBnWFo14nWYtKMYCPfC4seDlZsGqPckfFEZ9Gggi02SL3heyR9TwJJlzJsyfnCRERiWnlT0WICc8lVZul2TnBTjn4QlPQSQoOceObiiIjA67FoxEbxSTya8PT6UpYKCcYBvZNm3TgGMKQDpqyBE6SGX1GzINB5Fty7ZwOAU4h5PhIXQ3oj9L7qQisvJ+Y4jkBB5cL08gJ41EdIB3Li4DCZjohJBPtCmO3l3oxeUk2sgookjvN3IiJA6JbUqTBwsDNP0ERGaBa7gmhGgoiGzDsQwwZ6U/zxDXICYvvWRonDcQRIbFXtiLrNDBPzxJ+b0WoRV5EhFZ+Vr49BZZQgVg7yYYd/SQRs6DwKKGJ6z4SVKohw0FkR2XvD58zURWZYCwgJF6YhGZbGHTMKU1jm+g6uUCQtJJ84FxrQHZyGDFS6XEZ6xkFfTG5oewx/jJQ2Q0NuWsRcgMVDqHK8405QrnrWrPDJY5cs42sjQtYUJfnGwbOWzGAtv6e6KaJpJKST81y1pu1Qm8lxAih01dXUpeD0Wd6qSX9I+EutnIiMg8mSObhms1ngo1QERGK14+M3QlVxtWWefJ5DyJNjIKR85aBDpFrUWxVEHN+WmnXDklq/AOh7EuqTeJFKpNw0Fk8n6TzalpeLLennBEptn9cNfSXKf+Kkc8NAgbGaFNITLObFIHY9d+pfPIJBR0GYYBH1ZWZdfAJVWYEFnOqzDnoMSheWRs6UlBZMVMrCoWzbaOyDjGyCMVmqlNoZAFLdsuW4j/cAyD91sDQGQ4NIim15lzVBXp/qVhsZSK49bR14J7FwmE1EAfR3Va2ZPDk6YvNfyCCQF5aKSaCcRWnBQbWXUrjn08K8ffQPmSSgpDwsTVTjoTRCoAPa0xXz4a/X3RQBAZjFQTlw35mUGc0/A82fPIuGEU4yOTRtHgQRSgOSBdk6hfGhoiSw5JahKpnUg3spPi/SZHMMwlST1TmgeMSbsGE9qwl4iM3P6/9q5FyVFch+7/f+rd2enuSUIgCeSWJOv4+IHBm/ROtjaprhkwQhzLsrBlWQQyRy6vRis3pdfjb7TIiH4rYGPYFfqjEkS7xnZWl8jiK8dlcn+Z6Dd7l8hEEDJXkLqOkjqvvfwlLLJ8CT3tnm7vfpNFvsgaUqYqepqv7GmGjZjuw25xJX9pixzSzmhoPGuLvkuCL8E03P598hhZ+1IUnL219EmvbpGR+w2Wzg9+wxj5LhY5GFNuLWtRe9lSebTIZZNnoZpK8I0WeblL9Fv5QxfCJRXvmkUOrlgQW71exyJjQ6AhdFX5F1hkHd2LEUyRJxbZL1pukOfHWjj/1UxD9noGSKUPGetR6AdJrIVzvi8S/fYKsRbm+cnDZBXnPxFrEcfILi+MdN4WWd7k+PGQEJNHuvpvtchlxnqr1Nsi/zqgeW2uk/h20F/03SPrFvxLJ/VhtuEEHV4L3RaQDJj8uW+L/F3xyBgje3vhdfi2yO4gZv12jbRgKfmqE0r84DeMkXXm8q8cI78tMryx6IFqB1/Fa/EeI/NKjL/4vi8e+T1Gpn6wPx5Zb7ppYNDbIgePgY/cg2OhHNTjxeavLpHi2yK/LXJDVdwCWi99ey0e9SNboOj1cr1ebhLSYX+6kmgbQMp/7ZayXDgIn+tlvJyOgyxHXtf+JPzWZlWgCSUauHq73KbzZJ/VMgLPnzlP4zSex3CvJtzLka8+VHaF4HF8YLCvl9twkg9d86Xs2MJLUgmEumhYsUpAZejVlyRztvby9flLwrq14kIcwIvExGscxFVHuIb8dg2V+vr8SlHlkk/EqyJKSrztUiRStet0/fnXT3mQrt2LQIjY6aWamawcW6UclMtt+fr8wmn1IMHJyO2JBAYytFjpy3T568df5pQM8IhYQqw0CLKO3PRwXZckHvnrUAWMwhZyQRL6i8tQIjKtEafxIg0aTlWANeJ+5BJ9MY3T8XCs3mvIoeSsUVYXISAkjlwzKarEhtNgK9h6bwN5rp+mYBBddqD6P5+Ow3ges0t8CoGjv6AuQpYgj61vYf6Hr8M0Tl7Nzu7Z1Jb5Ng/HQWS1rk5A/sc4jPJ3HsUC0t941vJhHE7n7O9cK1SaQdLJK7fDr8N5yG8En0A2jKA5n/RGBTOdp/E8nQ6n4TiY/XWQYqPlluMQSuRZCWy9V5CDMx46nM7Vwoj8PB4Pp+E08C3ZcQW5V1lkOApC/hMxevnnx2eAR4UlsYE/D4IWf9VCS94vCbHGy8fPD4tqwi3ZgSEZzyIZ+7OWCk2fwg5iN+Tn6ceff1m+Aq5OiRyc6SA+jgqpXsL8R/USCivIVYAQLCOBhK0Kf/7vx2WU1X/9S5rG7rJLeBYO1gQOgmmcfv74idPqgT83CgElCWYVvl2ygcg4jB8/P2Ir6Ogku2UVOTVxhmo6i6qch/OvrwNrQkZ21i4s/LUf2dVt5FqL4+F0+HUYpQtHzU+Q+6Xioed1SNKzLtPleDhaLy7vDSAd+Tkit6ZXQ9FQ8nH6+vyyDrWGPFQqciY1rhUC5DiMnx9fw0nM49ofxPuHzOgxRbVjlPApQmKNGNNbPvCpzXyT93DgzEzWjpm5gwmuXvJY2KG8/Tglo5U2ODNzhDdmsA25JmCVJdQ1blm5MbFCjxyo36sgh+MQYrozPtVThm0EjBnHJq7lLskbDUOVW1YI5rgFB0aJUz0IsRYZk7VTMHdsyXoXkLv0JNh5jVVZDuZAWNK4CsUdIlUawMNVMLdLGdTsdLlnH4bYqIUxh7qu4VeC+SYJ1FsNmt2+B7mL5Xb1vBaoePuAkZuPokqvyMVr0e77DyCfzvpVp+rTy0JXsCjG7NE41YPzStqZerOCuT23aligMLr1LKYQKKFSSZJpCJsCBQT9QgAQlVRQWvX038t0lZTYKZNwNyoAbpYAAad+oLOYCouQtdrJ5CnYalnEZstcIFvjpsqHWgD5LNk4Zdm6+iuQhx33IPZNayEvLeuxLgQdD8ckNkO2+mCTaJ5js/JCypDbc01Ci+/ZAxgc4C6UaARr3jraCjp10q2DELyWh00c4IAtWLZtD8RKEPewgB4Y+MCuSmgdRSzgFmsUo6dCcdJlP5Vh/JQUrut2u/BVJ7vFVCVmAkgZaTBpKZagJDXkwWimbOSsgC1lGXLRFim05ARJrIUguYVXLCO39Svbz00P1c1vqTeX0QKMSybsECEO8RDEKCq7Z9Rz3azET17uMq4fRtwtooCSF91zseTLkdpFx/jRPRH9xvQ4LpDn3VP52EaVkHbVBSJX5rs5WsFPtzWtdk9zhkRiA8mwcayXJNyw+mMyJUgschzLEFaFq8mA+GaY/+xAaSoWGffi3QJ82mA4C02oqa9lLIyXv1NM4+UykdG04S1gMHLtkzGjkGEAZXagfCoWeR153uQZktQiW7aRJNaiBOB1lMVc9SEm5iCjx6k2eYhHBgeoCJP51XzxoY28XNkDTztIZR4sMuRWMsddapXE3PMPN+IpdLULeRwjG4cSCXE2mScCL+kT5MvBsjuBSYY8FUtukVE7HBD9dvQbHqov+5CdzgA0xmv6iIpFfhA5gclX9jIZUh0trDZBnhFDMm4EQjwyPS62F5rGr/Z2z41snBnyru6p5l5MGf9M5qij899hkfUlGbJA2P3tJtfPYeVjZDy4Jrh8GKu4zdMfquBw78tdfGHTJVYta0VQqkkKY2Q8PSNGuTV5dYzMNKmRNWf8KpKU+F7uEFnnHC2y0WSNl91YtchlTSNQyU2TvBtK4lSM+Q6RDEBKHEIyN5FrpZZZP05K2OyVHAcHrMeaw0EI8Gsi77LINhEUsexEfkt3UdsrkCWT4owbmg08U+KJXq8Oi9zbPfU7LPmQLRMjIbfEsI5L/y+R0+VOiyxLgrGtMxj8INWWikVmmrTHhakqsJXMqZr6XbRzYojWOVtGQJnvGs1W91zmRRxcrMmlCXUw218+tXF+IjiahsDRwely4i5qk4LLwlglGWp8/otWCYMgDBJV0UM/0ZoHi1zy9DkdOpV+hVO9Fi7c6CUAsR8YgLiL2vi74Ai5pwhwIUTkmA47T6lLfPQSvBYoITKTnhHru93HyCCuMQ93qVjiGDmTuT8FSMIsEqbHmyC0oNHT1VnDIfLbnW2G3L7KmFU84Uw36sSQLLJpNlrWKfNHu0x4OhwfkSCfP3/Kh67tr9r64ZK6X8LoHvQOIDK3En3EwhbZbIEi56dkj8ZpFTlf3f+dPcPW0T2RjdNMVYI8ZnYEGNN8nG4il5XVfR/xs+65E7kAYK9FpuToHdT6GXJuFzQo6iVG83gKk3JVANDEAyvX/hK8FlAVACh0xpQ8WmRDDsPi9ECywyJrunob+Bi4aqsE3CqR3CK78aK6JaYq6cBqxSztiy2yBWvosh4HWXhFBcJVr5g8winNScfIq62CSt11jBw2RxZ2wSuYWmR/lsk9VtDxMM4Oi6z+NctjaTWqVBOPqFrkQuZAEpqvjZyudllk8wyaV3cbuSq3uHrtFyya2wVU0PW+gtxpouQT5B0W2aK1CLn7EFcekVvk2osNMjfFw2m1B/HVLotsyCGBKvNwVbOsJV6LqvUhGWZ2rcqckXdY5D7DUrPIhZKj7wtOtZLAVu37dHW/RRb9FKeifTfZ1KPXIhfIgaTHIntmxWqrxCafKWP9ql1rWmRdOrDwPfMTscnusMj2hVNL6+yJ9qG42YFJJB8jF4IL2VKgx4XuVtmafnRY5FmbXD77FlNiZ5xxaiLKx8gFcjR5aL42crraZ5EDcsAOHQNo+cDE8iIWGV4Lk/mmkr+SRRZtgapsIC/HyIWqNOxalTmrVodF1u65G/krWWT6xA/EzorNx6bk+Ri5kDlk6NFvbjpxwfo5DGIyuSiJMYrR8drqGBn9HPNT9YIli2/mbdHl5hiZAHrs2UNJCYYu/Q0/cn2MnFbQxBL8yPS4KL0afchrAXrQ4ACX4LSxS1YOsuxAr65Z5AiJmAc/MpVEMn6iEsQvn4I+A4CZr7aFTUoCQ7ulpPenJH5kvV1UXMcdERKea37k9HGRzHlCdcWPbB/xA4cSiV+CRY7IS2J6xKpFhpKnOBMlL5WWiXVFOg+ty8A4bPsyQEf3zPzIyjZYECBn5mp9IFI5yJCkyC/jJf+qU0ZPzG10HxlWmdvtelf0IztlA3lv9wyfige8DHZazcRrYbeU9I488SOnyJO6K5+VlT17vM8l49cP7dnuBInsgEYJdlnkMFOVuaHoE37m4Q5Zq73c3d53WGSmx9NdBOGimvWQ18KQuzjqyNe9FpEeSPZ/i9rQlHktMtipzHmKEPpDSW8l2cqe1zG3a5CYpsSTcRB+fku1mpVd1CUSYhW3aLdlrld3WWQwV+QiDfyayLdX9ly/RISaHULEAtglc6u4Ic/8yD5NjgPMFKcoOZeUMqSr2yt7IFbzHTINGfJ299xpkV3ClcjXErkT3+VrFWqRUVLKkJBrkoPrtsDdGq5bZH9PgLl1z8ywZMiJeHtlL+2etjt0F3JVrbUxctnjdlhkqZsmYIWU202usRbhO3veHpVXmXPLm9zEZIFrCOGE7LosMrJx+rNEglmr4FQvrXkt4l1A8q0W+X4Xu9bWJyD/mxYZQtEgUHCzA6pmn0VW5OJlwm9N5i9mke+ajTMxmm3kf8MiQybVHkQy67DI/i5h3lFda8266kfmMbKzqwQ7ZzzprdZnkZEf2Z+10T3LlT3M/QEplWGcZGsfycVCxH0WWd9qYTJt4NdURYWzd4ysrJ5nkfF+ZotsgrBgeEiN3zaIpuRW8TFIMmAxgu+wyIQ8WuQdyPui37rGyHssssE2reIdIlYuQzb5i1oICYcxMp2X+sTKuhmPnPbJ8IUhsK8yd5nnY2QlbiPfMJqEvGuMvMsiQ+bqbYu530jmUeCEJAQ7Qyb/vEUG8myMrOW5wAn577fIhlz7Yxwjf0P33IhHTq1WGCOjQZtKLnsREP1GqpJ0T5f58ywywH3Hd/Ycbp/XYucYGci/6Tt7xv87LDIhj35kK2RbbMcgfgWL7GCW+R5X9qybbSH/zRY5Ik/jkat90ol/v0UGkswiV2WO7iYDJv22Id0eXzloKbra4bXYOUYGcx4jW2FT5r0DpudbZEIeLbIVQnQ4cJm/LTLEJpP3ZIy8pay9TZ5nrEdj4MBb5b5zjAzsPEZea3IQvy0yBM6j+z1eC2qgV/kW9U6vBbf+RfNaoKRp194WOb6BqPV3jZFJwj0WOU5bELFkB+pe1Kvy8ZUpccDHmA8Pz5KRi/9Zfimc6pwoYS6VdGL5suTlJuC9pMF8mRfLz9QiJuaSf28/8vk+nAZeCWwg0XT4+kFrILe1HReI3Us4ZeYijq0d1ZQZ9CS5+0BsMTQZHlwN1sE5y/p7CiPz/9wuN3H1On3ZQJwVJcz9nXiDuSLfqCY10HJbZBPHTuY6vmPlqVSTmM833X6yj7ms7E1XFlSFObGab7NsZURJs/VljLxbyW1LmOS12MfcMqZG4nbr64tnOA2g32j9nu4pW2o1WS4xTzp+WPb0esmHifd3TxkwjbJf12+vNBC3viZr3WlY7vN9OA7c4yrM/bnm4JIGRUmz9eVT8YfjTtXajkfWXVg3EQSNLMJKHQXP81XLmYkSqRtRyjGtIcRADuefE9POt/m2DCfJ2reL+SzrY4xclC9DQsyXeVGLfI3MC+Lo+tFAjtCEirxSzZT5znhke7okVLK0HmvMIUOtlOTrcQFuBI1qnwxGcwfz/fHIQC5rkg6mIhZCPt/mj58fIN6DPGi2Ia80UAx1n297d4jYC+8yXTjyvVSV2Pqz7ET/9fkLyCvVTFpfVFE6MMRSIMcl63HihgJxowcpElbyDRnqdoHhOOxizoEcANNEvj8e2b7o3IX8PJwvYzREtQby1rfuaUbTVGWr7+/cs2dyu0yS07wlw6T1l+OvY1u1wOptkb0J9S33tshByxOjKUnloTE7OvzlbZFNjBDaooODt0UWsZBq3S59Q73/hkW2gXcx6hZl8jF577ToMl1CpiHlUE6LUuZLiCPxx8lwI/0DEvdaxOTLFebOx6aKSajm1oRuOJ17vBae6tOfmMHmecp9Nq8F+wpWq7nPaxEbqNtrcb1l2DLk3EDqtaDp+ZYMr9M19VrkLpSMeZ/Xgj05W0g6vRbiKWKxZDLhS5q3LPVabIHZr+T7vBax9Xu75/VyZa+FzQ+4slkDdSEvvBat1u/1WoybXgvviRLM0uW1WMRjGaa8yoQFYsewQhWvRbv1+7wW5n6m+ZS0h5lj90zvikd2Yo1JvIZ45B3MK/HIPj8KSHj55Tui34D8vbIHydMixvPjkYn5O9YiKjmJ5fnxyFDyd6xFVcnFIjdzv6Um8TtX9nYYzbdFXus2MhjEr/lW286PnDb59g4R6sD3d6xFrZt9SzyyN/c71iJ2CpfJt+wQAfP/SvSbj/OzUbqI2y/FxTcvyYizCZ18k82+IWL0pUvE+Uicguyi7o212O21uMrHJVGRzTiB8+nMS6gtl4hOi4JF9uoUYokyFK/F8ZRGODS9FvqdxAZybqBlvstuBYexUU2JflOvxXqUSMp8+frs8VpcEq9FZVKc4gyf+fDCQobRz2PxLWk1i0mx8xEhSKzFV0q/LnN19WZBJhkYZjXfFllN5celrjZmpfHIe5XcXCLHw6nBnBsoDJhaSEiGIdbiHJmX3ZP6vk5hO5BP+lXDFnPCKV6Lnu5ZeC3WW1+31Ib0DP7ErDUzq9XttdhwoCV9/x1rERa137EWWI+WPmx/71gLihaAWJZ5ecda5Ou671gLUhWOtPmtsRbSKprXgmbl6Oc4gGbfZ4lJlI8UuAmQVxNXjNdb+5v8vDs/sg1MwkqdgvnXRL+Z0bTcNAH5ugxfKvoNeS1cW1qtP99fJ/rNlmtkcAe9zZRW9DZefZXoN11TkpEm7czOuxtFYt1fJ/pNM/mFMbILto38VWItNLo8LAOudU+S+TJ3Rb/pkL6cnvOQPvqR943/ix0i+VSRJ3SSkW8zeN4aTN8NIT9yAwnNuTS51N5AbokSlx0i0ctRmeYkzHWHiCMpp+ciQ6ja7N8QcfoKc79k1oHzN7YbSHyaGzNomrfq2s6c7BApGygij/HIDq+FnC2y0pfEaesvH0/dIZIYTYtHdtj1BsJVfQvG6XZ19Zxav2+HyKw7RCgaeFsAAALxSURBVOhZpVigKjEe2ek3Wz9Y5EifNyjX6zolsRYlEu774lTc2T1V1UM88jqSpPWvM3e3DW+bLrxL/PI6c5GhX71ZrIWf1lufumeIR3b6UiwJ88uNAzPqzIlVj9fCHOc0NAiaQQtH0ZcEL7vXJKoRLn1HXgt7nHaS8TxKlDh+TeSagFW9YEZfEtPK3PN3UZOU5D1ZfIs6Ss8riGolnxk0hy9xC8oB6qev7NGzgkUmfchhswyDkxrItIcQtwz582Mt6FlhhwiQb7V+6GPAXtKDle5djpmGdjRQknKWxrMVYUoqiZvsEMHjNpAIPVDLAQkhHNPlJPfbFvJdu6jpcdEi2xObyGW/LiMviVm1nr6yR7DjV50gKLoaZIjmUCXvW9VHpiHjv858V14LfWmzbDaaPOZH3tEqu6LfrALaYBtfPrWXpIvVPuzkZzXrwNV6evQbyb3fIvd9nPTJmYYIeb9FThMBl92MNPuFLLKm+4iqsm2qnp1piGTeZZHVO8d6vNE9X8ci7+r7aJJXssiasZ71uJA5XUxyv1l1qK0zc7/LIut7Mn0J+4AccwTI7dF4ZOsJJX8v6bLI8j3aLMuw86kgf9wil8y9pN8ia+oJiNX5RNhpkz9qkav8tbDfIqubaB/yJ1jkFnLdRQ1Ble+G1I4l47U1PfR6PRr9tg478VrY40rkqJTi3EbusCVe5cFMQ03kXWPkGGeFapbMgfxxi1wy95LeMXL4hghhSzqmsaWrPZmGIIvMbFOTRz8yntE8eGiM3OQsqUzOk/iS8Gsqa/Ajg7h98KBFbjLvtch5PHKT+aPxyA3m6ruXXdSkD+1JcZ4fucFckz0+lI2zwVwXjcOGQCMrVYUtMvzIDZ506VGLTKzyQ83J0OO1KD4okXNMzh+1yAmz9GSW7hkiX+1KKXNSJElhZmuSKZv62YMWuc40lPZa5HyHSJP588fIb4scbRDr021OfEnNVnlb5Kp4Hh0jV5la4dsirwjnbZFLwbyORf4/WPQzG3lzSeQAAAAASUVORK5CYII=;" vertex="1" parent="1">
                    <mxGeometry x="-30" y="-110" width="475" height="214" as="geometry"/>
                </mxCell>
            </root>
        </mxGraphModel>
    </diagram>
</mxfile>